<?xml version="1.0" encoding="UTF-8" standalone="no"?>
<!DOCTYPE svg PUBLIC "-//W3C//DTD SVG 1.1//EN" "http://www.w3.org/Graphics/SVG/1.1/DTD/svg11.dtd">
<svg width="100%" height="100%" viewBox="0 0 803 584" version="1.1" xmlns="http://www.w3.org/2000/svg" xmlns:xlink="http://www.w3.org/1999/xlink" xml:space="preserve" xmlns:serif="http://www.serif.com/" style="fill-rule:evenodd;clip-rule:evenodd;stroke-linecap:round;stroke-miterlimit:1.5;">
    <rect id="Mesa-de-trabajo6" serif:id="Mesa de trabajo6" x="0" y="0" width="802.553" height="583.805" style="fill:none;"/>
    <g>
        <path d="M656.9,289.617C642.458,305.907 600.118,327.622 586.722,320.35C580.247,316.835 602.325,299.401 602.981,298.358C610.794,285.941 616.209,269.695 620.531,255.309C621.82,251.016 618.904,230.058 618.577,229.241C609.194,205.753 618.806,141.006 622.2,130.466C632.123,99.652 646.672,78.14 669.581,61.21C704.931,35.085 768.64,64.434 780.938,121.341C782.797,129.941 786.9,158.11 786.05,166.94C785.187,175.899 783.069,185.422 780.141,193.722C772.89,214.276 755.083,206.195 737.051,208.484C720.896,210.535 701.278,207.073 686.359,218.095C661.039,236.801 677.807,266.033 656.9,289.617Z" style="fill:rgb(222,112,191);"/>
        <path d="M598.053,294.448C605.387,282.556 610.447,267.153 614.545,253.511C614.78,252.73 614.634,251.127 614.546,249.198C614.252,242.791 613.057,233.826 612.588,231.122C612.584,231.1 612.58,231.077 612.576,231.054C608.755,221.013 607.834,204.314 608.577,187.092C609.675,161.639 614.155,135.058 616.251,128.55C626.627,96.33 641.912,73.887 665.866,56.184C681.552,44.591 702.24,42.604 722.329,48.722C751.405,57.577 779.149,83.473 787.047,120.021C788.984,128.981 793.156,158.339 792.271,167.539C791.361,176.993 789.125,187.043 786.035,195.801C781.34,209.108 773.177,213.083 763.32,214.165C755.74,214.997 746.817,213.545 737.838,214.685C729.684,215.72 720.658,215.376 711.786,216.152C704.133,216.821 696.569,218.323 690.073,223.122C679.06,231.258 677.556,241.852 676.176,252.808C674.443,266.567 672.997,280.88 661.577,293.763C650.868,305.842 625.727,320.818 606.709,326.025C597.073,328.664 588.774,328.575 583.74,325.843C581.763,324.769 580.57,323.276 579.89,321.582C579.13,319.688 579.005,317.307 580.011,314.621C580.848,312.386 582.715,309.597 585.167,306.799C589.577,301.768 595.923,296.39 598.053,294.448ZM656.9,289.617C677.807,266.033 661.039,236.801 686.359,218.095C701.278,207.073 720.896,210.535 737.051,208.484C755.083,206.195 772.89,214.276 780.141,193.722C783.069,185.422 785.187,175.899 786.05,166.94C786.9,158.11 782.797,129.941 780.938,121.341C768.64,64.434 704.931,35.085 669.581,61.21C646.672,78.14 632.123,99.652 622.2,130.466C618.806,141.006 609.194,205.753 618.577,229.241C618.904,230.058 621.82,251.016 620.531,255.309C616.209,269.695 610.794,285.941 602.981,298.358C602.325,299.401 580.247,316.835 586.722,320.35C600.118,327.622 642.458,305.907 656.9,289.617Z" style="fill:rgb(231,240,190);"/>
        <path d="M99.936,366.75C115.008,366.75 129.846,369.284 145.041,368.807C161.908,368.278 176.886,356.141 191.648,349.435C192.038,349.257 192.276,353.235 192.45,353.698C193.514,356.514 195.548,358.92 197.292,361.334C199.611,364.543 201.673,367.947 204.054,371.103C204.644,371.884 208.79,376.045 207.577,377.12C186.846,395.486 144.064,398.198 119.518,387.668C111.726,384.326 96.832,378.636 96.832,368.052" style="fill:rgb(222,112,191);stroke:rgb(231,240,190);stroke-width:6.25px;"/>
        <path d="M272.44,380.97C272.44,392.247 271.365,401.996 268.043,412.82C262.595,430.572 243.44,457.987 267.184,468.491C273.575,471.318 278.023,473.751 285.085,473.751C290.155,473.751 295.657,474.277 300.543,472.675C324.574,464.796 314.107,421.707 313.172,404.396C312.884,399.082 318.296,390.07 315.931,384.144C314.972,381.741 318.3,384.274 315.931,384.144C299.649,383.253 288.553,376.849 285.439,377.835C279.176,379.82 278.847,378.993 270.929,380.135C270.483,380.199 269.819,380.312 269.819,380.767" style="fill:rgb(222,112,191);stroke:rgb(231,240,190);stroke-width:6.25px;"/>
        <path d="M555.856,346.884C561.824,349.79 567.023,355.981 571.325,360.93C591.142,383.732 581.699,404.991 575.786,431.947C572.794,445.588 568.433,472.096 550.764,470.362C543.9,469.688 536.805,467.247 530.21,465.364C525.426,463.997 520.842,462.225 516.24,460.353C511.15,458.283 502.685,456.62 498.933,452.407C491.385,443.934 522.148,413.582 523.022,401.132C524.358,382.096 501.732,385.841 498.993,375.168C497.834,370.651 507.013,367.009 509.97,365.523C519.742,360.611 531.494,359.984 540.946,354.433C543.993,352.643 550.203,346.22 553.248,345.79" style="fill:rgb(222,112,191);stroke:rgb(231,240,190);stroke-width:6.25px;"/>
        <path d="M210.834,366.601C201.706,371.395 192.275,357.395 192.346,349.526C192.407,342.771 199.061,328.148 200.561,324.166C203.224,317.099 204.951,309.617 208.443,302.922C225.261,270.674 243.439,244.755 267.488,218.399C274.165,211.081 281.776,201.506 290.65,196.528C299.86,191.363 310.896,194.704 320.511,191.144L320.371,190.766C328.355,190.766 332.735,183.5 338.987,179.961C349.056,174.261 357.954,171.929 369.297,170.21C394.085,166.454 418.19,163.402 443.35,165.308C468.096,167.182 483.015,173.114 506.341,180.804C516.795,184.25 532.49,189.379 542.115,194.953C572.719,212.677 572.319,216.118 601.079,236.447C603.873,238.422 618.861,244.237 619.298,250.405C619.559,254.095 614.146,262.504 613.281,265.598C609.708,278.392 612.245,282.516 605.617,294.533C595.893,312.167 577.569,319.649 562.597,331.639C552.235,339.937 543.707,355.228 528.388,355.228L528.183,355.294C522.836,355.294 518.608,357.262 513.743,359.354C503.977,363.553 494.974,368.88 487.162,376.25C480.058,382.952 474.216,392.033 465.898,397.366C460.605,400.76 452.919,400.728 446.956,402.36C428.272,407.477 406.758,411.351 387.402,411.351C376.559,411.351 367.587,405.862 358.093,401.382C342.465,394.008 326.483,385.419 309.082,383.092C303.846,382.392 298.568,382.177 293.397,381.015C291.661,380.625 289.786,380.295 288.182,379.49C287.652,379.225 285.663,377.442 285.625,377.722L285.45,377.479C276.847,381.107 270.604,378.99 263.094,379.117C250.228,379.336 233.166,382.839 221.121,377.165C217.268,375.35 213.132,370.166 210.834,366.601Z" style="fill:rgb(231,240,190);"/>
        <g>
            <path d="M204.822,369.535C202.151,370.938 199.039,370.289 196.47,368.867C193.306,367.115 188.734,364.459 186.834,361.229C181.172,351.603 190.744,336.894 193.312,327.865C195.341,320.727 197.525,313.129 201.193,306.621C218.246,276.369 234.902,246.326 260.238,222.097C268.258,214.428 273.219,205.519 283.401,200.227C292.78,195.351 303.937,198.294 313.262,194.843" style="fill:none;stroke:rgb(40,48,57);stroke-width:8.33px;stroke-linejoin:round;"/>
            <path d="M313.122,194.465C320.846,194.465 325.699,187.509 331.738,183.659C340.648,177.98 351.816,175.622 362.048,173.908C385.529,169.976 412.285,167.273 436.1,169.006C458.105,170.607 478.496,177.082 499.092,184.502C511.145,188.845 523.726,192.214 534.865,198.652C555.947,210.836 574.644,225.394 593.83,240.145C600.25,245.082 608.779,246.296 612.048,254.103C613.535,257.655 606.032,265.591 606.032,269.297C606.032,274.602 601.449,293.525 598.368,298.232C584.779,318.99 574.442,320.838 555.348,335.337C544.067,343.903 536.961,358.926 521.139,358.926" style="fill:none;stroke:rgb(40,48,57);stroke-width:8.33px;stroke-linejoin:round;"/>
            <path d="M520.933,358.992C515.586,358.992 511.359,360.96 506.494,363.052C496.728,367.251 487.725,372.579 479.913,379.949C472.809,386.651 466.966,395.732 458.648,401.065C453.356,404.458 445.669,404.426 439.707,406.059C421.022,411.175 399.509,415.049 380.152,415.049C369.309,415.049 360.338,409.561 350.844,405.081C335.215,397.706 319.233,389.118 301.833,386.791C296.597,386.09 291.318,385.875 286.147,384.713C284.412,384.323 282.537,383.993 280.933,383.189C280.403,382.923 278.414,381.14 278.375,381.421" style="fill:none;stroke:rgb(40,48,57);stroke-width:8.33px;stroke-linejoin:round;"/>
            <path d="M278.201,381.177C269.598,384.806 263.355,382.688 255.845,382.816C242.979,383.034 225.916,386.537 213.872,380.863C210.019,379.049 205.883,373.864 203.584,370.299" style="fill:none;stroke:rgb(40,48,57);stroke-width:8.33px;stroke-linejoin:round;"/>
            <path d="M198.477,312.33C218.523,312.33 233.465,331.211 251.145,335.556C275.566,341.557 304.209,334.801 329.16,336.259C359.243,338.016 391.678,354.672 421.726,347.752C441.134,343.283 459.893,334.26 478.526,327.39C494.663,321.441 515.498,316.881 529.061,305.67C543.695,293.574 549.143,276.327 562.803,264.254C569.972,257.918 564.607,256.339 580.4,255.542C591.433,254.985 592.782,242.667 575.271,226.034" style="fill:none;stroke:rgb(40,48,57);stroke-width:8.33px;stroke-linejoin:round;"/>
            <path d="M438.505,208.601C438.505,225.683 434.541,240.124 433.001,256.736C431.127,276.942 431.808,298.691 432.689,318.968C433.138,329.318 437.83,337.072 448.281,337.072C449.815,337.072 461.772,333.882 465.277,332.717" style="fill:none;stroke:rgb(40,48,57);stroke-width:8.33px;stroke-linejoin:round;"/>
            <path d="M438.623,210.28C452.452,210.28 467.583,200.119 482.401,203.334C490.882,205.174 496.365,210.532 503.172,215.305C510.767,220.63 516.929,228.6 524.65,233.488C538.687,242.376 558.918,248.66 558.918,268.177" style="fill:none;stroke:rgb(40,48,57);stroke-width:8.33px;stroke-linejoin:round;"/>
            <path d="M520.694,191.968C513.967,191.968 480.019,188.186 480.019,202.631" style="fill:none;stroke:rgb(40,48,57);stroke-width:8.33px;stroke-linejoin:round;"/>
            <path d="M438.438,209.063C438.549,202.71 400.429,206.428 395.787,205.735C376.745,202.895 366.739,211.268 349.421,216.96C344.501,218.577 339.635,217.849 334.853,219.737C334.317,219.949 326.348,236.325 325.229,242.283C320.915,265.241 319.911,287.101 318.434,310.401C318.076,316.049 315.996,320.496 314.835,325.996C314.671,326.773 311.746,336.162 311.22,336.162" style="fill:none;stroke:rgb(40,48,57);stroke-width:8.33px;stroke-linejoin:round;"/>
            <path d="M261.072,225.603L261.072,222.118" style="fill:none;stroke:rgb(40,48,57);stroke-width:8.33px;stroke-linejoin:round;"/>
            <path d="M235.11,327.569C235.11,306.587 250.719,287.058 251.935,265.213C252.658,252.212 250.982,231.62 264.135,223.409C276.131,215.92 298.427,218.71 311.922,218.71C317.053,218.71 322.103,217.575 327.271,217.575C329.642,217.575 336.64,218.759 334.27,218.857" style="fill:none;stroke:rgb(40,48,57);stroke-width:8.33px;stroke-linejoin:round;"/>
            <path d="M383.463,170.69C383.089,173.611 395.428,179.354 396.24,184.165C397.369,190.855 380.786,204.74 371.894,207.673" style="fill:none;stroke:rgb(40,48,57);stroke-width:8.33px;stroke-linejoin:round;"/>
            <path d="M446.193,170.716C456.288,174.679 485.395,184.621 485.395,194.872" style="fill:none;stroke:rgb(40,48,57);stroke-width:8.33px;stroke-linejoin:round;"/>
            <path d="M205.005,369.465C207.321,369.105 209.041,365.642 210.07,363.832C213.452,357.88 215.127,351.017 218.637,345.242C220.279,342.54 223.867,341.44 224.812,338.252C225.638,335.462 222.652,324.012 227.966,324.012" style="fill:none;stroke:rgb(40,48,57);stroke-width:8.33px;stroke-linejoin:round;"/>
            <path d="M255.474,382.893C249.967,372.171 250.855,361.39 252.864,351.401C253.91,346.199 261.292,342.256 261.292,337.686" style="fill:none;stroke:rgb(40,48,57);stroke-width:8.33px;stroke-linejoin:round;"/>
            <path d="M313.823,336.34C313.823,346.222 308.32,356.15 309.524,366.297C310.031,370.578 311.667,374.599 313.656,378.373C314.961,380.849 317.427,383.061 317.051,386.025C316.831,387.759 310.531,387.842 308.868,387.842" style="fill:none;stroke:rgb(40,48,57);stroke-width:8.33px;stroke-linejoin:round;"/>
            <path d="M359.164,341.565C364.283,352.63 370.661,367.559 378.539,376.934C380.053,378.736 385.927,384.628 384.906,387.44C382.677,393.585 375.106,396.695 370.366,400.438C367.517,402.688 363.875,409.145 359.921,409.145" style="fill:none;stroke:rgb(40,48,57);stroke-width:8.33px;stroke-linejoin:round;"/>
            <path d="M417.222,348.922C417.633,348.441 420.671,352.848 421.047,353.356C422.304,355.051 423.609,356.693 424.808,358.431C427.366,362.14 429.675,365.988 432.118,369.769C433.764,372.318 439.742,377.512 440.084,380.375C440.515,383.997 435.471,388.335 433.728,391.438C429.558,398.861 434.412,405.226 425.621,409.496" style="fill:none;stroke:rgb(40,48,57);stroke-width:8.33px;stroke-linejoin:round;"/>
            <path d="M461.663,334.395C471.74,339.86 488.574,350.374 488.574,363.473C488.574,367.438 488.097,370.338 486.671,373.979" style="fill:none;stroke:rgb(40,48,57);stroke-width:8.33px;stroke-linejoin:round;"/>
            <path d="M501.117,319.832C514.094,319.832 528.383,329.959 535.884,340.096C538.594,343.757 537.313,349.031 535.202,352.619C534.88,353.166 532.746,356.007 532.143,356.007" style="fill:none;stroke:rgb(40,48,57);stroke-width:8.33px;stroke-linejoin:round;"/>
            <path d="M541.015,293.548C546.504,298.641 556.956,309.944 564.347,314.396C567.296,316.173 570.512,317.263 573.632,318.678C574.091,318.887 575.928,319.672 576.09,320.198" style="fill:none;stroke:rgb(40,48,57);stroke-width:8.33px;stroke-linejoin:round;"/>
            <path d="M559.654,269.182C565.932,269.182 571.92,272.109 577.83,274.011C588.322,277.387 596.715,280.444 600.267,292.503" style="fill:none;stroke:rgb(40,48,57);stroke-width:8.33px;stroke-linejoin:round;"/>
        </g>
        <g>
            <path d="M211.885,365.837C209.214,367.24 206.102,366.591 203.534,365.169C200.37,363.417 195.798,360.761 193.898,357.531C188.235,347.905 197.808,333.195 200.375,324.166C202.405,317.029 204.588,309.431 208.257,302.922C225.309,272.671 241.965,242.628 267.302,218.399C275.321,210.73 280.283,201.821 290.464,196.528C299.844,191.653 311.001,194.596 320.325,191.144" style="fill:none;stroke:rgb(241,128,84);stroke-width:6.25px;stroke-linejoin:round;"/>
            <path d="M320.185,190.766C327.91,190.766 332.762,183.81 338.801,179.961C347.711,174.282 358.88,171.923 369.112,170.21C392.592,166.278 419.349,163.574 443.164,165.308C465.169,166.909 485.56,173.384 506.156,180.804C518.209,185.146 530.79,188.515 541.929,194.953C563.011,207.138 581.708,221.696 600.893,236.447C607.314,241.384 615.843,242.597 619.112,250.405C620.599,253.957 613.096,261.893 613.096,265.598C613.096,270.904 608.512,289.827 605.431,294.533C591.843,315.292 581.505,317.14 562.411,331.639C551.131,340.205 544.025,355.228 528.202,355.228" style="fill:none;stroke:rgb(241,128,84);stroke-width:6.25px;stroke-linejoin:round;"/>
            <path d="M527.997,355.294C522.65,355.294 518.423,357.262 513.557,359.354C503.791,363.553 494.789,368.88 486.976,376.25C479.872,382.952 474.03,392.033 465.712,397.366C460.419,400.76 452.733,400.728 446.77,402.36C428.086,407.477 406.572,411.351 387.216,411.351C376.373,411.351 367.401,405.862 357.907,401.382C342.279,394.008 326.297,385.419 308.896,383.092C303.66,382.392 298.382,382.177 293.211,381.015C291.475,380.625 289.6,380.295 287.996,379.49C287.466,379.225 285.477,377.442 285.439,377.722" style="fill:none;stroke:rgb(241,128,84);stroke-width:6.25px;stroke-linejoin:round;"/>
            <path d="M285.264,377.479C276.661,381.107 270.419,378.99 262.908,379.117C250.043,379.336 232.98,382.839 220.935,377.165C217.083,375.35 212.946,370.166 210.648,366.601" style="fill:none;stroke:rgb(241,128,84);stroke-width:6.25px;stroke-linejoin:round;"/>
            <path d="M205.541,308.631C225.586,308.631 240.529,327.512 258.208,331.857C282.629,337.859 311.273,331.103 336.224,332.56C366.306,334.318 398.741,350.973 428.79,344.054C448.198,339.585 466.957,330.562 485.589,323.692C501.727,317.743 522.562,313.182 536.125,301.971C550.759,289.875 556.206,272.628 569.866,260.556C577.036,254.22 571.67,252.641 587.464,251.844C598.497,251.287 599.845,238.969 582.335,222.335" style="fill:none;stroke:rgb(241,128,84);stroke-width:6.25px;stroke-linejoin:round;"/>
            <path d="M445.569,204.902C445.569,221.985 441.605,236.425 440.064,253.038C438.191,273.243 438.872,294.992 439.752,315.27C440.202,325.619 444.893,333.373 455.344,333.373C456.879,333.373 468.836,330.184 472.341,329.019" style="fill:none;stroke:rgb(241,128,84);stroke-width:6.25px;stroke-linejoin:round;"/>
            <path d="M445.686,206.582C459.516,206.582 474.646,196.42 489.465,199.636C497.945,201.476 503.428,206.834 510.235,211.606C517.831,216.932 523.992,224.901 531.713,229.79C545.75,238.678 565.982,244.962 565.982,264.479" style="fill:none;stroke:rgb(241,128,84);stroke-width:6.25px;stroke-linejoin:round;"/>
            <path d="M527.757,188.27C521.03,188.27 487.083,184.488 487.083,198.933" style="fill:none;stroke:rgb(241,128,84);stroke-width:6.25px;stroke-linejoin:round;"/>
            <path d="M445.502,205.365C445.612,199.012 407.492,202.729 402.85,202.037C383.809,199.196 373.803,207.569 356.484,213.262C351.564,214.879 346.699,214.151 341.917,216.038C341.38,216.25 333.412,232.627 332.292,238.585C327.978,261.542 326.974,283.402 325.497,306.703C325.139,312.351 323.06,316.798 321.898,322.297C321.734,323.075 318.809,332.464 318.283,332.464" style="fill:none;stroke:rgb(241,128,84);stroke-width:6.25px;stroke-linejoin:round;"/>
            <path d="M268.135,221.905L268.135,218.419" style="fill:none;stroke:rgb(241,128,84);stroke-width:6.25px;stroke-linejoin:round;"/>
            <path d="M242.174,323.871C242.174,302.888 257.783,283.359 258.998,261.514C259.721,248.514 258.046,227.922 271.199,219.711C283.195,212.222 305.491,215.011 318.986,215.011C324.117,215.011 329.167,213.877 334.334,213.877C336.706,213.877 343.703,215.061 341.334,215.159" style="fill:none;stroke:rgb(241,128,84);stroke-width:6.25px;stroke-linejoin:round;"/>
            <path d="M390.526,166.992C390.152,169.913 402.492,175.655 403.304,180.467C404.432,187.156 387.85,201.042 378.958,203.975" style="fill:none;stroke:rgb(241,128,84);stroke-width:6.25px;stroke-linejoin:round;"/>
            <path d="M453.256,167.018C463.351,170.981 492.459,180.923 492.459,191.174" style="fill:none;stroke:rgb(241,128,84);stroke-width:6.25px;stroke-linejoin:round;"/>
            <path d="M212.069,365.767C214.385,365.406 216.104,361.944 217.133,360.133C220.515,354.181 222.19,347.319 225.7,341.544C227.343,338.841 230.931,337.741 231.875,334.553C232.701,331.764 229.716,320.313 235.03,320.313" style="fill:none;stroke:rgb(241,128,84);stroke-width:6.25px;stroke-linejoin:round;"/>
            <path d="M262.537,379.195C257.03,368.473 257.919,357.692 259.927,347.703C260.974,342.5 268.355,338.557 268.355,333.988" style="fill:none;stroke:rgb(241,128,84);stroke-width:6.25px;stroke-linejoin:round;"/>
            <path d="M320.886,332.641C320.886,342.524 315.384,352.452 316.587,362.599C317.095,366.879 318.731,370.901 320.72,374.675C322.024,377.151 324.491,379.362 324.115,382.326C323.895,384.061 317.594,384.144 315.931,384.144" style="fill:none;stroke:rgb(241,128,84);stroke-width:6.25px;stroke-linejoin:round;"/>
            <path d="M366.227,337.867C371.347,348.932 377.725,363.861 385.602,373.236C387.117,375.038 392.99,380.929 391.97,383.741C389.741,389.887 382.169,392.996 377.43,396.739C374.581,398.989 370.939,405.446 366.985,405.446" style="fill:none;stroke:rgb(241,128,84);stroke-width:6.25px;stroke-linejoin:round;"/>
            <path d="M424.286,345.223C424.696,344.743 427.734,349.15 428.111,349.658C429.368,351.352 430.672,352.994 431.871,354.733C434.429,358.442 436.739,362.289 439.182,366.071C440.828,368.62 446.806,373.814 447.147,376.676C447.579,380.299 442.535,384.636 440.792,387.739C436.621,395.163 441.475,401.528 432.685,405.797" style="fill:none;stroke:rgb(241,128,84);stroke-width:6.25px;stroke-linejoin:round;"/>
            <path d="M468.727,330.697C478.803,336.161 495.637,346.675 495.637,359.774C495.637,363.74 495.161,366.64 493.735,370.28" style="fill:none;stroke:rgb(241,128,84);stroke-width:6.25px;stroke-linejoin:round;"/>
            <path d="M508.18,316.134C521.158,316.134 535.446,326.261 542.948,336.397C545.658,340.059 544.376,345.333 542.265,348.92C541.943,349.468 539.809,352.309 539.206,352.309" style="fill:none;stroke:rgb(241,128,84);stroke-width:6.25px;stroke-linejoin:round;"/>
            <path d="M548.079,289.85C553.567,294.942 564.019,306.246 571.411,310.698C574.36,312.474 577.576,313.565 580.695,314.98C581.154,315.188 582.992,315.973 583.153,316.5" style="fill:none;stroke:rgb(241,128,84);stroke-width:6.25px;stroke-linejoin:round;"/>
            <path d="M566.718,265.484C572.995,265.484 578.983,268.411 584.894,270.312C595.386,273.688 603.778,276.745 607.33,288.804" style="fill:none;stroke:rgb(241,128,84);stroke-width:6.25px;stroke-linejoin:round;"/>
        </g>
        <path d="M647.376,113.99L695.983,113.99" style="fill:none;stroke:rgb(40,48,57);stroke-width:6.25px;"/>
        <path d="M697.529,114.536C697.529,123.958 694.341,138.629 683.895,137.823C676.477,137.251 672.085,134.616 669.706,123.911C669.475,122.872 668.464,118.167 669.168,117.263C670.764,115.212 694.968,114.281 697.402,117.068" style="fill:rgb(40,48,57);"/>
        <path d="M723.107,113.99L771.789,113.99" style="fill:none;stroke:rgb(40,48,57);stroke-width:6.25px;"/>
        <path d="M773.334,114.536C773.334,123.958 770.146,138.629 759.701,137.823C752.282,137.251 747.89,134.616 745.511,123.911C745.281,122.872 744.269,118.167 744.973,117.263C746.569,115.212 770.773,114.281 773.207,117.068" style="fill:rgb(40,48,57);"/>
        <path d="M746.746,194.987C745.21,193.126 743.898,189.653 743.867,187.92C743.578,171.838 765.979,169.208 770.873,176.555C772.229,178.591 778.041,188.5 764.989,196.978C761.881,198.997 757.369,201.517 753.615,200.478" style="fill:none;stroke:rgb(40,48,57);stroke-width:6.25px;"/>
        <path d="M563.897,381.455C563.388,381.169 563.552,384.771 563.655,385.354C564.48,390 565.474,394.627 566.319,399.297C568.066,408.955 563.895,424.557 556.861,431.592" style="fill:none;stroke:rgb(40,48,57);stroke-width:6.25px;"/>
        <path d="M602.651,299.169C606.399,299.169 631.333,276.591 631.333,270.485" style="fill:none;stroke:rgb(40,48,57);stroke-width:6.25px;"/>
        <path d="M598.933,305.658C599.429,306.705 609.115,305.976 609.917,305.941C626.663,305.212 634.467,295.174 646.946,286.68" style="fill:none;stroke:rgb(40,48,57);stroke-width:6.25px;"/>
        <path d="M294.559,434.719C294.559,445.778 293.16,452.057 286.915,460.599" style="fill:none;stroke:rgb(40,48,57);stroke-width:4.17px;"/>
        <path d="M278.808,436.102C276.196,442.684 273.584,449.266 270.973,455.848" style="fill:none;stroke:rgb(40,48,57);stroke-width:4.17px;"/>
    </g>
    <path d="M162.688,224.893L148.597,229.936L140.887,215.998L123.749,222.132L126.635,237.797L113.813,242.386L98.832,155.714L119.271,148.399L162.688,224.893ZM121.564,210.424L135.02,205.608L113.525,166.758L121.564,210.424Z" style="fill:rgb(231,240,190);fill-rule:nonzero;"/>
    <path d="M198.773,177.662L202.652,188.501C205.016,195.106 205.074,200.804 202.827,205.596C200.58,210.389 196.029,214.012 189.174,216.465C182.318,218.919 176.502,219.007 171.724,216.728C166.947,214.45 163.376,210.009 161.012,203.405L145.829,160.981C143.465,154.377 143.407,148.679 145.654,143.886C147.901,139.094 152.452,135.471 159.307,133.017C166.162,130.564 171.979,130.476 176.756,132.754C181.534,135.032 185.105,139.474 187.468,146.078L190.305,154.003L177.102,158.729L173.974,149.988C172.917,147.035 171.517,145.191 169.774,144.457C168.031,143.722 166.06,143.748 163.859,144.536C161.659,145.323 160.118,146.554 159.237,148.228C158.357,149.902 158.444,152.215 159.501,155.167L175.269,199.222C176.326,202.175 177.718,203.999 179.447,204.695C181.176,205.391 183.141,205.345 185.342,204.558C187.542,203.77 189.09,202.559 189.984,200.924C190.879,199.289 190.798,196.995 189.741,194.043L185.57,182.388L198.773,177.662Z" style="fill:rgb(231,240,190);fill-rule:nonzero;"/>
    <path d="M215.236,152.837L234.406,145.976L238.577,157.631L219.407,164.492L227.959,188.384L252.079,179.751L256.25,191.406L218.166,205.037L188.966,123.454L227.051,109.823L231.222,121.478L207.102,130.111L215.236,152.837Z" style="fill:rgb(231,240,190);fill-rule:nonzero;"/>
    <path d="M294.082,177.866C293.718,177.383 293.368,176.938 293.031,176.533C292.695,176.127 292.339,175.597 291.961,174.944C291.584,174.29 291.18,173.426 290.748,172.354C290.317,171.281 289.809,169.929 289.225,168.297L284.636,155.477C283.274,151.67 281.595,149.247 279.6,148.208C277.605,147.169 274.999,147.225 271.783,148.376L266.959,150.102L278.848,183.318L264.883,188.316L235.684,106.733L256.757,99.191C264.036,96.586 269.86,96.254 274.231,98.196C278.602,100.138 281.914,104.255 284.166,110.549L286.46,116.959C289.464,125.35 288.391,131.957 283.243,136.78C287.271,136.829 290.475,138.114 292.858,140.636C295.24,143.158 297.196,146.555 298.726,150.829L303.231,163.416C303.954,165.436 304.671,167.173 305.383,168.628C306.094,170.082 307.067,171.466 308.3,172.777L294.082,177.866ZM253.82,113.39L262.788,138.448L268.247,136.494C270.87,135.555 272.7,134.199 273.736,132.425C274.773,130.652 274.707,128.134 273.539,124.871L270.66,116.829C269.604,113.876 268.268,111.944 266.652,111.032C265.037,110.12 263.002,110.103 260.548,110.982L253.82,113.39Z" style="fill:rgb(231,240,190);fill-rule:nonzero;"/>
    <path d="M282.655,89.922L325.818,74.473L329.989,86.128L315.39,91.353L340.418,161.282L326.454,166.28L301.426,96.351L286.827,101.576L282.655,89.922Z" style="fill:rgb(231,240,190);fill-rule:nonzero;"/>
    <path d="M406.305,137.7L392.214,142.744L384.504,128.805L367.366,134.939L370.252,150.604L357.43,155.193L342.449,68.521L362.888,61.206L406.305,137.7ZM365.181,123.231L378.637,118.415L357.142,79.565L365.181,123.231Z" style="fill:rgb(231,240,190);fill-rule:nonzero;"/>
    <path d="M388.811,74.016C386.447,67.411 386.346,61.728 388.509,56.966C390.671,52.204 395.18,48.596 402.035,46.143C408.891,43.689 414.665,43.617 419.358,45.925C424.051,48.234 427.579,52.69 429.943,59.294L430.86,61.858L417.658,66.584L416.448,63.204C415.391,60.251 414.034,58.393 412.375,57.627C410.717,56.862 408.788,56.874 406.587,57.661C404.387,58.449 402.889,59.664 402.093,61.308C401.296,62.951 401.427,65.249 402.483,68.202C403.485,70.999 405.045,73.224 407.163,74.876C409.282,76.528 411.698,77.942 414.411,79.119C417.123,80.295 419.984,81.419 422.992,82.49C426.001,83.56 428.924,84.859 431.762,86.385C434.6,87.911 437.21,89.869 439.593,92.259C441.976,94.65 443.863,97.787 445.253,101.672C447.617,108.276 447.675,113.975 445.429,118.767C443.182,123.56 438.63,127.183 431.775,129.636C424.92,132.09 419.103,132.177 414.326,129.899C409.548,127.621 405.978,123.18 403.614,116.575L401.82,111.564L415.023,106.838L417.109,112.666C418.165,115.618 419.558,117.443 421.287,118.139C423.016,118.834 424.981,118.789 427.181,118.001C429.382,117.214 430.929,116.002 431.824,114.367C432.719,112.732 432.638,110.439 431.581,107.486C430.58,104.689 429.02,102.464 426.901,100.812C424.782,99.16 422.366,97.746 419.654,96.569C416.941,95.393 414.081,94.269 411.072,93.198C408.063,92.128 405.14,90.829 402.302,89.303C399.465,87.777 396.854,85.819 394.471,83.428C392.088,81.038 390.201,77.901 388.811,74.016Z" style="fill:rgb(231,240,190);fill-rule:nonzero;"/>
    <path d="M426.997,38.26L470.16,22.812L474.332,34.467L459.732,39.692L484.76,109.62L470.796,114.618L445.768,44.69L431.169,49.915L426.997,38.26Z" style="fill:rgb(231,240,190);fill-rule:nonzero;"/>
    <path d="M502.524,50.014L521.693,43.154L525.865,54.808L506.695,61.669L515.246,85.561L539.367,76.928L543.538,88.583L505.453,102.214L476.254,20.631L514.339,7L518.51,18.655L494.39,27.288L502.524,50.014Z" style="fill:rgb(231,240,190);fill-rule:nonzero;"/>
    <g id="Capa1">
    </g>
</svg>
