<svg width="39" height="39" viewBox="0 0 39 39" fill="none" xmlns="http://www.w3.org/2000/svg">
<circle cx="19.5" cy="19.5" r="18.7778" fill="#E7F0BE" stroke="#F18054" stroke-width="1.44444"/>
<path d="M16.948 11.1429L12.6539 15.4361H7.72794C7.08795 15.4361 6.56958 15.9545 6.56958 16.5945V23.5446C6.56958 24.1841 7.08795 24.703 7.72794 24.703H12.6539L16.948 28.9962C17.6734 29.7216 18.9254 29.2119 18.9254 28.1771V11.962C18.9254 10.9262 17.6725 10.4185 16.948 11.1429ZM28.8506 20.0695L31.0534 17.8667C31.3575 17.5627 31.3575 17.0694 31.0534 16.7653L29.952 15.6639C29.648 15.3598 29.1547 15.3598 28.8506 15.6639L26.6478 17.8667L24.445 15.6639C24.1409 15.3598 23.6477 15.3598 23.3436 15.6639L22.2422 16.7653C21.9381 17.0694 21.9381 17.5627 22.2422 17.8667L24.445 20.0695L22.2427 22.2719C21.9386 22.5759 21.9386 23.0692 22.2427 23.3733L23.3441 24.4747C23.6482 24.7788 24.1414 24.7788 24.4455 24.4747L26.6478 22.2724L28.8506 24.4752C29.1547 24.7792 29.648 24.7792 29.952 24.4752L31.0534 23.3738C31.3575 23.0697 31.3575 22.5764 31.0534 22.2724L28.8506 20.0695Z" fill="#F18054"/>
</svg>
