<?xml version="1.0" encoding="UTF-8" standalone="no"?>
<!DOCTYPE svg PUBLIC "-//W3C//DTD SVG 1.1//EN" "http://www.w3.org/Graphics/SVG/1.1/DTD/svg11.dtd">
<svg width="100%" height="100%" viewBox="0 0 455 276" version="1.1" xmlns="http://www.w3.org/2000/svg" xmlns:xlink="http://www.w3.org/1999/xlink" xml:space="preserve" xmlns:serif="http://www.serif.com/" style="fill-rule:evenodd;clip-rule:evenodd;stroke-linecap:round;stroke-linejoin:round;stroke-miterlimit:1.5;">
    <g transform="matrix(1,0,0,1,-2627.58,-2056)">
        <g id="Mesa-de-trabajo5" serif:id="Mesa de trabajo5" transform="matrix(0.8177,0,0,1,520.237,-0.33859)">
            <rect x="2577.16" y="2056.34" width="555.925" height="275.445" style="fill:none;"/>
            <g transform="matrix(1.88203,0,0,1.54721,-3637.45,-606.762)">
                <g>
                    <g transform="matrix(0.855656,0,0,0.85873,2505.63,385.293)">
                        <path d="M958.399,1717.33C951.478,1720.95 944.327,1710.38 944.381,1704.43C944.427,1699.33 949.472,1688.28 950.61,1685.27C952.63,1679.93 953.939,1674.28 956.586,1669.22C969.339,1644.86 983.123,1625.27 1001.36,1605.36C1006.42,1599.83 1012.19,1592.6 1018.92,1588.84C1025.9,1584.93 1034.27,1587.46 1041.56,1584.77L1041.46,1584.48C1047.51,1584.48 1050.83,1578.99 1055.57,1576.32C1063.21,1572.01 1069.95,1570.25 1078.56,1568.95C1097.35,1566.11 1115.63,1563.81 1134.71,1565.25C1153.47,1566.66 1164.78,1571.14 1182.47,1576.95C1190.4,1579.56 1202.3,1583.43 1209.6,1587.64C1232.8,1601.04 1232.5,1603.63 1254.31,1619C1256.42,1620.49 1267.79,1624.88 1268.12,1629.54C1268.32,1632.33 1264.21,1638.68 1263.56,1641.02C1260.85,1650.69 1262.77,1653.8 1257.75,1662.88C1250.37,1676.2 1236.48,1681.86 1225.13,1690.92C1217.27,1697.19 1210.8,1708.74 1199.19,1708.74L1199.03,1708.79C1194.98,1708.79 1191.77,1710.28 1188.08,1711.86C1180.68,1715.03 1173.85,1719.05 1167.93,1724.62C1162.54,1729.69 1158.11,1736.55 1151.8,1740.58C1147.79,1743.14 1141.96,1743.12 1137.44,1744.35C1123.27,1748.22 1106.96,1751.14 1092.28,1751.14C1084.06,1751.14 1077.26,1747 1070.06,1743.61C1058.21,1738.04 1046.09,1731.55 1032.9,1729.79C1028.93,1729.26 1024.92,1729.1 1021,1728.22C1019.69,1727.93 1018.27,1727.68 1017.05,1727.07C1016.65,1726.87 1015.14,1725.52 1015.11,1725.74L1014.98,1725.55C1008.46,1728.29 1003.72,1726.69 998.026,1726.79C988.271,1726.95 975.333,1729.6 966.2,1725.31C963.279,1723.94 960.142,1720.03 958.399,1717.33Z" style="fill:rgb(231,240,190);"/>
                    </g>
                    <g transform="matrix(0.855656,0,0,0.85873,2500.92,387.693)">
                        <path d="M959.338,1716.76C957.312,1717.82 954.953,1717.32 953.005,1716.25C950.606,1714.93 947.139,1712.92 945.699,1710.48C941.405,1703.21 948.663,1692.09 950.61,1685.27C952.149,1679.88 953.805,1674.14 956.586,1669.22C969.517,1646.36 982.146,1623.66 1001.36,1605.36C1007.44,1599.56 1011.2,1592.83 1018.92,1588.84C1026.03,1585.15 1034.49,1587.38 1041.56,1584.77" style="fill:none;stroke:rgb(40,48,57);stroke-width:6.3px;"/>
                        <path d="M1041.46,1584.48C1047.31,1584.48 1050.99,1579.23 1055.57,1576.32C1062.33,1572.03 1070.8,1570.24 1078.56,1568.95C1096.36,1565.98 1116.65,1563.94 1134.71,1565.25C1151.39,1566.46 1166.85,1571.35 1182.47,1576.95C1191.61,1580.24 1201.15,1582.78 1209.6,1587.64C1225.58,1596.85 1239.76,1607.85 1254.31,1619C1259.17,1622.73 1265.64,1623.64 1268.12,1629.54C1269.25,1632.22 1263.56,1638.22 1263.56,1641.02C1263.56,1645.03 1260.08,1659.33 1257.75,1662.88C1247.44,1678.57 1239.61,1679.96 1225.13,1690.92C1216.57,1697.39 1211.19,1708.74 1199.19,1708.74" style="fill:none;stroke:rgb(40,48,57);stroke-width:6.3px;"/>
                        <path d="M1199.03,1708.79C1194.98,1708.79 1191.77,1710.28 1188.08,1711.86C1180.68,1715.03 1173.85,1719.05 1167.93,1724.62C1162.54,1729.69 1158.11,1736.55 1151.8,1740.58C1147.79,1743.14 1141.96,1743.12 1137.44,1744.35C1123.27,1748.22 1106.96,1751.14 1092.28,1751.14C1084.06,1751.14 1077.26,1747 1070.06,1743.61C1058.21,1738.04 1046.09,1731.55 1032.9,1729.79C1028.93,1729.26 1024.92,1729.1 1021,1728.22C1019.69,1727.93 1018.27,1727.68 1017.05,1727.07C1016.65,1726.87 1015.14,1725.52 1015.11,1725.74" style="fill:none;stroke:rgb(40,48,57);stroke-width:6.3px;"/>
                        <path d="M1014.98,1725.55C1008.46,1728.29 1003.72,1726.69 998.026,1726.79C988.271,1726.95 975.333,1729.6 966.2,1725.31C963.279,1723.94 960.142,1720.03 958.399,1717.33" style="fill:none;stroke:rgb(40,48,57);stroke-width:6.3px;"/>
                        <path d="M954.527,1673.53C969.727,1673.53 981.057,1687.8 994.462,1691.08C1012.98,1695.62 1034.7,1690.51 1053.62,1691.61C1076.43,1692.94 1101.02,1705.53 1123.81,1700.3C1138.52,1696.92 1152.75,1690.1 1166.88,1684.91C1179.11,1680.42 1194.91,1676.97 1205.2,1668.5C1216.29,1659.36 1220.42,1646.33 1230.78,1637.21C1236.22,1632.42 1232.15,1631.23 1244.12,1630.63C1252.49,1630.21 1253.51,1620.9 1240.23,1608.33" style="fill:none;stroke:rgb(40,48,57);stroke-width:6.3px;"/>
                        <path d="M1136.53,1595.16C1136.53,1608.07 1133.53,1618.98 1132.36,1631.53C1130.94,1646.8 1131.45,1663.23 1132.12,1678.55C1132.46,1686.37 1136.02,1692.23 1143.94,1692.23C1145.11,1692.23 1154.17,1689.82 1156.83,1688.94" style="fill:none;stroke:rgb(40,48,57);stroke-width:6.3px;"/>
                        <path d="M1136.62,1596.43C1147.11,1596.43 1158.58,1588.75 1169.82,1591.18C1176.25,1592.57 1180.4,1596.62 1185.57,1600.23C1191.32,1604.25 1196,1610.27 1201.85,1613.97C1212.49,1620.68 1227.84,1625.43 1227.84,1640.17" style="fill:none;stroke:rgb(40,48,57);stroke-width:6.3px;"/>
                        <path d="M1198.85,1582.6C1193.75,1582.6 1168.01,1579.74 1168.01,1590.65" style="fill:none;stroke:rgb(40,48,57);stroke-width:6.3px;"/>
                        <path d="M1136.48,1595.51C1136.56,1590.71 1107.66,1593.52 1104.14,1593C1089.7,1590.85 1082.11,1597.18 1068.98,1601.48C1065.25,1602.7 1061.56,1602.15 1057.93,1603.58C1057.53,1603.74 1051.49,1616.11 1050.64,1620.61C1047.37,1637.95 1046.61,1654.47 1045.49,1672.08C1045.21,1676.34 1043.64,1679.7 1042.76,1683.86C1042.63,1684.45 1040.41,1691.54 1040.02,1691.54" style="fill:none;stroke:rgb(40,48,57);stroke-width:6.3px;"/>
                        <path d="M1001.99,1608.01L1001.99,1605.37" style="fill:none;stroke:rgb(40,48,57);stroke-width:6.3px;"/>
                        <path d="M982.304,1685.05C982.304,1669.19 994.14,1654.44 995.062,1637.93C995.61,1628.11 994.34,1612.55 1004.31,1606.35C1013.41,1600.69 1030.32,1602.8 1040.55,1602.8C1044.44,1602.8 1048.27,1601.94 1052.19,1601.94C1053.98,1601.94 1059.29,1602.84 1057.49,1602.91" style="fill:none;stroke:rgb(40,48,57);stroke-width:6.3px;"/>
                        <path d="M1094.79,1566.52C1094.51,1568.73 1103.87,1573.06 1104.48,1576.7C1105.34,1581.75 1092.76,1592.25 1086.02,1594.46" style="fill:none;stroke:rgb(40,48,57);stroke-width:6.3px;"/>
                        <path d="M1142.36,1566.54C1150.01,1569.53 1172.09,1577.04 1172.09,1584.79" style="fill:none;stroke:rgb(40,48,57);stroke-width:6.3px;"/>
                        <path d="M959.477,1716.7C961.233,1716.43 962.537,1713.81 963.317,1712.44C965.882,1707.95 967.152,1702.76 969.813,1698.4C971.058,1696.36 973.779,1695.53 974.495,1693.12C975.122,1691.01 972.858,1682.36 976.887,1682.36" style="fill:none;stroke:rgb(40,48,57);stroke-width:6.3px;"/>
                        <path d="M997.745,1726.85C993.569,1718.75 994.243,1710.6 995.766,1703.05C996.56,1699.12 1002.16,1696.14 1002.16,1692.69" style="fill:none;stroke:rgb(40,48,57);stroke-width:6.3px;"/>
                        <path d="M1041.99,1691.67C1041.99,1699.14 1037.82,1706.64 1038.73,1714.31C1039.11,1717.54 1040.35,1720.58 1041.86,1723.43C1042.85,1725.3 1044.72,1726.97 1044.44,1729.21C1044.27,1730.52 1039.49,1730.59 1038.23,1730.59" style="fill:none;stroke:rgb(40,48,57);stroke-width:6.3px;"/>
                        <path d="M1076.37,1695.62C1080.25,1703.98 1085.09,1715.26 1091.06,1722.35C1092.21,1723.71 1096.66,1728.16 1095.89,1730.28C1094.2,1734.93 1088.46,1737.28 1084.86,1740.1C1082.7,1741.8 1079.94,1746.68 1076.94,1746.68" style="fill:none;stroke:rgb(40,48,57);stroke-width:6.3px;"/>
                        <path d="M1120.39,1701.18C1120.7,1700.82 1123.01,1704.15 1123.29,1704.53C1124.25,1705.81 1125.24,1707.05 1126.14,1708.37C1128.08,1711.17 1129.84,1714.07 1131.69,1716.93C1132.93,1718.86 1137.47,1722.78 1137.73,1724.94C1138.05,1727.68 1134.23,1730.96 1132.91,1733.3C1129.75,1738.91 1133.43,1743.72 1126.76,1746.95" style="fill:none;stroke:rgb(40,48,57);stroke-width:6.3px;"/>
                        <path d="M1154.09,1690.2C1161.73,1694.33 1174.5,1702.28 1174.5,1712.17C1174.5,1715.17 1174.13,1717.36 1173.05,1720.11" style="fill:none;stroke:rgb(40,48,57);stroke-width:6.3px;"/>
                        <path d="M1184.01,1679.2C1193.85,1679.2 1204.68,1686.85 1210.37,1694.51C1212.42,1697.28 1211.45,1701.26 1209.85,1703.97C1209.61,1704.39 1207.99,1706.53 1207.53,1706.53" style="fill:none;stroke:rgb(40,48,57);stroke-width:6.3px;"/>
                        <path d="M1214.26,1659.34C1218.42,1663.19 1226.35,1671.73 1231.95,1675.1C1234.19,1676.44 1236.63,1677.26 1238.99,1678.33C1239.34,1678.49 1240.73,1679.08 1240.86,1679.48" style="fill:none;stroke:rgb(40,48,57);stroke-width:6.3px;"/>
                        <path d="M1228.39,1640.93C1233.15,1640.93 1237.69,1643.14 1242.17,1644.58C1250.13,1647.13 1256.49,1649.44 1259.19,1658.55" style="fill:none;stroke:rgb(40,48,57);stroke-width:6.3px;"/>
                    </g>
                </g>
                <g transform="matrix(0.855656,0,0,0.85873,2505.5,385.293)">
                    <path d="M959.338,1716.76C957.312,1717.82 954.953,1717.32 953.005,1716.25C950.606,1714.93 947.139,1712.92 945.699,1710.48C941.405,1703.21 948.663,1692.09 950.61,1685.27C952.149,1679.88 953.805,1674.14 956.586,1669.22C969.517,1646.36 982.146,1623.66 1001.36,1605.36C1007.44,1599.56 1011.2,1592.83 1018.92,1588.84C1026.03,1585.15 1034.49,1587.38 1041.56,1584.77" style="fill:none;stroke:rgb(241,128,84);stroke-width:4.73px;"/>
                    <path d="M1041.46,1584.48C1047.31,1584.48 1050.99,1579.23 1055.57,1576.32C1062.33,1572.03 1070.8,1570.24 1078.56,1568.95C1096.36,1565.98 1116.65,1563.94 1134.71,1565.25C1151.39,1566.46 1166.85,1571.35 1182.47,1576.95C1191.61,1580.24 1201.15,1582.78 1209.6,1587.64C1225.58,1596.85 1239.76,1607.85 1254.31,1619C1259.17,1622.73 1265.64,1623.64 1268.12,1629.54C1269.25,1632.22 1263.56,1638.22 1263.56,1641.02C1263.56,1645.03 1260.08,1659.33 1257.75,1662.88C1247.44,1678.57 1239.61,1679.96 1225.13,1690.92C1216.57,1697.39 1211.19,1708.74 1199.19,1708.74" style="fill:none;stroke:rgb(241,128,84);stroke-width:4.73px;"/>
                    <path d="M1199.03,1708.79C1194.98,1708.79 1191.77,1710.28 1188.08,1711.86C1180.68,1715.03 1173.85,1719.05 1167.93,1724.62C1162.54,1729.69 1158.11,1736.55 1151.8,1740.58C1147.79,1743.14 1141.96,1743.12 1137.44,1744.35C1123.27,1748.22 1106.96,1751.14 1092.28,1751.14C1084.06,1751.14 1077.26,1747 1070.06,1743.61C1058.21,1738.04 1046.09,1731.55 1032.9,1729.79C1028.93,1729.26 1024.92,1729.1 1021,1728.22C1019.69,1727.93 1018.27,1727.68 1017.05,1727.07C1016.65,1726.87 1015.14,1725.52 1015.11,1725.74" style="fill:none;stroke:rgb(241,128,84);stroke-width:4.73px;"/>
                    <path d="M1014.98,1725.55C1008.46,1728.29 1003.72,1726.69 998.026,1726.79C988.271,1726.95 975.333,1729.6 966.2,1725.31C963.279,1723.94 960.142,1720.03 958.399,1717.33" style="fill:none;stroke:rgb(241,128,84);stroke-width:4.73px;"/>
                    <path d="M954.527,1673.53C969.727,1673.53 981.057,1687.8 994.462,1691.08C1012.98,1695.62 1034.7,1690.51 1053.62,1691.61C1076.43,1692.94 1101.02,1705.53 1123.81,1700.3C1138.52,1696.92 1152.75,1690.1 1166.88,1684.91C1179.11,1680.42 1194.91,1676.97 1205.2,1668.5C1216.29,1659.36 1220.42,1646.33 1230.78,1637.21C1236.22,1632.42 1232.15,1631.23 1244.12,1630.63C1252.49,1630.21 1253.51,1620.9 1240.23,1608.33" style="fill:none;stroke:rgb(241,128,84);stroke-width:4.73px;"/>
                    <path d="M1136.53,1595.16C1136.53,1608.07 1133.53,1618.98 1132.36,1631.53C1130.94,1646.8 1131.45,1663.23 1132.12,1678.55C1132.46,1686.37 1136.02,1692.23 1143.94,1692.23C1145.11,1692.23 1154.17,1689.82 1156.83,1688.94" style="fill:none;stroke:rgb(241,128,84);stroke-width:4.73px;"/>
                    <path d="M1136.62,1596.43C1147.11,1596.43 1158.58,1588.75 1169.82,1591.18C1176.25,1592.57 1180.4,1596.62 1185.57,1600.23C1191.32,1604.25 1196,1610.27 1201.85,1613.97C1212.49,1620.68 1227.84,1625.43 1227.84,1640.17" style="fill:none;stroke:rgb(241,128,84);stroke-width:4.73px;"/>
                    <path d="M1198.85,1582.6C1193.75,1582.6 1168.01,1579.74 1168.01,1590.65" style="fill:none;stroke:rgb(241,128,84);stroke-width:4.73px;"/>
                    <path d="M1136.48,1595.51C1136.56,1590.71 1107.66,1593.52 1104.14,1593C1089.7,1590.85 1082.11,1597.18 1068.98,1601.48C1065.25,1602.7 1061.56,1602.15 1057.93,1603.58C1057.53,1603.74 1051.49,1616.11 1050.64,1620.61C1047.37,1637.95 1046.61,1654.47 1045.49,1672.08C1045.21,1676.34 1043.64,1679.7 1042.76,1683.86C1042.63,1684.45 1040.41,1691.54 1040.02,1691.54" style="fill:none;stroke:rgb(241,128,84);stroke-width:4.73px;"/>
                    <path d="M1001.99,1608.01L1001.99,1605.37" style="fill:none;stroke:rgb(241,128,84);stroke-width:4.73px;"/>
                    <path d="M982.304,1685.05C982.304,1669.19 994.14,1654.44 995.062,1637.93C995.61,1628.11 994.34,1612.55 1004.31,1606.35C1013.41,1600.69 1030.32,1602.8 1040.55,1602.8C1044.44,1602.8 1048.27,1601.94 1052.19,1601.94C1053.98,1601.94 1059.29,1602.84 1057.49,1602.91" style="fill:none;stroke:rgb(241,128,84);stroke-width:4.73px;"/>
                    <path d="M1094.79,1566.52C1094.51,1568.73 1103.87,1573.06 1104.48,1576.7C1105.34,1581.75 1092.76,1592.25 1086.02,1594.46" style="fill:none;stroke:rgb(241,128,84);stroke-width:4.73px;"/>
                    <path d="M1142.36,1566.54C1150.01,1569.53 1172.09,1577.04 1172.09,1584.79" style="fill:none;stroke:rgb(241,128,84);stroke-width:4.73px;"/>
                    <path d="M959.477,1716.7C961.233,1716.43 962.537,1713.81 963.317,1712.44C965.882,1707.95 967.152,1702.76 969.813,1698.4C971.058,1696.36 973.779,1695.53 974.495,1693.12C975.122,1691.01 972.858,1682.36 976.887,1682.36" style="fill:none;stroke:rgb(241,128,84);stroke-width:4.73px;"/>
                    <path d="M997.745,1726.85C993.569,1718.75 994.243,1710.6 995.766,1703.05C996.56,1699.12 1002.16,1696.14 1002.16,1692.69" style="fill:none;stroke:rgb(241,128,84);stroke-width:4.73px;"/>
                    <path d="M1041.99,1691.67C1041.99,1699.14 1037.82,1706.64 1038.73,1714.31C1039.11,1717.54 1040.35,1720.58 1041.86,1723.43C1042.85,1725.3 1044.72,1726.97 1044.44,1729.21C1044.27,1730.52 1039.49,1730.59 1038.23,1730.59" style="fill:none;stroke:rgb(241,128,84);stroke-width:4.73px;"/>
                    <path d="M1076.37,1695.62C1080.25,1703.98 1085.09,1715.26 1091.06,1722.35C1092.21,1723.71 1096.66,1728.16 1095.89,1730.28C1094.2,1734.93 1088.46,1737.28 1084.86,1740.1C1082.7,1741.8 1079.94,1746.68 1076.94,1746.68" style="fill:none;stroke:rgb(241,128,84);stroke-width:4.73px;"/>
                    <path d="M1120.39,1701.18C1120.7,1700.82 1123.01,1704.15 1123.29,1704.53C1124.25,1705.81 1125.24,1707.05 1126.14,1708.37C1128.08,1711.17 1129.84,1714.07 1131.69,1716.93C1132.93,1718.86 1137.47,1722.78 1137.73,1724.94C1138.05,1727.68 1134.23,1730.96 1132.91,1733.3C1129.75,1738.91 1133.43,1743.72 1126.76,1746.95" style="fill:none;stroke:rgb(241,128,84);stroke-width:4.73px;"/>
                    <path d="M1154.09,1690.2C1161.73,1694.33 1174.5,1702.28 1174.5,1712.17C1174.5,1715.17 1174.13,1717.36 1173.05,1720.11" style="fill:none;stroke:rgb(241,128,84);stroke-width:4.73px;"/>
                    <path d="M1184.01,1679.2C1193.85,1679.2 1204.68,1686.85 1210.37,1694.51C1212.42,1697.28 1211.45,1701.26 1209.85,1703.97C1209.61,1704.39 1207.99,1706.53 1207.53,1706.53" style="fill:none;stroke:rgb(241,128,84);stroke-width:4.73px;"/>
                    <path d="M1214.26,1659.34C1218.42,1663.19 1226.35,1671.73 1231.95,1675.1C1234.19,1676.44 1236.63,1677.26 1238.99,1678.33C1239.34,1678.49 1240.73,1679.08 1240.86,1679.48" style="fill:none;stroke:rgb(241,128,84);stroke-width:4.73px;"/>
                    <path d="M1228.39,1640.93C1233.15,1640.93 1237.69,1643.14 1242.17,1644.58C1250.13,1647.13 1256.49,1649.44 1259.19,1658.55" style="fill:none;stroke:rgb(241,128,84);stroke-width:4.73px;"/>
                </g>
            </g>
        </g>
        <g id="Capa1">
        </g>
    </g>
</svg>
