<?xml version="1.0" encoding="UTF-8" standalone="no"?>
<!DOCTYPE svg PUBLIC "-//W3C//DTD SVG 1.1//EN" "http://www.w3.org/Graphics/SVG/1.1/DTD/svg11.dtd">
<svg width="100%" height="100%" viewBox="0 0 803 584" version="1.1" xmlns="http://www.w3.org/2000/svg" xmlns:xlink="http://www.w3.org/1999/xlink" xml:space="preserve" xmlns:serif="http://www.serif.com/" style="fill-rule:evenodd;clip-rule:evenodd;stroke-linecap:round;stroke-linejoin:round;stroke-miterlimit:1.5;">
    <rect id="CAPARAZON" x="0" y="0" width="802.553" height="583.805" style="fill:none;"/>
    <g>
        <g>
            <path d="M210.213,368.911C201.099,373.724 191.682,359.671 191.753,351.772C191.814,344.991 198.458,330.311 199.956,326.314C202.615,319.219 204.339,311.709 207.825,304.989C224.618,272.616 242.768,246.597 266.78,220.14C273.447,212.794 281.046,203.182 289.907,198.186C299.103,193.001 310.123,196.354 319.722,192.781L319.583,192.402C327.555,192.402 331.928,185.107 338.17,181.555C348.224,175.833 357.109,173.492 368.435,171.766C393.185,167.995 417.252,164.932 442.374,166.845C467.082,168.726 481.979,174.681 505.269,182.401C515.707,185.86 531.378,191.009 540.988,196.604C571.546,214.396 571.147,217.85 599.863,238.258C602.652,240.24 617.617,246.077 618.053,252.269C618.314,255.973 612.909,264.415 612.046,267.521C608.478,280.364 611.011,284.503 604.394,296.567C594.684,314.269 576.389,321.779 561.439,333.815C551.093,342.145 542.578,357.495 527.282,357.495L527.077,357.561C521.739,357.561 517.518,359.537 512.66,361.637C502.909,365.852 493.92,371.2 486.12,378.598C479.026,385.326 473.193,394.442 464.888,399.795C459.603,403.202 451.928,403.17 445.975,404.809C427.319,409.945 405.838,413.834 386.511,413.834C375.685,413.834 366.727,408.324 357.247,403.827C341.643,396.424 325.685,387.802 308.311,385.466C303.083,384.764 297.813,384.548 292.65,383.381C290.917,382.99 289.045,382.658 287.443,381.851C286.914,381.584 284.928,379.794 284.89,380.076L284.715,379.832C276.125,383.474 269.892,381.348 262.393,381.476C249.547,381.696 232.51,385.212 220.484,379.517C216.637,377.695 212.507,372.491 210.213,368.911Z" style="fill:rgb(231,240,190);"/>
            <g>
                <path d="M204.21,371.857C201.543,373.266 198.436,372.614 195.871,371.187C192.712,369.428 188.147,366.762 186.25,363.519C180.596,353.856 190.154,339.09 192.717,330.027C194.744,322.862 196.924,315.234 200.587,308.701C217.613,278.333 234.244,248.175 259.542,223.853C267.549,216.154 272.503,207.211 282.669,201.898C292.034,197.004 303.174,199.958 312.484,196.493" style="fill:none;stroke:rgb(40,48,57);stroke-width:8.33px;"/>
                <path d="M312.344,196.114C320.057,196.114 324.902,189.131 330.932,185.267C339.829,179.566 350.98,177.199 361.196,175.479C384.641,171.532 411.357,168.817 435.135,170.557C457.107,172.165 477.467,178.664 498.031,186.113C510.066,190.473 522.628,193.854 533.75,200.317C554.8,212.549 573.468,227.162 592.624,241.97C599.035,246.926 607.551,248.144 610.815,255.982C612.3,259.547 604.808,267.514 604.808,271.234C604.808,276.559 600.232,295.555 597.156,300.28C583.588,321.118 573.266,322.973 554.201,337.528C542.938,346.127 535.843,361.208 520.044,361.208" style="fill:none;stroke:rgb(40,48,57);stroke-width:8.33px;"/>
                <path d="M519.839,361.274C514.5,361.274 510.279,363.249 505.421,365.349C495.671,369.564 486.682,374.913 478.881,382.311C471.788,389.038 465.954,398.155 457.649,403.508C452.364,406.914 444.69,406.882 438.737,408.521C420.081,413.657 398.6,417.546 379.273,417.546C368.446,417.546 359.488,412.037 350.009,407.54C334.404,400.136 318.447,391.515 301.073,389.179C295.845,388.476 290.574,388.26 285.411,387.094C283.678,386.702 281.806,386.371 280.204,385.563C279.676,385.297 277.689,383.507 277.651,383.788" style="fill:none;stroke:rgb(40,48,57);stroke-width:8.33px;"/>
                <path d="M277.477,383.544C268.887,387.186 262.654,385.061 255.155,385.189C242.309,385.409 225.272,388.925 213.246,383.229C209.399,381.407 205.269,376.203 202.974,372.624" style="fill:none;stroke:rgb(40,48,57);stroke-width:8.33px;"/>
                <path d="M197.875,314.432C217.89,314.432 232.809,333.385 250.462,337.747C274.846,343.772 303.446,336.99 328.359,338.453C358.395,340.217 390.781,356.937 420.783,349.991C440.162,345.504 458.892,336.447 477.496,329.551C493.609,323.578 514.412,319.001 527.955,307.746C542.566,295.604 548.005,278.29 561.645,266.172C568.803,259.811 563.446,258.227 579.215,257.426C590.231,256.867 591.578,244.502 574.094,227.804" style="fill:none;stroke:rgb(40,48,57);stroke-width:8.33px;"/>
                <path d="M437.537,210.304C437.537,227.452 433.579,241.949 432.041,258.625C430.17,278.908 430.85,300.74 431.729,321.096C432.178,331.485 436.862,339.269 447.297,339.269C448.83,339.269 460.768,336.068 464.268,334.898" style="fill:none;stroke:rgb(40,48,57);stroke-width:8.33px;"/>
                <path d="M437.654,211.99C451.462,211.99 466.57,201.79 481.366,205.017C489.833,206.865 495.308,212.243 502.105,217.034C509.689,222.38 515.84,230.38 523.55,235.288C537.565,244.209 557.766,250.518 557.766,270.109" style="fill:none;stroke:rgb(40,48,57);stroke-width:8.33px;"/>
                <path d="M519.6,193.608C512.883,193.608 478.987,189.811 478.987,204.312" style="fill:none;stroke:rgb(40,48,57);stroke-width:8.33px;"/>
                <path d="M437.47,210.769C437.58,204.391 399.518,208.123 394.883,207.428C375.871,204.576 365.88,212.982 348.588,218.696C343.676,220.319 338.818,219.588 334.043,221.483C333.507,221.696 325.551,238.136 324.433,244.116C320.126,267.162 319.123,289.106 317.649,312.496C317.291,318.166 315.215,322.63 314.055,328.151C313.891,328.931 310.971,338.356 310.446,338.356" style="fill:none;stroke:rgb(40,48,57);stroke-width:8.33px;"/>
                <path d="M260.374,227.372L260.374,223.873" style="fill:none;stroke:rgb(40,48,57);stroke-width:8.33px;"/>
                <path d="M234.452,329.73C234.452,308.667 250.037,289.063 251.251,267.134C251.973,254.083 250.3,233.413 263.433,225.17C275.41,217.652 297.672,220.452 311.147,220.452C316.27,220.452 321.313,219.313 326.472,219.313C328.84,219.313 335.826,220.502 333.461,220.6" style="fill:none;stroke:rgb(40,48,57);stroke-width:8.33px;"/>
                <path d="M382.578,172.248C382.205,175.18 394.526,180.945 395.336,185.775C396.463,192.49 379.906,206.429 371.027,209.373" style="fill:none;stroke:rgb(40,48,57);stroke-width:8.33px;"/>
                <path d="M445.212,172.274C455.292,176.253 484.355,186.233 484.355,196.523" style="fill:none;stroke:rgb(40,48,57);stroke-width:8.33px;"/>
                <path d="M204.393,371.787C206.705,371.425 208.422,367.949 209.45,366.132C212.827,360.157 214.499,353.268 218.004,347.471C219.644,344.758 223.226,343.654 224.169,340.453C224.994,337.653 222.013,326.159 227.319,326.159" style="fill:none;stroke:rgb(40,48,57);stroke-width:8.33px;"/>
                <path d="M254.785,385.267C249.286,374.503 250.173,363.681 252.179,353.654C253.223,348.431 260.593,344.473 260.593,339.886" style="fill:none;stroke:rgb(40,48,57);stroke-width:8.33px;"/>
                <path d="M313.045,338.534C313.045,348.455 307.55,358.421 308.752,368.607C309.259,372.904 310.892,376.941 312.878,380.729C314.181,383.215 316.643,385.435 316.268,388.41C316.049,390.151 309.758,390.235 308.097,390.235" style="fill:none;stroke:rgb(40,48,57);stroke-width:8.33px;"/>
                <path d="M358.316,343.78C363.428,354.887 369.796,369.874 377.662,379.285C379.174,381.094 385.038,387.008 384.02,389.831C381.794,396 374.234,399.121 369.502,402.879C366.657,405.137 363.021,411.619 359.073,411.619" style="fill:none;stroke:rgb(40,48,57);stroke-width:8.33px;"/>
                <path d="M416.286,351.165C416.696,350.683 419.729,355.106 420.105,355.616C421.361,357.317 422.663,358.965 423.86,360.711C426.414,364.434 428.72,368.296 431.159,372.092C432.803,374.651 438.772,379.865 439.113,382.739C439.543,386.375 434.507,390.729 432.767,393.844C428.603,401.296 433.45,407.685 424.672,411.971" style="fill:none;stroke:rgb(40,48,57);stroke-width:8.33px;"/>
                <path d="M460.66,336.582C470.721,342.068 487.529,352.622 487.529,365.772C487.529,369.752 487.053,372.663 485.629,376.318" style="fill:none;stroke:rgb(40,48,57);stroke-width:8.33px;"/>
                <path d="M500.053,321.963C513.01,321.963 527.277,332.129 534.767,342.305C537.473,345.98 536.193,351.274 534.086,354.876C533.764,355.425 531.634,358.277 531.032,358.277" style="fill:none;stroke:rgb(40,48,57);stroke-width:8.33px;"/>
                <path d="M539.891,295.579C545.37,300.69 555.806,312.038 563.187,316.507C566.131,318.29 569.343,319.384 572.457,320.805C572.915,321.014 574.75,321.802 574.912,322.331" style="fill:none;stroke:rgb(40,48,57);stroke-width:8.33px;"/>
                <path d="M558.501,271.119C564.769,271.119 570.748,274.057 576.649,275.966C587.125,279.355 595.505,282.423 599.051,294.529" style="fill:none;stroke:rgb(40,48,57);stroke-width:8.33px;"/>
            </g>
        </g>
        <g>
            <path d="M211.262,368.145C208.596,369.553 205.488,368.902 202.924,367.474C199.764,365.715 195.2,363.049 193.303,359.807C187.649,350.144 197.206,335.378 199.77,326.314C201.797,319.149 203.976,311.522 207.64,304.989C224.666,274.621 241.297,244.463 266.594,220.14C274.602,212.442 279.556,203.498 289.722,198.186C299.087,193.292 310.227,196.246 319.537,192.781" style="fill:none;stroke:rgb(241,128,84);stroke-width:6.25px;"/>
            <path d="M319.397,192.402C327.11,192.402 331.955,185.419 337.985,181.555C346.881,175.854 358.033,173.486 368.249,171.766C391.694,167.819 418.41,165.105 442.188,166.845C464.16,168.453 484.519,174.952 505.084,182.401C517.119,186.76 529.681,190.142 540.803,196.604C561.852,208.836 580.521,223.45 599.677,238.258C606.088,243.213 614.604,244.432 617.868,252.269C619.352,255.834 611.861,263.802 611.861,267.521C611.861,272.847 607.284,291.843 604.208,296.567C590.641,317.406 580.319,319.26 561.254,333.815C549.991,342.414 542.896,357.495 527.097,357.495" style="fill:none;stroke:rgb(241,128,84);stroke-width:6.25px;"/>
            <path d="M526.892,357.561C521.553,357.561 517.332,359.537 512.474,361.637C502.723,365.852 493.734,371.2 485.934,378.598C478.841,385.326 473.007,394.442 464.702,399.795C459.417,403.202 451.743,403.17 445.789,404.809C427.133,409.945 405.652,413.834 386.326,413.834C375.499,413.834 366.541,408.324 357.062,403.827C341.457,396.424 325.499,387.802 308.125,385.466C302.897,384.764 297.627,384.548 292.464,383.381C290.731,382.99 288.859,382.658 287.257,381.851C286.728,381.584 284.742,379.794 284.704,380.076" style="fill:none;stroke:rgb(241,128,84);stroke-width:6.25px;"/>
            <path d="M284.53,379.832C275.94,383.474 269.706,381.348 262.208,381.476C249.362,381.696 232.325,385.212 220.299,379.517C216.452,377.695 212.322,372.491 210.027,368.911" style="fill:none;stroke:rgb(241,128,84);stroke-width:6.25px;"/>
            <path d="M204.928,310.719C224.943,310.719 239.862,329.673 257.515,334.035C281.899,340.06 310.499,333.277 335.412,334.74C365.448,336.504 397.834,353.224 427.836,346.278C447.214,341.792 465.945,332.734 484.549,325.838C500.662,319.866 521.465,315.288 535.008,304.034C549.619,291.891 555.058,274.578 568.697,262.459C575.856,256.099 570.499,254.514 586.268,253.714C597.284,253.154 598.63,240.789 581.147,224.092" style="fill:none;stroke:rgb(241,128,84);stroke-width:6.25px;"/>
            <path d="M444.589,206.592C444.589,223.74 440.632,238.236 439.093,254.912C437.223,275.195 437.903,297.028 438.782,317.383C439.231,327.773 443.915,335.556 454.35,335.556C455.883,335.556 467.821,332.355 471.321,331.185" style="fill:none;stroke:rgb(241,128,84);stroke-width:6.25px;"/>
            <path d="M444.707,208.278C458.515,208.278 473.623,198.077 488.418,201.305C496.886,203.152 502.361,208.531 509.158,213.322C516.741,218.667 522.893,226.668 530.602,231.575C544.618,240.497 564.819,246.805 564.819,266.397" style="fill:none;stroke:rgb(241,128,84);stroke-width:6.25px;"/>
            <path d="M526.653,189.896C519.936,189.896 486.04,186.099 486.04,200.6" style="fill:none;stroke:rgb(241,128,84);stroke-width:6.25px;"/>
            <path d="M444.522,207.056C444.633,200.679 406.571,204.411 401.936,203.715C382.924,200.864 372.933,209.269 355.641,214.983C350.728,216.607 345.87,215.876 341.096,217.771C340.56,217.983 332.604,234.423 331.486,240.404C327.178,263.449 326.176,285.394 324.701,308.784C324.344,314.453 322.268,318.917 321.108,324.438C320.944,325.219 318.023,334.643 317.498,334.643" style="fill:none;stroke:rgb(241,128,84);stroke-width:6.25px;"/>
            <path d="M267.427,223.66L267.427,220.161" style="fill:none;stroke:rgb(241,128,84);stroke-width:6.25px;"/>
            <path d="M241.505,326.017C241.505,304.954 257.09,285.35 258.304,263.421C259.026,250.371 257.353,229.7 270.486,221.457C282.463,213.939 304.725,216.74 318.2,216.74C323.323,216.74 328.365,215.601 333.525,215.601C335.893,215.601 342.879,216.79 340.513,216.887" style="fill:none;stroke:rgb(241,128,84);stroke-width:6.25px;"/>
            <path d="M389.631,168.535C389.258,171.468 401.578,177.232 402.389,182.063C403.516,188.777 386.959,202.716 378.08,205.661" style="fill:none;stroke:rgb(241,128,84);stroke-width:6.25px;"/>
            <path d="M452.265,168.562C462.345,172.54 491.408,182.52 491.408,192.81" style="fill:none;stroke:rgb(241,128,84);stroke-width:6.25px;"/>
            <path d="M211.446,368.074C213.758,367.713 215.475,364.237 216.502,362.419C219.879,356.444 221.552,349.555 225.056,343.758C226.696,341.046 230.279,339.941 231.222,336.741C232.047,333.941 229.066,322.446 234.372,322.446" style="fill:none;stroke:rgb(241,128,84);stroke-width:6.25px;"/>
            <path d="M261.837,381.554C256.339,370.791 257.226,359.968 259.231,349.941C260.276,344.718 267.646,340.76 267.646,336.174" style="fill:none;stroke:rgb(241,128,84);stroke-width:6.25px;"/>
            <path d="M320.097,334.822C320.097,344.742 314.603,354.708 315.805,364.894C316.311,369.191 317.945,373.228 319.931,377.017C321.234,379.502 323.696,381.722 323.321,384.698C323.101,386.439 316.81,386.522 315.15,386.522" style="fill:none;stroke:rgb(241,128,84);stroke-width:6.25px;"/>
            <path d="M365.369,340.067C370.481,351.175 376.849,366.161 384.714,375.572C386.227,377.381 392.091,383.295 391.073,386.118C388.847,392.287 381.287,395.409 376.554,399.166C373.71,401.425 370.073,407.906 366.125,407.906" style="fill:none;stroke:rgb(241,128,84);stroke-width:6.25px;"/>
            <path d="M423.339,347.452C423.749,346.97 426.782,351.394 427.158,351.903C428.413,353.605 429.716,355.253 430.913,356.998C433.467,360.721 435.773,364.584 438.212,368.38C439.856,370.938 445.825,376.152 446.165,379.026C446.596,382.662 441.56,387.016 439.82,390.131C435.655,397.584 440.502,403.973 431.725,408.259" style="fill:none;stroke:rgb(241,128,84);stroke-width:6.25px;"/>
            <path d="M467.712,332.87C477.773,338.355 494.582,348.91 494.582,362.059C494.582,366.04 494.106,368.951 492.682,372.605" style="fill:none;stroke:rgb(241,128,84);stroke-width:6.25px;"/>
            <path d="M507.105,318.251C520.063,318.251 534.33,328.416 541.82,338.592C544.526,342.268 543.246,347.562 541.139,351.163C540.817,351.713 538.686,354.565 538.084,354.565" style="fill:none;stroke:rgb(241,128,84);stroke-width:6.25px;"/>
            <path d="M546.943,291.866C552.423,296.978 562.859,308.325 570.239,312.794C573.184,314.577 576.395,315.672 579.51,317.093C579.968,317.302 581.803,318.09 581.964,318.618" style="fill:none;stroke:rgb(241,128,84);stroke-width:6.25px;"/>
            <path d="M565.554,267.406C571.822,267.406 577.801,270.344 583.702,272.253C594.178,275.642 602.558,278.711 606.104,290.816" style="fill:none;stroke:rgb(241,128,84);stroke-width:6.25px;"/>
        </g>
    </g>
    <g id="Capa1">
    </g>
</svg>
