<?xml version="1.0" encoding="UTF-8" standalone="no"?>
<!DOCTYPE svg PUBLIC "-//W3C//DTD SVG 1.1//EN" "http://www.w3.org/Graphics/SVG/1.1/DTD/svg11.dtd">
<svg width="100%" height="100%" viewBox="0 0 727 596" version="1.1" xmlns="http://www.w3.org/2000/svg" xmlns:xlink="http://www.w3.org/1999/xlink" xml:space="preserve" xmlns:serif="http://www.serif.com/" style="fill-rule:evenodd;clip-rule:evenodd;stroke-linecap:round;stroke-miterlimit:1.5;">
    <g transform="matrix(1,0,0,1,-760.673,-2891.72)">
        <g id="Mesa-de-trabajo6" serif:id="Mesa de trabajo6" transform="matrix(0.948509,0,0,0.912354,-868.203,230.882)">
            <rect x="1717.3" y="2916.46" width="765.71" height="652.653" style="fill:none;"/>
            <g transform="matrix(1.05429,0,0,1.09607,477.585,-5471.82)">
                <g transform="matrix(0.897154,0,0,1.11233,101.98,5614.19)">
                    <path d="M1838.27,2196.6C1822.14,2211.28 1774.85,2230.84 1759.88,2224.29C1752.65,2221.12 1777.31,2205.42 1778.05,2204.48C1786.77,2193.29 1792.82,2178.65 1797.65,2165.69C1799.09,2161.83 1795.83,2142.95 1795.47,2142.21C1784.99,2121.05 1795.72,2062.72 1799.51,2053.22C1810.6,2025.46 1826.85,2006.08 1852.44,1990.83C1891.92,1967.29 1963.08,1993.73 1976.82,2045C1978.9,2052.75 1983.48,2078.13 1982.53,2086.08C1981.57,2094.15 1979.2,2102.73 1975.93,2110.21C1967.83,2128.73 1947.94,2121.45 1927.8,2123.51C1909.76,2125.36 1887.84,2122.24 1871.18,2132.17C1842.9,2149.02 1861.62,2175.36 1838.27,2196.6Z" style="fill:rgb(222,112,191);"/>
                    <path d="M1772.55,2200.96C1780.75,2190.25 1786.4,2176.37 1790.98,2164.08C1791.24,2163.37 1791.08,2161.93 1790.98,2160.19C1790.65,2154.42 1789.32,2146.34 1788.79,2143.9C1788.79,2143.88 1788.78,2143.86 1788.78,2143.84C1784.51,2134.79 1783.48,2119.75 1784.31,2104.24C1785.54,2081.31 1790.54,2057.36 1792.88,2051.5C1804.47,2022.48 1821.54,2002.26 1848.3,1986.31C1865.81,1975.87 1888.92,1974.08 1911.35,1979.59C1943.83,1987.57 1974.81,2010.89 1983.63,2043.81C1985.79,2051.89 1990.45,2078.33 1989.47,2086.62C1988.45,2095.14 1985.95,2104.19 1982.5,2112.08C1977.26,2124.06 1968.15,2127.64 1957.14,2128.62C1948.67,2129.37 1938.71,2128.06 1928.68,2129.08C1919.57,2130.02 1909.49,2129.71 1899.58,2130.41C1891.03,2131.01 1882.58,2132.36 1875.32,2136.69C1863.01,2144.02 1861.33,2153.57 1859.79,2163.44C1857.85,2175.83 1856.24,2188.73 1843.49,2200.33C1831.53,2211.21 1803.45,2224.7 1782.21,2229.39C1771.45,2231.77 1762.18,2231.69 1756.56,2229.23C1754.36,2228.26 1753.03,2226.92 1752.27,2225.39C1751.42,2223.69 1751.28,2221.55 1752.4,2219.13C1753.34,2217.12 1755.42,2214.61 1758.16,2212.09C1763.09,2207.56 1770.17,2202.71 1772.55,2200.96ZM1838.27,2196.6C1861.62,2175.36 1842.9,2149.02 1871.18,2132.17C1887.84,2122.24 1909.76,2125.36 1927.8,2123.51C1947.94,2121.45 1967.83,2128.73 1975.93,2110.21C1979.2,2102.73 1981.57,2094.15 1982.53,2086.08C1983.48,2078.13 1978.9,2052.75 1976.82,2045C1963.08,1993.73 1891.92,1967.29 1852.44,1990.83C1826.85,2006.08 1810.6,2025.46 1799.51,2053.22C1795.72,2062.72 1784.99,2121.05 1795.47,2142.21C1795.83,2142.95 1799.09,2161.83 1797.65,2165.69C1792.82,2178.65 1786.77,2193.29 1778.05,2204.48C1777.31,2205.42 1752.65,2221.12 1759.88,2224.29C1774.85,2230.84 1822.14,2211.28 1838.27,2196.6Z" style="fill:rgb(231,240,190);"/>
                </g>
                <g transform="matrix(1.32634,0,0,1.32634,-668.667,5168.35)">
                    <path d="M1403.66,2236.61C1415.05,2236.61 1426.26,2238.52 1437.74,2238.16C1450.48,2237.76 1461.8,2228.59 1472.95,2223.52C1473.25,2223.39 1473.42,2226.39 1473.56,2226.74C1474.36,2228.87 1475.9,2230.69 1477.21,2232.51C1478.97,2234.94 1480.52,2237.51 1482.32,2239.89C1482.77,2240.48 1485.9,2243.63 1484.99,2244.44C1469.32,2258.32 1437,2260.36 1418.45,2252.41C1412.57,2249.88 1401.31,2245.58 1401.31,2237.59" style="fill:rgb(222,112,191);stroke:rgb(231,240,190);stroke-width:4.71px;"/>
                </g>
                <g transform="matrix(1.32634,0,0,1.32634,-668.667,5168.35)">
                    <path d="M1533.99,2247.35C1533.99,2255.87 1533.18,2263.23 1530.67,2271.41C1526.55,2284.82 1512.08,2305.54 1530.02,2313.47C1534.85,2315.61 1538.21,2317.45 1543.55,2317.45C1547.38,2317.45 1551.53,2317.85 1555.23,2316.64C1573.38,2310.68 1565.47,2278.13 1564.77,2265.05C1564.55,2261.03 1568.64,2254.22 1566.85,2249.75C1566.13,2247.93 1568.64,2249.84 1566.85,2249.75C1554.55,2249.07 1546.17,2244.23 1543.81,2244.98C1539.08,2246.48 1538.83,2245.85 1532.85,2246.72C1532.51,2246.77 1532.01,2246.85 1532.01,2247.2" style="fill:rgb(222,112,191);stroke:rgb(231,240,190);stroke-width:4.71px;"/>
                </g>
                <g transform="matrix(1.32634,0,0,1.32634,-668.667,5168.35)">
                    <path d="M1748.13,2221.6C1752.63,2223.79 1756.56,2228.47 1759.81,2232.21C1774.79,2249.43 1767.65,2265.5 1763.18,2285.86C1760.92,2296.17 1757.63,2316.2 1744.28,2314.89C1739.09,2314.38 1733.73,2312.53 1728.75,2311.11C1725.13,2310.08 1721.67,2308.74 1718.19,2307.33C1714.35,2305.76 1707.95,2304.51 1705.12,2301.32C1699.41,2294.92 1722.66,2271.99 1723.32,2262.58C1724.33,2248.2 1707.23,2251.03 1705.16,2242.97C1704.29,2239.55 1711.22,2236.8 1713.46,2235.68C1720.84,2231.97 1729.72,2231.49 1736.86,2227.3C1739.16,2225.95 1743.86,2221.09 1746.15,2220.77" style="fill:rgb(222,112,191);stroke:rgb(231,240,190);stroke-width:4.71px;"/>
                </g>
                <g transform="matrix(1.32634,0,0,1.32634,115.7,4835.83)">
                    <g transform="matrix(0.996421,0,0,1,-58.9026,769.867)">
                        <path d="M958.399,1717.33C951.478,1720.95 944.327,1710.38 944.381,1704.43C944.427,1699.33 949.472,1688.28 950.61,1685.27C952.63,1679.93 953.939,1674.28 956.586,1669.22C969.339,1644.86 983.123,1625.27 1001.36,1605.36C1006.42,1599.83 1012.19,1592.6 1018.92,1588.84C1025.9,1584.93 1034.27,1587.46 1041.56,1584.77L1041.46,1584.48C1047.51,1584.48 1050.83,1578.99 1055.57,1576.32C1063.21,1572.01 1069.95,1570.25 1078.56,1568.95C1097.35,1566.11 1115.63,1563.81 1134.71,1565.25C1153.47,1566.66 1164.78,1571.14 1182.47,1576.95C1190.4,1579.56 1202.3,1583.43 1209.6,1587.64C1232.8,1601.04 1232.5,1603.63 1254.31,1619C1256.42,1620.49 1267.79,1624.88 1268.12,1629.54C1268.32,1632.33 1264.21,1638.68 1263.56,1641.02C1260.85,1650.69 1262.77,1653.8 1257.75,1662.88C1250.37,1676.2 1236.48,1681.86 1225.13,1690.92C1217.27,1697.19 1210.8,1708.74 1199.19,1708.74L1199.03,1708.79C1194.98,1708.79 1191.77,1710.28 1188.08,1711.86C1180.68,1715.03 1173.85,1719.05 1167.93,1724.62C1162.54,1729.69 1158.11,1736.55 1151.8,1740.58C1147.79,1743.14 1141.96,1743.12 1137.44,1744.35C1123.27,1748.22 1106.96,1751.14 1092.28,1751.14C1084.06,1751.14 1077.26,1747 1070.06,1743.61C1058.21,1738.04 1046.09,1731.55 1032.9,1729.79C1028.93,1729.26 1024.92,1729.1 1021,1728.22C1019.69,1727.93 1018.27,1727.68 1017.05,1727.07C1016.65,1726.87 1015.14,1725.52 1015.11,1725.74L1014.98,1725.55C1008.46,1728.29 1003.72,1726.69 998.026,1726.79C988.271,1726.95 975.333,1729.6 966.2,1725.31C963.279,1723.94 960.142,1720.03 958.399,1717.33Z" style="fill:rgb(231,240,190);"/>
                    </g>
                    <g>
                        <g transform="matrix(0.996421,0,0,1,-64.3799,772.661)">
                            <path d="M959.338,1716.76C957.312,1717.82 954.953,1717.32 953.005,1716.25C950.606,1714.93 947.139,1712.92 945.699,1710.48C941.405,1703.21 948.663,1692.09 950.61,1685.27C952.149,1679.88 953.805,1674.14 956.586,1669.22C969.517,1646.36 982.146,1623.66 1001.36,1605.36C1007.44,1599.56 1011.2,1592.83 1018.92,1588.84C1026.03,1585.15 1034.49,1587.38 1041.56,1584.77" style="fill:none;stroke:rgb(40,48,57);stroke-width:6.29px;stroke-linejoin:round;"/>
                        </g>
                        <g transform="matrix(0.996421,0,0,1,-64.3799,772.661)">
                            <path d="M1041.46,1584.48C1047.31,1584.48 1050.99,1579.23 1055.57,1576.32C1062.33,1572.03 1070.8,1570.24 1078.56,1568.95C1096.36,1565.98 1116.65,1563.94 1134.71,1565.25C1151.39,1566.46 1166.85,1571.35 1182.47,1576.95C1191.61,1580.24 1201.15,1582.78 1209.6,1587.64C1225.58,1596.85 1239.76,1607.85 1254.31,1619C1259.17,1622.73 1265.64,1623.64 1268.12,1629.54C1269.25,1632.22 1263.56,1638.22 1263.56,1641.02C1263.56,1645.03 1260.08,1659.33 1257.75,1662.88C1247.44,1678.57 1239.61,1679.96 1225.13,1690.92C1216.57,1697.39 1211.19,1708.74 1199.19,1708.74" style="fill:none;stroke:rgb(40,48,57);stroke-width:6.29px;stroke-linejoin:round;"/>
                        </g>
                        <g transform="matrix(0.996421,0,0,1,-64.3799,772.661)">
                            <path d="M1199.03,1708.79C1194.98,1708.79 1191.77,1710.28 1188.08,1711.86C1180.68,1715.03 1173.85,1719.05 1167.93,1724.62C1162.54,1729.69 1158.11,1736.55 1151.8,1740.58C1147.79,1743.14 1141.96,1743.12 1137.44,1744.35C1123.27,1748.22 1106.96,1751.14 1092.28,1751.14C1084.06,1751.14 1077.26,1747 1070.06,1743.61C1058.21,1738.04 1046.09,1731.55 1032.9,1729.79C1028.93,1729.26 1024.92,1729.1 1021,1728.22C1019.69,1727.93 1018.27,1727.68 1017.05,1727.07C1016.65,1726.87 1015.14,1725.52 1015.11,1725.74" style="fill:none;stroke:rgb(40,48,57);stroke-width:6.29px;stroke-linejoin:round;"/>
                        </g>
                        <g transform="matrix(0.996421,0,0,1,-64.3799,772.661)">
                            <path d="M1014.98,1725.55C1008.46,1728.29 1003.72,1726.69 998.026,1726.79C988.271,1726.95 975.333,1729.6 966.2,1725.31C963.279,1723.94 960.142,1720.03 958.399,1717.33" style="fill:none;stroke:rgb(40,48,57);stroke-width:6.29px;stroke-linejoin:round;"/>
                        </g>
                        <g transform="matrix(0.996421,0,0,1,-64.3799,772.661)">
                            <path d="M954.527,1673.53C969.727,1673.53 981.057,1687.8 994.462,1691.08C1012.98,1695.62 1034.7,1690.51 1053.62,1691.61C1076.43,1692.94 1101.02,1705.53 1123.81,1700.3C1138.52,1696.92 1152.75,1690.1 1166.88,1684.91C1179.11,1680.42 1194.91,1676.97 1205.2,1668.5C1216.29,1659.36 1220.42,1646.33 1230.78,1637.21C1236.22,1632.42 1232.15,1631.23 1244.12,1630.63C1252.49,1630.21 1253.51,1620.9 1240.23,1608.33" style="fill:none;stroke:rgb(40,48,57);stroke-width:6.29px;stroke-linejoin:round;"/>
                        </g>
                        <g transform="matrix(0.996421,0,0,1,-64.3799,772.661)">
                            <path d="M1136.53,1595.16C1136.53,1608.07 1133.53,1618.98 1132.36,1631.53C1130.94,1646.8 1131.45,1663.23 1132.12,1678.55C1132.46,1686.37 1136.02,1692.23 1143.94,1692.23C1145.11,1692.23 1154.17,1689.82 1156.83,1688.94" style="fill:none;stroke:rgb(40,48,57);stroke-width:6.29px;stroke-linejoin:round;"/>
                        </g>
                        <g transform="matrix(0.996421,0,0,1,-64.3799,772.661)">
                            <path d="M1136.62,1596.43C1147.11,1596.43 1158.58,1588.75 1169.82,1591.18C1176.25,1592.57 1180.4,1596.62 1185.57,1600.23C1191.32,1604.25 1196,1610.27 1201.85,1613.97C1212.49,1620.68 1227.84,1625.43 1227.84,1640.17" style="fill:none;stroke:rgb(40,48,57);stroke-width:6.29px;stroke-linejoin:round;"/>
                        </g>
                        <g transform="matrix(0.996421,0,0,1,-64.3799,772.661)">
                            <path d="M1198.85,1582.6C1193.75,1582.6 1168.01,1579.74 1168.01,1590.65" style="fill:none;stroke:rgb(40,48,57);stroke-width:6.29px;stroke-linejoin:round;"/>
                        </g>
                        <g transform="matrix(0.996421,0,0,1,-64.3799,772.661)">
                            <path d="M1136.48,1595.51C1136.56,1590.71 1107.66,1593.52 1104.14,1593C1089.7,1590.85 1082.11,1597.18 1068.98,1601.48C1065.25,1602.7 1061.56,1602.15 1057.93,1603.58C1057.53,1603.74 1051.49,1616.11 1050.64,1620.61C1047.37,1637.95 1046.61,1654.47 1045.49,1672.08C1045.21,1676.34 1043.64,1679.7 1042.76,1683.86C1042.63,1684.45 1040.41,1691.54 1040.02,1691.54" style="fill:none;stroke:rgb(40,48,57);stroke-width:6.29px;stroke-linejoin:round;"/>
                        </g>
                        <g transform="matrix(0.996421,0,0,1,-64.3799,772.661)">
                            <path d="M1001.99,1608.01L1001.99,1605.37" style="fill:none;stroke:rgb(40,48,57);stroke-width:6.29px;stroke-linejoin:round;"/>
                        </g>
                        <g transform="matrix(0.996421,0,0,1,-64.3799,772.661)">
                            <path d="M982.304,1685.05C982.304,1669.19 994.14,1654.44 995.062,1637.93C995.61,1628.11 994.34,1612.55 1004.31,1606.35C1013.41,1600.69 1030.32,1602.8 1040.55,1602.8C1044.44,1602.8 1048.27,1601.94 1052.19,1601.94C1053.98,1601.94 1059.29,1602.84 1057.49,1602.91" style="fill:none;stroke:rgb(40,48,57);stroke-width:6.29px;stroke-linejoin:round;"/>
                        </g>
                        <g transform="matrix(0.996421,0,0,1,-64.3799,772.661)">
                            <path d="M1094.79,1566.52C1094.51,1568.73 1103.87,1573.06 1104.48,1576.7C1105.34,1581.75 1092.76,1592.25 1086.02,1594.46" style="fill:none;stroke:rgb(40,48,57);stroke-width:6.29px;stroke-linejoin:round;"/>
                        </g>
                        <g transform="matrix(0.996421,0,0,1,-64.3799,772.661)">
                            <path d="M1142.36,1566.54C1150.01,1569.53 1172.09,1577.04 1172.09,1584.79" style="fill:none;stroke:rgb(40,48,57);stroke-width:6.29px;stroke-linejoin:round;"/>
                        </g>
                        <g transform="matrix(0.996421,0,0,1,-64.3799,772.661)">
                            <path d="M959.477,1716.7C961.233,1716.43 962.537,1713.81 963.317,1712.44C965.882,1707.95 967.152,1702.76 969.813,1698.4C971.058,1696.36 973.779,1695.53 974.495,1693.12C975.122,1691.01 972.858,1682.36 976.887,1682.36" style="fill:none;stroke:rgb(40,48,57);stroke-width:6.29px;stroke-linejoin:round;"/>
                        </g>
                        <g transform="matrix(0.996421,0,0,1,-64.3799,772.661)">
                            <path d="M997.745,1726.85C993.569,1718.75 994.243,1710.6 995.766,1703.05C996.56,1699.12 1002.16,1696.14 1002.16,1692.69" style="fill:none;stroke:rgb(40,48,57);stroke-width:6.29px;stroke-linejoin:round;"/>
                        </g>
                        <g transform="matrix(0.996421,0,0,1,-64.3799,772.661)">
                            <path d="M1041.99,1691.67C1041.99,1699.14 1037.82,1706.64 1038.73,1714.31C1039.11,1717.54 1040.35,1720.58 1041.86,1723.43C1042.85,1725.3 1044.72,1726.97 1044.44,1729.21C1044.27,1730.52 1039.49,1730.59 1038.23,1730.59" style="fill:none;stroke:rgb(40,48,57);stroke-width:6.29px;stroke-linejoin:round;"/>
                        </g>
                        <g transform="matrix(0.996421,0,0,1,-64.3799,772.661)">
                            <path d="M1076.37,1695.62C1080.25,1703.98 1085.09,1715.26 1091.06,1722.35C1092.21,1723.71 1096.66,1728.16 1095.89,1730.28C1094.2,1734.93 1088.46,1737.28 1084.86,1740.1C1082.7,1741.8 1079.94,1746.68 1076.94,1746.68" style="fill:none;stroke:rgb(40,48,57);stroke-width:6.29px;stroke-linejoin:round;"/>
                        </g>
                        <g transform="matrix(0.996421,0,0,1,-64.3799,772.661)">
                            <path d="M1120.39,1701.18C1120.7,1700.82 1123.01,1704.15 1123.29,1704.53C1124.25,1705.81 1125.24,1707.05 1126.14,1708.37C1128.08,1711.17 1129.84,1714.07 1131.69,1716.93C1132.93,1718.86 1137.47,1722.78 1137.73,1724.94C1138.05,1727.68 1134.23,1730.96 1132.91,1733.3C1129.75,1738.91 1133.43,1743.72 1126.76,1746.95" style="fill:none;stroke:rgb(40,48,57);stroke-width:6.29px;stroke-linejoin:round;"/>
                        </g>
                        <g transform="matrix(0.996421,0,0,1,-64.3799,772.661)">
                            <path d="M1154.09,1690.2C1161.73,1694.33 1174.5,1702.28 1174.5,1712.17C1174.5,1715.17 1174.13,1717.36 1173.05,1720.11" style="fill:none;stroke:rgb(40,48,57);stroke-width:6.29px;stroke-linejoin:round;"/>
                        </g>
                        <g transform="matrix(0.996421,0,0,1,-64.3799,772.661)">
                            <path d="M1184.01,1679.2C1193.85,1679.2 1204.68,1686.85 1210.37,1694.51C1212.42,1697.28 1211.45,1701.26 1209.85,1703.97C1209.61,1704.39 1207.99,1706.53 1207.53,1706.53" style="fill:none;stroke:rgb(40,48,57);stroke-width:6.29px;stroke-linejoin:round;"/>
                        </g>
                        <g transform="matrix(0.996421,0,0,1,-64.3799,772.661)">
                            <path d="M1214.26,1659.34C1218.42,1663.19 1226.35,1671.73 1231.95,1675.1C1234.19,1676.44 1236.63,1677.26 1238.99,1678.33C1239.34,1678.49 1240.73,1679.08 1240.86,1679.48" style="fill:none;stroke:rgb(40,48,57);stroke-width:6.29px;stroke-linejoin:round;"/>
                        </g>
                        <g transform="matrix(0.996421,0,0,1,-64.3799,772.661)">
                            <path d="M1228.39,1640.93C1233.15,1640.93 1237.69,1643.14 1242.17,1644.58C1250.13,1647.13 1256.49,1649.44 1259.19,1658.55" style="fill:none;stroke:rgb(40,48,57);stroke-width:6.29px;stroke-linejoin:round;"/>
                        </g>
                    </g>
                    <g>
                        <g transform="matrix(0.996421,0,0,1,-59.0431,769.867)">
                            <path d="M959.338,1716.76C957.312,1717.82 954.953,1717.32 953.005,1716.25C950.606,1714.93 947.139,1712.92 945.699,1710.48C941.405,1703.21 948.663,1692.09 950.61,1685.27C952.149,1679.88 953.805,1674.14 956.586,1669.22C969.517,1646.36 982.146,1623.66 1001.36,1605.36C1007.44,1599.56 1011.2,1592.83 1018.92,1588.84C1026.03,1585.15 1034.49,1587.38 1041.56,1584.77" style="fill:none;stroke:rgb(241,128,84);stroke-width:4.72px;stroke-linejoin:round;"/>
                        </g>
                        <g transform="matrix(0.996421,0,0,1,-59.0431,769.867)">
                            <path d="M1041.46,1584.48C1047.31,1584.48 1050.99,1579.23 1055.57,1576.32C1062.33,1572.03 1070.8,1570.24 1078.56,1568.95C1096.36,1565.98 1116.65,1563.94 1134.71,1565.25C1151.39,1566.46 1166.85,1571.35 1182.47,1576.95C1191.61,1580.24 1201.15,1582.78 1209.6,1587.64C1225.58,1596.85 1239.76,1607.85 1254.31,1619C1259.17,1622.73 1265.64,1623.64 1268.12,1629.54C1269.25,1632.22 1263.56,1638.22 1263.56,1641.02C1263.56,1645.03 1260.08,1659.33 1257.75,1662.88C1247.44,1678.57 1239.61,1679.96 1225.13,1690.92C1216.57,1697.39 1211.19,1708.74 1199.19,1708.74" style="fill:none;stroke:rgb(241,128,84);stroke-width:4.72px;stroke-linejoin:round;"/>
                        </g>
                        <g transform="matrix(0.996421,0,0,1,-59.0431,769.867)">
                            <path d="M1199.03,1708.79C1194.98,1708.79 1191.77,1710.28 1188.08,1711.86C1180.68,1715.03 1173.85,1719.05 1167.93,1724.62C1162.54,1729.69 1158.11,1736.55 1151.8,1740.58C1147.79,1743.14 1141.96,1743.12 1137.44,1744.35C1123.27,1748.22 1106.96,1751.14 1092.28,1751.14C1084.06,1751.14 1077.26,1747 1070.06,1743.61C1058.21,1738.04 1046.09,1731.55 1032.9,1729.79C1028.93,1729.26 1024.92,1729.1 1021,1728.22C1019.69,1727.93 1018.27,1727.68 1017.05,1727.07C1016.65,1726.87 1015.14,1725.52 1015.11,1725.74" style="fill:none;stroke:rgb(241,128,84);stroke-width:4.72px;stroke-linejoin:round;"/>
                        </g>
                        <g transform="matrix(0.996421,0,0,1,-59.0431,769.867)">
                            <path d="M1014.98,1725.55C1008.46,1728.29 1003.72,1726.69 998.026,1726.79C988.271,1726.95 975.333,1729.6 966.2,1725.31C963.279,1723.94 960.142,1720.03 958.399,1717.33" style="fill:none;stroke:rgb(241,128,84);stroke-width:4.72px;stroke-linejoin:round;"/>
                        </g>
                        <g transform="matrix(0.996421,0,0,1,-59.0431,769.867)">
                            <path d="M954.527,1673.53C969.727,1673.53 981.057,1687.8 994.462,1691.08C1012.98,1695.62 1034.7,1690.51 1053.62,1691.61C1076.43,1692.94 1101.02,1705.53 1123.81,1700.3C1138.52,1696.92 1152.75,1690.1 1166.88,1684.91C1179.11,1680.42 1194.91,1676.97 1205.2,1668.5C1216.29,1659.36 1220.42,1646.33 1230.78,1637.21C1236.22,1632.42 1232.15,1631.23 1244.12,1630.63C1252.49,1630.21 1253.51,1620.9 1240.23,1608.33" style="fill:none;stroke:rgb(241,128,84);stroke-width:4.72px;stroke-linejoin:round;"/>
                        </g>
                        <g transform="matrix(0.996421,0,0,1,-59.0431,769.867)">
                            <path d="M1136.53,1595.16C1136.53,1608.07 1133.53,1618.98 1132.36,1631.53C1130.94,1646.8 1131.45,1663.23 1132.12,1678.55C1132.46,1686.37 1136.02,1692.23 1143.94,1692.23C1145.11,1692.23 1154.17,1689.82 1156.83,1688.94" style="fill:none;stroke:rgb(241,128,84);stroke-width:4.72px;stroke-linejoin:round;"/>
                        </g>
                        <g transform="matrix(0.996421,0,0,1,-59.0431,769.867)">
                            <path d="M1136.62,1596.43C1147.11,1596.43 1158.58,1588.75 1169.82,1591.18C1176.25,1592.57 1180.4,1596.62 1185.57,1600.23C1191.32,1604.25 1196,1610.27 1201.85,1613.97C1212.49,1620.68 1227.84,1625.43 1227.84,1640.17" style="fill:none;stroke:rgb(241,128,84);stroke-width:4.72px;stroke-linejoin:round;"/>
                        </g>
                        <g transform="matrix(0.996421,0,0,1,-59.0431,769.867)">
                            <path d="M1198.85,1582.6C1193.75,1582.6 1168.01,1579.74 1168.01,1590.65" style="fill:none;stroke:rgb(241,128,84);stroke-width:4.72px;stroke-linejoin:round;"/>
                        </g>
                        <g transform="matrix(0.996421,0,0,1,-59.0431,769.867)">
                            <path d="M1136.48,1595.51C1136.56,1590.71 1107.66,1593.52 1104.14,1593C1089.7,1590.85 1082.11,1597.18 1068.98,1601.48C1065.25,1602.7 1061.56,1602.15 1057.93,1603.58C1057.53,1603.74 1051.49,1616.11 1050.64,1620.61C1047.37,1637.95 1046.61,1654.47 1045.49,1672.08C1045.21,1676.34 1043.64,1679.7 1042.76,1683.86C1042.63,1684.45 1040.41,1691.54 1040.02,1691.54" style="fill:none;stroke:rgb(241,128,84);stroke-width:4.72px;stroke-linejoin:round;"/>
                        </g>
                        <g transform="matrix(0.996421,0,0,1,-59.0431,769.867)">
                            <path d="M1001.99,1608.01L1001.99,1605.37" style="fill:none;stroke:rgb(241,128,84);stroke-width:4.72px;stroke-linejoin:round;"/>
                        </g>
                        <g transform="matrix(0.996421,0,0,1,-59.0431,769.867)">
                            <path d="M982.304,1685.05C982.304,1669.19 994.14,1654.44 995.062,1637.93C995.61,1628.11 994.34,1612.55 1004.31,1606.35C1013.41,1600.69 1030.32,1602.8 1040.55,1602.8C1044.44,1602.8 1048.27,1601.94 1052.19,1601.94C1053.98,1601.94 1059.29,1602.84 1057.49,1602.91" style="fill:none;stroke:rgb(241,128,84);stroke-width:4.72px;stroke-linejoin:round;"/>
                        </g>
                        <g transform="matrix(0.996421,0,0,1,-59.0431,769.867)">
                            <path d="M1094.79,1566.52C1094.51,1568.73 1103.87,1573.06 1104.48,1576.7C1105.34,1581.75 1092.76,1592.25 1086.02,1594.46" style="fill:none;stroke:rgb(241,128,84);stroke-width:4.72px;stroke-linejoin:round;"/>
                        </g>
                        <g transform="matrix(0.996421,0,0,1,-59.0431,769.867)">
                            <path d="M1142.36,1566.54C1150.01,1569.53 1172.09,1577.04 1172.09,1584.79" style="fill:none;stroke:rgb(241,128,84);stroke-width:4.72px;stroke-linejoin:round;"/>
                        </g>
                        <g transform="matrix(0.996421,0,0,1,-59.0431,769.867)">
                            <path d="M959.477,1716.7C961.233,1716.43 962.537,1713.81 963.317,1712.44C965.882,1707.95 967.152,1702.76 969.813,1698.4C971.058,1696.36 973.779,1695.53 974.495,1693.12C975.122,1691.01 972.858,1682.36 976.887,1682.36" style="fill:none;stroke:rgb(241,128,84);stroke-width:4.72px;stroke-linejoin:round;"/>
                        </g>
                        <g transform="matrix(0.996421,0,0,1,-59.0431,769.867)">
                            <path d="M997.745,1726.85C993.569,1718.75 994.243,1710.6 995.766,1703.05C996.56,1699.12 1002.16,1696.14 1002.16,1692.69" style="fill:none;stroke:rgb(241,128,84);stroke-width:4.72px;stroke-linejoin:round;"/>
                        </g>
                        <g transform="matrix(0.996421,0,0,1,-59.0431,769.867)">
                            <path d="M1041.99,1691.67C1041.99,1699.14 1037.82,1706.64 1038.73,1714.31C1039.11,1717.54 1040.35,1720.58 1041.86,1723.43C1042.85,1725.3 1044.72,1726.97 1044.44,1729.21C1044.27,1730.52 1039.49,1730.59 1038.23,1730.59" style="fill:none;stroke:rgb(241,128,84);stroke-width:4.72px;stroke-linejoin:round;"/>
                        </g>
                        <g transform="matrix(0.996421,0,0,1,-59.0431,769.867)">
                            <path d="M1076.37,1695.62C1080.25,1703.98 1085.09,1715.26 1091.06,1722.35C1092.21,1723.71 1096.66,1728.16 1095.89,1730.28C1094.2,1734.93 1088.46,1737.28 1084.86,1740.1C1082.7,1741.8 1079.94,1746.68 1076.94,1746.68" style="fill:none;stroke:rgb(241,128,84);stroke-width:4.72px;stroke-linejoin:round;"/>
                        </g>
                        <g transform="matrix(0.996421,0,0,1,-59.0431,769.867)">
                            <path d="M1120.39,1701.18C1120.7,1700.82 1123.01,1704.15 1123.29,1704.53C1124.25,1705.81 1125.24,1707.05 1126.14,1708.37C1128.08,1711.17 1129.84,1714.07 1131.69,1716.93C1132.93,1718.86 1137.47,1722.78 1137.73,1724.94C1138.05,1727.68 1134.23,1730.96 1132.91,1733.3C1129.75,1738.91 1133.43,1743.72 1126.76,1746.95" style="fill:none;stroke:rgb(241,128,84);stroke-width:4.72px;stroke-linejoin:round;"/>
                        </g>
                        <g transform="matrix(0.996421,0,0,1,-59.0431,769.867)">
                            <path d="M1154.09,1690.2C1161.73,1694.33 1174.5,1702.28 1174.5,1712.17C1174.5,1715.17 1174.13,1717.36 1173.05,1720.11" style="fill:none;stroke:rgb(241,128,84);stroke-width:4.72px;stroke-linejoin:round;"/>
                        </g>
                        <g transform="matrix(0.996421,0,0,1,-59.0431,769.867)">
                            <path d="M1184.01,1679.2C1193.85,1679.2 1204.68,1686.85 1210.37,1694.51C1212.42,1697.28 1211.45,1701.26 1209.85,1703.97C1209.61,1704.39 1207.99,1706.53 1207.53,1706.53" style="fill:none;stroke:rgb(241,128,84);stroke-width:4.72px;stroke-linejoin:round;"/>
                        </g>
                        <g transform="matrix(0.996421,0,0,1,-59.0431,769.867)">
                            <path d="M1214.26,1659.34C1218.42,1663.19 1226.35,1671.73 1231.95,1675.1C1234.19,1676.44 1236.63,1677.26 1238.99,1678.33C1239.34,1678.49 1240.73,1679.08 1240.86,1679.48" style="fill:none;stroke:rgb(241,128,84);stroke-width:4.72px;stroke-linejoin:round;"/>
                        </g>
                        <g transform="matrix(0.996421,0,0,1,-59.0431,769.867)">
                            <path d="M1228.39,1640.93C1233.15,1640.93 1237.69,1643.14 1242.17,1644.58C1250.13,1647.13 1256.49,1649.44 1259.19,1658.55" style="fill:none;stroke:rgb(241,128,84);stroke-width:4.72px;stroke-linejoin:round;"/>
                        </g>
                    </g>
                    <g transform="matrix(0.668308,0,0,0.765342,169.639,850.336)">
                        <path d="M1580.49,1889.36L1635.44,1889.36" style="fill:none;stroke:rgb(40,48,57);stroke-width:6.56px;"/>
                    </g>
                    <g transform="matrix(0.668308,0,0,0.765342,169.639,850.336)">
                        <path d="M1637.19,1889.9C1637.19,1899.2 1633.59,1913.68 1621.78,1912.88C1613.39,1912.32 1608.43,1909.72 1605.74,1899.15C1605.48,1898.13 1604.33,1893.48 1605.13,1892.59C1606.93,1890.56 1634.3,1889.64 1637.05,1892.4" style="fill:rgb(40,48,57);"/>
                    </g>
                    <g transform="matrix(0.668308,0,0,0.765342,226.913,850.336)">
                        <path d="M1580.41,1889.36L1635.44,1889.36" style="fill:none;stroke:rgb(40,48,57);stroke-width:6.56px;"/>
                    </g>
                    <g transform="matrix(0.668308,0,0,0.765342,226.913,850.336)">
                        <path d="M1637.19,1889.9C1637.19,1899.2 1633.59,1913.68 1621.78,1912.88C1613.39,1912.32 1608.43,1909.72 1605.74,1899.15C1605.48,1898.13 1604.33,1893.48 1605.13,1892.59C1606.93,1890.56 1634.3,1889.64 1637.05,1892.4" style="fill:rgb(40,48,57);"/>
                    </g>
                    <g transform="matrix(1,0,0,1,143.268,256.477)">
                        <path d="M1090.67,2087.91C1092.39,2097.26 1112.97,2097.51 1114.44,2101.36" style="fill:none;stroke:rgb(40,48,57);stroke-width:4.71px;"/>
                    </g>
                    <g transform="matrix(1,0,0,1,-591.379,250.707)">
                        <path d="M1754.2,2247.72C1753.82,2247.5 1753.94,2250.22 1754.02,2250.66C1754.64,2254.17 1755.39,2257.67 1756.03,2261.2C1757.35,2268.49 1754.2,2280.28 1748.88,2285.6" style="fill:none;stroke:rgb(40,48,57);stroke-width:4.71px;"/>
                    </g>
                    <g transform="matrix(1,0,0,1,-591.379,250.707)">
                        <path d="M1783.48,2185.54C1786.31,2185.54 1805.15,2168.49 1805.15,2163.87" style="fill:none;stroke:rgb(40,48,57);stroke-width:4.71px;"/>
                    </g>
                    <g transform="matrix(1,0,0,1,-591.379,250.707)">
                        <path d="M1780.67,2190.45C1781.05,2191.24 1788.37,2190.69 1788.97,2190.66C1801.62,2190.11 1807.52,2182.53 1816.95,2176.11" style="fill:none;stroke:rgb(40,48,57);stroke-width:4.71px;"/>
                    </g>
                    <g transform="matrix(1,0,0,1,-591.379,250.707)">
                        <path d="M1550.7,2287.96C1550.7,2296.31 1549.65,2301.06 1544.93,2307.51" style="fill:none;stroke:rgb(40,48,57);stroke-width:3.14px;"/>
                    </g>
                    <g transform="matrix(1,0,0,1,-591.379,250.707)">
                        <path d="M1538.8,2289C1536.83,2293.98 1534.86,2298.95 1532.88,2303.92" style="fill:none;stroke:rgb(40,48,57);stroke-width:3.14px;"/>
                    </g>
                </g>
            </g>
            <g transform="matrix(1.31161,-0.488041,0.469438,1.36359,-876.174,1199.08)">
                <g transform="matrix(148.657,0,0,136.476,1325.64,1993.42)">
                    <path d="M0.15,-0.389L0.292,-0.389L0.292,-0.289L0.15,-0.289L0.15,-0L0.04,-0L0.04,-0.7L0.331,-0.7L0.331,-0.6L0.15,-0.6L0.15,-0.389Z" style="fill:rgb(231,240,190);fill-rule:nonzero;"/>
                </g>
                <g transform="matrix(148.657,0,0,136.476,1376.78,1993.42)">
                    <path d="M0.396,-0L0.285,-0L0.266,-0.127L0.131,-0.127L0.112,-0L0.011,-0L0.123,-0.7L0.284,-0.7L0.396,-0ZM0.145,-0.222L0.251,-0.222L0.198,-0.576L0.145,-0.222Z" style="fill:rgb(231,240,190);fill-rule:nonzero;"/>
                </g>
                <g transform="matrix(148.657,0,0,136.476,1437.28,1993.42)">
                    <path d="M0.04,-0.7L0.15,-0.7L0.15,-0.1L0.331,-0.1L0.331,-0L0.04,-0L0.04,-0.7Z" style="fill:rgb(231,240,190);fill-rule:nonzero;"/>
                </g>
                <g transform="matrix(148.657,0,0,136.476,1487.68,1993.42)">
                    <path d="M0.04,-0.7L0.15,-0.7L0.15,-0.1L0.331,-0.1L0.331,-0L0.04,-0L0.04,-0.7Z" style="fill:rgb(231,240,190);fill-rule:nonzero;"/>
                </g>
                <g transform="matrix(148.657,0,0,136.476,1538.07,1993.42)">
                    <path d="M0.396,-0L0.285,-0L0.266,-0.127L0.131,-0.127L0.112,-0L0.011,-0L0.123,-0.7L0.284,-0.7L0.396,-0ZM0.145,-0.222L0.251,-0.222L0.198,-0.576L0.145,-0.222Z" style="fill:rgb(231,240,190);fill-rule:nonzero;"/>
                </g>
                <g transform="matrix(148.657,0,0,136.476,1598.58,1993.42)">
                    <path d="M0.026,-0.532C0.026,-0.589 0.04,-0.632 0.067,-0.663C0.093,-0.693 0.134,-0.708 0.188,-0.708C0.242,-0.708 0.283,-0.693 0.31,-0.663C0.337,-0.632 0.35,-0.589 0.35,-0.532L0.35,-0.51L0.246,-0.51L0.246,-0.539C0.246,-0.564 0.241,-0.582 0.232,-0.593C0.222,-0.603 0.208,-0.608 0.191,-0.608C0.174,-0.608 0.16,-0.603 0.151,-0.593C0.141,-0.582 0.136,-0.564 0.136,-0.539C0.136,-0.515 0.141,-0.494 0.152,-0.476C0.163,-0.457 0.176,-0.44 0.192,-0.424C0.208,-0.407 0.225,-0.391 0.244,-0.375C0.262,-0.358 0.279,-0.34 0.295,-0.321C0.311,-0.302 0.324,-0.28 0.335,-0.255C0.346,-0.23 0.351,-0.201 0.351,-0.168C0.351,-0.111 0.337,-0.068 0.31,-0.038C0.282,-0.007 0.241,0.008 0.187,0.008C0.133,0.008 0.092,-0.007 0.065,-0.038C0.037,-0.068 0.023,-0.111 0.023,-0.168L0.023,-0.211L0.127,-0.211L0.127,-0.161C0.127,-0.136 0.132,-0.118 0.143,-0.108C0.153,-0.098 0.167,-0.093 0.184,-0.093C0.201,-0.093 0.215,-0.098 0.226,-0.108C0.236,-0.118 0.241,-0.136 0.241,-0.161C0.241,-0.185 0.236,-0.206 0.225,-0.225C0.214,-0.243 0.201,-0.26 0.185,-0.277C0.169,-0.293 0.152,-0.309 0.134,-0.326C0.115,-0.342 0.098,-0.36 0.082,-0.379C0.066,-0.398 0.053,-0.42 0.042,-0.445C0.031,-0.47 0.026,-0.499 0.026,-0.532Z" style="fill:rgb(231,240,190);fill-rule:nonzero;"/>
                </g>
                <g transform="matrix(148.657,0,0,136.476,1654.17,1993.42)">
                    <path d="M0.008,-0.7L0.348,-0.7L0.348,-0.6L0.233,-0.6L0.233,-0L0.123,-0L0.123,-0.6L0.008,-0.6L0.008,-0.7Z" style="fill:rgb(231,240,190);fill-rule:nonzero;"/>
                </g>
                <g transform="matrix(148.657,0,0,136.476,1707.1,1993.42)">
                    <path d="M0.15,-0.405L0.301,-0.405L0.301,-0.305L0.15,-0.305L0.15,-0.1L0.34,-0.1L0.34,-0L0.04,-0L0.04,-0.7L0.34,-0.7L0.34,-0.6L0.15,-0.6L0.15,-0.405Z" style="fill:rgb(231,240,190);fill-rule:nonzero;"/>
                </g>
            </g>
        </g>
        <g id="Capa1">
        </g>
    </g>
</svg>
