<?xml version="1.0" encoding="UTF-8" standalone="no"?>
<!DOCTYPE svg PUBLIC "-//W3C//DTD SVG 1.1//EN" "http://www.w3.org/Graphics/SVG/1.1/DTD/svg11.dtd">
<svg width="100%" height="100%" viewBox="0 0 803 584" version="1.1" xmlns="http://www.w3.org/2000/svg" xmlns:xlink="http://www.w3.org/1999/xlink" xml:space="preserve" xmlns:serif="http://www.serif.com/" style="fill-rule:evenodd;clip-rule:evenodd;stroke-linecap:round;stroke-miterlimit:1.5;">
    <rect id="Mesa-de-trabajo6" serif:id="Mesa de trabajo6" x="0" y="0" width="802.553" height="583.805" style="fill:none;"/>
    <path d="M135.323,182.011L153.35,175.559L157.522,187.214L139.495,193.666L151.55,227.348L137.585,232.346L108.386,150.763L145.328,137.541L149.5,149.196L126.522,157.42L135.323,182.011Z" style="fill:rgb(231,240,190);fill-rule:nonzero;"/>
    <path d="M226.45,200.541L212.359,205.584L204.649,191.646L187.511,197.78L190.397,213.445L177.575,218.034L162.594,131.362L183.033,124.046L226.45,200.541ZM185.326,186.072L198.782,181.255L177.287,142.406L185.326,186.072Z" style="fill:rgb(231,240,190);fill-rule:nonzero;"/>
    <path d="M203.725,116.64L217.69,111.642L242.718,181.571L265.696,173.347L269.867,185.001L232.925,198.223L203.725,116.64Z" style="fill:rgb(231,240,190);fill-rule:nonzero;"/>
    <path d="M246.761,101.237L260.726,96.239L285.754,166.168L308.732,157.944L312.903,169.598L275.961,182.82L246.761,101.237Z" style="fill:rgb(231,240,190);fill-rule:nonzero;"/>
    <path d="M364.191,151.242L350.1,156.285L342.39,142.347L325.252,148.481L328.137,164.146L315.315,168.735L300.334,82.063L320.773,74.748L364.191,151.242ZM323.066,136.773L336.523,131.957L315.028,93.107L323.066,136.773Z" style="fill:rgb(231,240,190);fill-rule:nonzero;"/>
    <path d="M346.697,87.558C344.333,80.953 344.232,75.27 346.394,70.508C348.557,65.746 353.066,62.138 359.921,59.684C366.776,57.231 372.55,57.158 377.243,59.467C381.936,61.775 385.465,66.232 387.828,72.836L388.746,75.4L375.543,80.126L374.334,76.746C373.277,73.793 371.919,71.934 370.261,71.169C368.603,70.404 366.674,70.415 364.473,71.203C362.273,71.99 360.774,73.206 359.978,74.85C359.182,76.493 359.312,78.791 360.369,81.744C361.37,84.541 362.93,86.765 365.049,88.417C367.168,90.069 369.584,91.484 372.296,92.66C375.009,93.837 377.869,94.961 380.878,96.031C383.887,97.102 386.81,98.4 389.648,99.927C392.485,101.453 395.096,103.411 397.479,105.801C399.862,108.191 401.749,111.329 403.139,115.214C405.503,121.818 405.561,127.517 403.314,132.309C401.067,137.101 396.516,140.724 389.661,143.178C382.806,145.631 376.989,145.719 372.211,143.441C367.434,141.163 363.863,136.721 361.499,130.117L359.706,125.106L372.909,120.38L374.994,126.208C376.051,129.16 377.444,130.984 379.173,131.68C380.902,132.376 382.866,132.33 385.067,131.543C387.267,130.755 388.815,129.544 389.71,127.909C390.604,126.274 390.523,123.98 389.467,121.028C388.465,118.231 386.905,116.006 384.787,114.354C382.668,112.702 380.252,111.288 377.539,110.111C374.827,108.934 371.966,107.811 368.958,106.74C365.949,105.67 363.026,104.371 360.188,102.845C357.35,101.319 354.74,99.36 352.357,96.97C349.974,94.58 348.087,91.442 346.697,87.558Z" style="fill:rgb(231,240,190);fill-rule:nonzero;"/>
    <path d="M384.883,51.802L428.046,36.354L432.217,48.008L417.618,53.234L442.646,123.162L428.682,128.16L403.654,58.232L389.054,63.457L384.883,51.802Z" style="fill:rgb(231,240,190);fill-rule:nonzero;"/>
    <path d="M460.409,63.556L479.579,56.695L483.75,68.35L464.581,75.211L473.132,99.103L497.253,90.47L501.424,102.125L463.339,115.756L434.14,34.173L472.225,20.542L476.396,32.197L452.275,40.829L460.409,63.556Z" style="fill:rgb(231,240,190);fill-rule:nonzero;"/>
    <g>
        <path d="M654.477,290.609C640.005,306.934 597.576,328.695 584.151,321.407C577.663,317.885 599.787,300.414 600.445,299.369C608.274,286.926 613.701,270.645 618.031,256.229C619.324,251.927 616.401,230.925 616.074,230.106C606.671,206.569 616.303,141.685 619.704,131.123C629.648,100.244 644.228,78.687 667.185,61.721C702.61,35.541 766.453,64.952 778.777,121.979C780.64,130.597 784.751,158.825 783.899,167.674C783.035,176.651 780.912,186.195 777.978,194.512C770.712,215.109 752.867,207.012 734.797,209.306C718.608,211.361 698.949,207.892 683.999,218.937C658.625,237.682 675.429,266.976 654.477,290.609Z" style="fill:rgb(222,112,191);"/>
        <path d="M595.517,295.459C602.868,283.541 607.938,268.104 612.046,254.431C612.281,253.648 612.136,252.04 612.047,250.104C611.753,243.684 610.555,234.698 610.085,231.989C610.081,231.966 610.077,231.943 610.073,231.919C606.243,221.859 605.321,205.126 606.066,187.868C607.166,162.364 611.655,135.728 613.755,129.207C624.152,96.922 639.468,74.433 663.471,56.694C679.186,45.08 699.913,43.089 720.04,49.219C749.174,58.091 776.972,84.039 784.886,120.659C786.826,129.636 791.008,159.054 790.121,168.273C789.209,177.745 786.968,187.816 783.872,196.591C779.17,209.92 770.994,213.902 761.121,214.985C753.524,215.819 744.582,214.364 735.585,215.506C727.414,216.543 718.368,216.199 709.478,216.976C701.807,217.647 694.224,219.153 687.713,223.964C676.673,232.12 675.164,242.739 673.781,253.721C672.044,267.506 670.596,281.848 659.154,294.755C648.425,306.859 623.233,321.864 604.177,327.082C594.525,329.725 586.211,329.637 581.17,326.9C579.191,325.826 577.998,324.332 577.317,322.637C576.557,320.742 576.431,318.359 577.438,315.671C578.277,313.432 580.147,310.639 582.603,307.837C587.023,302.794 593.383,297.404 595.517,295.459ZM654.477,290.609C675.429,266.976 658.625,237.682 683.999,218.937C698.949,207.892 718.608,211.361 734.797,209.306C752.867,207.012 770.712,215.109 777.978,194.512C780.912,186.195 783.035,176.651 783.899,167.674C784.751,158.825 780.64,130.597 778.777,121.979C766.453,64.952 702.61,35.541 667.185,61.721C644.228,78.687 629.648,100.244 619.704,131.123C616.303,141.685 606.671,206.569 616.074,230.106C616.401,230.925 619.324,251.927 618.031,256.229C613.701,270.645 608.274,286.926 600.445,299.369C599.787,300.414 577.663,317.885 584.151,321.407C597.576,328.695 640.005,306.934 654.477,290.609Z" style="fill:rgb(231,240,190);"/>
        <path d="M96.339,367.905C111.443,367.905 126.312,370.445 141.54,369.967C158.442,369.436 173.451,357.274 188.244,350.553C188.635,350.376 188.874,354.362 189.049,354.825C190.114,357.647 192.153,360.058 193.901,362.478C196.224,365.693 198.29,369.105 200.677,372.267C201.268,373.05 205.422,377.22 204.207,378.297C183.432,396.701 140.56,399.419 115.962,388.867C108.154,385.518 93.228,379.816 93.228,369.209" style="fill:rgb(222,112,191);stroke:rgb(231,240,190);stroke-width:6.25px;"/>
        <path d="M269.206,382.155C269.206,393.456 268.13,403.225 264.801,414.072C259.341,431.861 240.146,459.334 263.94,469.86C270.344,472.693 274.802,475.132 281.879,475.132C286.959,475.132 292.473,475.659 297.369,474.054C321.451,466.158 310.962,422.978 310.024,405.63C309.737,400.306 315.16,391.275 312.79,385.336C311.829,382.928 315.164,385.466 312.79,385.336C296.473,384.442 285.353,378.025 282.233,379.014C275.957,381.003 275.627,380.174 267.692,381.318C267.246,381.383 266.581,381.496 266.581,381.951" style="fill:rgb(222,112,191);stroke:rgb(231,240,190);stroke-width:6.25px;"/>
        <path d="M553.221,347.997C559.201,350.909 564.411,357.113 568.722,362.073C588.581,384.923 579.118,406.227 573.193,433.24C570.194,446.91 565.823,473.474 548.118,471.735C541.24,471.06 534.129,468.614 527.52,466.727C522.726,465.358 518.133,463.581 513.521,461.706C508.42,459.631 499.938,457.964 496.177,453.743C488.614,445.252 519.441,414.835 520.317,402.359C521.656,383.284 498.983,387.036 496.238,376.341C495.076,371.814 504.274,368.165 507.237,366.675C517.03,361.753 528.807,361.125 538.279,355.562C541.332,353.769 547.556,347.332 550.607,346.901" style="fill:rgb(222,112,191);stroke:rgb(231,240,190);stroke-width:6.25px;"/>
        <g>
            <path d="M207.471,367.755C198.324,372.56 188.873,358.531 188.944,350.645C189.005,343.876 195.673,329.222 197.177,325.232C199.845,318.149 201.576,310.652 205.075,303.943C221.928,271.626 240.145,245.653 264.244,219.241C270.936,211.908 278.562,202.312 287.455,197.325C296.685,192.148 307.744,195.496 317.379,191.929L317.239,191.551C325.24,191.551 329.629,184.269 335.894,180.722C345.985,175.011 354.901,172.673 366.269,170.951C391.109,167.186 415.264,164.128 440.477,166.038C465.275,167.916 480.226,173.861 503.601,181.567C514.077,185.021 529.805,190.161 539.45,195.746C570.119,213.507 569.718,216.955 598.539,237.328C601.338,239.306 616.358,245.133 616.796,251.315C617.058,255.012 611.633,263.44 610.767,266.54C607.185,279.361 609.728,283.493 603.087,295.536C593.342,313.207 574.98,320.705 559.976,332.72C549.592,341.035 541.045,356.359 525.694,356.359L525.489,356.425C520.131,356.425 515.894,358.397 511.019,360.493C501.232,364.701 492.211,370.04 484.382,377.426C477.263,384.141 471.408,393.242 463.073,398.586C457.769,401.986 450.066,401.954 444.091,403.591C425.367,408.718 403.808,412.6 384.411,412.6C373.545,412.6 364.554,407.1 355.04,402.611C339.379,395.22 323.363,386.614 305.926,384.282C300.679,383.58 295.39,383.364 290.208,382.2C288.469,381.809 286.59,381.478 284.982,380.672C284.451,380.406 282.458,378.619 282.419,378.901L282.245,378.657C273.623,382.293 267.367,380.171 259.841,380.299C246.948,380.518 229.85,384.028 217.78,378.342C213.919,376.523 209.774,371.328 207.471,367.755Z" style="fill:rgb(231,240,190);"/>
            <g>
                <path d="M201.446,370.696C198.769,372.102 195.651,371.452 193.077,370.027C189.906,368.271 185.325,365.61 183.421,362.373C177.746,352.726 187.339,337.986 189.912,328.938C191.946,321.785 194.134,314.171 197.81,307.649C214.898,277.334 231.589,247.228 256.979,222.947C265.016,215.262 269.988,206.334 280.191,201.031C289.59,196.145 300.77,199.094 310.114,195.635" style="fill:none;stroke:rgb(40,48,57);stroke-width:8.33px;stroke-linejoin:round;"/>
                <path d="M309.974,195.257C317.715,195.257 322.578,188.286 328.629,184.428C337.558,178.737 348.75,176.374 359.004,174.657C382.534,170.717 409.347,168.007 433.212,169.744C455.264,171.349 475.697,177.837 496.337,185.273C508.415,189.625 521.023,193.001 532.185,199.452C553.312,211.663 572.048,226.251 591.274,241.034C597.708,245.98 606.255,247.197 609.531,255.021C611.021,258.58 603.502,266.533 603.502,270.246C603.502,275.563 598.909,294.526 595.822,299.242C582.205,320.045 571.845,321.896 552.711,336.426C541.407,345.01 534.286,360.065 518.43,360.065" style="fill:none;stroke:rgb(40,48,57);stroke-width:8.33px;stroke-linejoin:round;"/>
                <path d="M518.224,360.131C512.866,360.131 508.63,362.103 503.754,364.199C493.968,368.407 484.946,373.746 477.117,381.132C469.998,387.848 464.143,396.948 455.808,402.292C450.504,405.693 442.801,405.661 436.826,407.297C418.103,412.424 396.543,416.306 377.146,416.306C366.28,416.306 357.29,410.806 347.776,406.317C332.114,398.926 316.099,390.32 298.661,387.988C293.414,387.286 288.125,387.071 282.943,385.906C281.204,385.516 279.325,385.184 277.717,384.378C277.186,384.112 275.193,382.326 275.155,382.607" style="fill:none;stroke:rgb(40,48,57);stroke-width:8.33px;stroke-linejoin:round;"/>
                <path d="M274.98,382.363C266.359,385.999 260.103,383.877 252.577,384.005C239.684,384.224 222.585,387.734 210.515,382.048C206.654,380.23 202.509,375.034 200.206,371.461" style="fill:none;stroke:rgb(40,48,57);stroke-width:8.33px;stroke-linejoin:round;"/>
                <path d="M195.088,313.37C215.176,313.37 230.15,332.291 247.867,336.645C272.339,342.659 301.043,335.889 326.047,337.349C356.193,339.11 388.696,355.801 418.808,348.867C438.257,344.388 457.056,335.347 475.727,328.463C491.898,322.5 512.777,317.931 526.369,306.696C541.034,294.574 546.493,277.291 560.182,265.193C567.366,258.844 561.99,257.262 577.817,256.463C588.872,255.904 590.224,243.56 572.676,226.892" style="fill:none;stroke:rgb(40,48,57);stroke-width:8.33px;stroke-linejoin:round;"/>
                <path d="M435.622,209.422C435.622,226.541 431.65,241.012 430.106,257.659C428.228,277.907 428.911,299.702 429.794,320.022C430.244,330.394 434.945,338.164 445.418,338.164C446.956,338.164 458.938,334.968 462.451,333.8" style="fill:none;stroke:rgb(40,48,57);stroke-width:8.33px;stroke-linejoin:round;"/>
                <path d="M435.74,211.105C449.598,211.105 464.761,200.922 479.611,204.145C488.109,205.989 493.604,211.358 500.425,216.141C508.037,221.477 514.211,229.463 521.948,234.362C536.015,243.269 556.289,249.566 556.289,269.124" style="fill:none;stroke:rgb(40,48,57);stroke-width:8.33px;stroke-linejoin:round;"/>
                <path d="M517.984,192.755C511.243,192.755 477.224,188.965 477.224,203.44" style="fill:none;stroke:rgb(40,48,57);stroke-width:8.33px;stroke-linejoin:round;"/>
                <path d="M435.555,209.886C435.666,203.52 397.465,207.245 392.814,206.551C373.732,203.704 363.705,212.095 346.35,217.799C341.419,219.42 336.544,218.69 331.752,220.582C331.214,220.794 323.229,237.205 322.107,243.176C317.784,266.182 316.778,288.088 315.298,311.438C314.939,317.097 312.855,321.554 311.691,327.065C311.527,327.844 308.595,337.253 308.068,337.253" style="fill:none;stroke:rgb(40,48,57);stroke-width:8.33px;stroke-linejoin:round;"/>
                <path d="M257.815,226.461L257.815,222.968" style="fill:none;stroke:rgb(40,48,57);stroke-width:8.33px;stroke-linejoin:round;"/>
                <path d="M231.798,328.641C231.798,307.615 247.44,288.045 248.658,266.154C249.383,253.126 247.704,232.491 260.885,224.262C272.906,216.757 295.249,219.553 308.772,219.553C313.914,219.553 318.975,218.416 324.153,218.416C326.53,218.416 333.542,219.603 331.167,219.7" style="fill:none;stroke:rgb(40,48,57);stroke-width:8.33px;stroke-linejoin:round;"/>
                <path d="M380.464,171.432C380.089,174.359 392.455,180.114 393.268,184.935C394.399,191.639 377.781,205.554 368.871,208.493" style="fill:none;stroke:rgb(40,48,57);stroke-width:8.33px;stroke-linejoin:round;"/>
                <path d="M443.326,171.458C453.442,175.429 482.611,185.392 482.611,195.665" style="fill:none;stroke:rgb(40,48,57);stroke-width:8.33px;stroke-linejoin:round;"/>
                <path d="M201.63,370.626C203.951,370.265 205.674,366.795 206.705,364.981C210.094,359.016 211.773,352.139 215.29,346.352C216.936,343.644 220.532,342.541 221.478,339.346C222.306,336.551 219.314,325.077 224.639,325.077" style="fill:none;stroke:rgb(40,48,57);stroke-width:8.33px;stroke-linejoin:round;"/>
                <path d="M252.205,384.083C246.686,373.338 247.577,362.534 249.59,352.524C250.638,347.31 258.035,343.359 258.035,338.78" style="fill:none;stroke:rgb(40,48,57);stroke-width:8.33px;stroke-linejoin:round;"/>
                <path d="M310.677,337.431C310.677,347.334 305.163,357.283 306.369,367.451C306.877,371.741 308.517,375.771 310.51,379.553C311.817,382.034 314.289,384.25 313.912,387.22C313.692,388.959 307.378,389.042 305.711,389.042" style="fill:none;stroke:rgb(40,48,57);stroke-width:8.33px;stroke-linejoin:round;"/>
                <path d="M356.113,342.667C361.244,353.755 367.635,368.716 375.529,378.111C377.047,379.917 382.933,385.821 381.91,388.638C379.676,394.797 372.089,397.913 367.34,401.664C364.485,403.918 360.835,410.389 356.872,410.389" style="fill:none;stroke:rgb(40,48,57);stroke-width:8.33px;stroke-linejoin:round;"/>
                <path d="M414.294,350.039C414.706,349.558 417.75,353.974 418.127,354.483C419.387,356.181 420.694,357.827 421.896,359.569C424.459,363.285 426.774,367.141 429.222,370.931C430.871,373.485 436.862,378.69 437.204,381.559C437.636,385.188 432.582,389.535 430.835,392.645C426.656,400.084 431.52,406.462 422.711,410.741" style="fill:none;stroke:rgb(40,48,57);stroke-width:8.33px;stroke-linejoin:round;"/>
                <path d="M458.829,335.482C468.927,340.958 485.796,351.494 485.796,364.621C485.796,368.595 485.319,371.501 483.89,375.149" style="fill:none;stroke:rgb(40,48,57);stroke-width:8.33px;stroke-linejoin:round;"/>
                <path d="M498.366,320.888C511.37,320.888 525.689,331.036 533.207,341.194C535.922,344.864 534.638,350.149 532.523,353.744C532.2,354.293 530.062,357.14 529.457,357.14" style="fill:none;stroke:rgb(40,48,57);stroke-width:8.33px;stroke-linejoin:round;"/>
                <path d="M538.348,294.549C543.848,299.652 554.322,310.98 561.729,315.441C564.685,317.221 567.908,318.314 571.034,319.732C571.494,319.941 573.335,320.728 573.497,321.255" style="fill:none;stroke:rgb(40,48,57);stroke-width:8.33px;stroke-linejoin:round;"/>
                <path d="M557.027,270.132C563.318,270.132 569.318,273.064 575.241,274.97C585.755,278.353 594.165,281.417 597.725,293.501" style="fill:none;stroke:rgb(40,48,57);stroke-width:8.33px;stroke-linejoin:round;"/>
            </g>
            <g>
                <path d="M208.524,366.99C205.848,368.396 202.729,367.745 200.156,366.32C196.984,364.565 192.403,361.903 190.499,358.667C184.825,349.02 194.417,334.28 196.99,325.232C199.024,318.079 201.212,310.465 204.888,303.943C221.977,273.628 238.668,243.521 264.058,219.241C272.094,211.556 277.066,202.628 287.269,197.325C296.669,192.439 307.849,195.388 317.193,191.929" style="fill:none;stroke:rgb(241,128,84);stroke-width:6.25px;stroke-linejoin:round;"/>
                <path d="M317.053,191.551C324.793,191.551 329.656,184.58 335.708,180.722C344.637,175.031 355.829,172.668 366.082,170.951C389.613,167.011 416.425,164.301 440.29,166.038C462.342,167.643 482.776,174.131 503.415,181.567C515.494,185.919 528.101,189.295 539.264,195.746C560.39,207.957 579.127,222.545 598.353,237.328C604.787,242.274 613.334,243.491 616.61,251.315C618.1,254.874 610.581,262.827 610.581,266.54C610.581,271.857 605.988,290.82 602.9,295.536C589.283,316.338 578.924,318.19 559.789,332.72C548.485,341.304 541.364,356.359 525.508,356.359" style="fill:none;stroke:rgb(241,128,84);stroke-width:6.25px;stroke-linejoin:round;"/>
                <path d="M525.302,356.425C519.944,356.425 515.708,358.397 510.832,360.493C501.046,364.701 492.024,370.04 484.196,377.426C477.077,384.141 471.222,393.242 462.886,398.586C457.582,401.986 449.88,401.954 443.905,403.591C425.181,408.718 403.622,412.6 384.225,412.6C373.359,412.6 364.368,407.1 354.854,402.611C339.193,395.22 323.177,386.614 305.74,384.282C300.493,383.58 295.203,383.364 290.022,382.2C288.282,381.809 286.404,381.478 284.796,380.672C284.265,380.406 282.272,378.619 282.233,378.901" style="fill:none;stroke:rgb(241,128,84);stroke-width:6.25px;stroke-linejoin:round;"/>
                <path d="M282.058,378.657C273.437,382.293 267.181,380.171 259.655,380.299C246.762,380.518 229.663,384.028 217.594,378.342C213.733,376.523 209.588,371.328 207.284,367.755" style="fill:none;stroke:rgb(241,128,84);stroke-width:6.25px;stroke-linejoin:round;"/>
                <path d="M202.166,309.664C222.254,309.664 237.228,328.585 254.945,332.939C279.418,338.953 308.122,332.182 333.125,333.643C363.271,335.404 395.775,352.095 425.886,345.161C445.335,340.682 464.134,331.64 482.805,324.756C498.977,318.794 519.856,314.225 533.448,302.99C548.112,290.868 553.571,273.585 567.26,261.487C574.445,255.138 569.068,253.556 584.895,252.757C595.951,252.198 597.302,239.854 579.755,223.186" style="fill:none;stroke:rgb(241,128,84);stroke-width:6.25px;stroke-linejoin:round;"/>
                <path d="M442.7,205.716C442.7,222.834 438.728,237.306 437.185,253.953C435.307,274.201 435.99,295.996 436.872,316.316C437.322,326.688 442.024,334.458 452.497,334.458C454.035,334.458 466.017,331.262 469.529,330.094" style="fill:none;stroke:rgb(241,128,84);stroke-width:6.25px;stroke-linejoin:round;"/>
                <path d="M442.818,207.399C456.677,207.399 471.839,197.216 486.689,200.438C495.187,202.283 500.682,207.652 507.504,212.434C515.115,217.771 521.289,225.757 529.027,230.656C543.093,239.563 563.367,245.86 563.367,265.418" style="fill:none;stroke:rgb(241,128,84);stroke-width:6.25px;stroke-linejoin:round;"/>
                <path d="M525.062,189.049C518.321,189.049 484.302,185.259 484.302,199.734" style="fill:none;stroke:rgb(241,128,84);stroke-width:6.25px;stroke-linejoin:round;"/>
                <path d="M442.633,206.18C442.744,199.813 404.544,203.539 399.892,202.845C380.81,199.998 370.783,208.389 353.428,214.093C348.498,215.714 343.622,214.984 338.83,216.876C338.292,217.088 330.307,233.499 329.185,239.47C324.862,262.476 323.856,284.382 322.376,307.732C322.017,313.391 319.934,317.848 318.77,323.359C318.605,324.138 315.674,333.546 315.147,333.546" style="fill:none;stroke:rgb(241,128,84);stroke-width:6.25px;stroke-linejoin:round;"/>
                <path d="M264.893,222.755L264.893,219.262" style="fill:none;stroke:rgb(241,128,84);stroke-width:6.25px;stroke-linejoin:round;"/>
                <path d="M238.877,324.935C238.877,303.909 254.519,284.339 255.737,262.448C256.461,249.42 254.782,228.784 267.963,220.556C279.984,213.051 302.327,215.847 315.851,215.847C320.993,215.847 326.053,214.71 331.232,214.71C333.608,214.71 340.62,215.896 338.246,215.994" style="fill:none;stroke:rgb(241,128,84);stroke-width:6.25px;stroke-linejoin:round;"/>
                <path d="M387.542,167.726C387.167,170.653 399.533,176.408 400.346,181.229C401.477,187.933 384.86,201.847 375.949,204.787" style="fill:none;stroke:rgb(241,128,84);stroke-width:6.25px;stroke-linejoin:round;"/>
                <path d="M450.404,167.752C460.521,171.723 489.689,181.686 489.689,191.959" style="fill:none;stroke:rgb(241,128,84);stroke-width:6.25px;stroke-linejoin:round;"/>
                <path d="M208.708,366.92C211.029,366.559 212.752,363.089 213.783,361.274C217.173,355.31 218.851,348.433 222.368,342.646C224.014,339.938 227.61,338.835 228.556,335.64C229.384,332.845 226.393,321.37 231.718,321.37" style="fill:none;stroke:rgb(241,128,84);stroke-width:6.25px;stroke-linejoin:round;"/>
                <path d="M259.283,380.376C253.765,369.631 254.655,358.828 256.668,348.818C257.716,343.604 265.113,339.653 265.113,335.074" style="fill:none;stroke:rgb(241,128,84);stroke-width:6.25px;stroke-linejoin:round;"/>
                <path d="M317.755,333.725C317.755,343.628 312.241,353.577 313.447,363.745C313.956,368.035 315.595,372.065 317.588,375.846C318.896,378.328 321.367,380.544 320.991,383.514C320.77,385.252 314.456,385.336 312.79,385.336" style="fill:none;stroke:rgb(241,128,84);stroke-width:6.25px;stroke-linejoin:round;"/>
                <path d="M363.192,338.961C368.322,350.049 374.714,365.01 382.608,374.404C384.125,376.211 390.011,382.114 388.989,384.932C386.755,391.091 379.168,394.207 374.418,397.958C371.563,400.212 367.913,406.683 363.951,406.683" style="fill:none;stroke:rgb(241,128,84);stroke-width:6.25px;stroke-linejoin:round;"/>
                <path d="M421.373,346.333C421.784,345.852 424.828,350.268 425.206,350.777C426.466,352.475 427.773,354.12 428.974,355.863C431.538,359.579 433.852,363.435 436.3,367.225C437.95,369.779 443.94,374.984 444.282,377.852C444.715,381.482 439.66,385.829 437.913,388.939C433.734,396.378 438.599,402.756 429.789,407.035" style="fill:none;stroke:rgb(241,128,84);stroke-width:6.25px;stroke-linejoin:round;"/>
                <path d="M465.908,331.776C476.005,337.252 492.875,347.788 492.875,360.915C492.875,364.888 492.397,367.795 490.968,371.443" style="fill:none;stroke:rgb(241,128,84);stroke-width:6.25px;stroke-linejoin:round;"/>
                <path d="M505.444,317.182C518.449,317.182 532.768,327.33 540.285,337.488C543,341.158 541.716,346.443 539.601,350.038C539.278,350.586 537.14,353.433 536.536,353.433" style="fill:none;stroke:rgb(241,128,84);stroke-width:6.25px;stroke-linejoin:round;"/>
                <path d="M545.427,290.843C550.927,295.946 561.401,307.274 568.808,311.735C571.763,313.515 574.986,314.608 578.112,316.026C578.572,316.235 580.413,317.021 580.575,317.549" style="fill:none;stroke:rgb(241,128,84);stroke-width:6.25px;stroke-linejoin:round;"/>
                <path d="M564.105,266.426C570.396,266.426 576.396,269.358 582.319,271.264C592.834,274.647 601.244,277.711 604.803,289.795" style="fill:none;stroke:rgb(241,128,84);stroke-width:6.25px;stroke-linejoin:round;"/>
            </g>
            <path d="M644.933,114.612L693.643,114.612" style="fill:none;stroke:rgb(40,48,57);stroke-width:6.25px;"/>
            <path d="M695.192,115.16C695.192,124.602 691.998,139.303 681.53,138.496C674.096,137.923 669.694,135.281 667.311,124.554C667.079,123.513 666.065,118.798 666.771,117.892C668.37,115.837 692.626,114.903 695.065,117.697" style="fill:rgb(40,48,57);"/>
            <path d="M720.824,114.612L769.608,114.612" style="fill:none;stroke:rgb(40,48,57);stroke-width:6.25px;"/>
            <path d="M771.157,115.16C771.157,124.602 767.963,139.303 757.495,138.496C750.061,137.923 745.659,135.281 743.276,124.554C743.044,123.513 742.031,118.798 742.736,117.892C744.335,115.837 768.591,114.903 771.03,117.697" style="fill:rgb(40,48,57);"/>
            <path d="M655.599,178.337C657.887,190.745 685.179,191.073 687.135,196.18" style="fill:none;stroke:rgb(40,48,57);stroke-width:6.25px;"/>
            <path d="M561.279,382.641C560.769,382.355 560.933,385.964 561.036,386.548C561.863,391.204 562.859,395.84 563.706,400.521C565.457,410.199 561.277,425.834 554.227,432.884" style="fill:none;stroke:rgb(40,48,57);stroke-width:6.25px;"/>
            <path d="M600.114,300.182C603.87,300.182 628.857,277.556 628.857,271.437" style="fill:none;stroke:rgb(40,48,57);stroke-width:6.25px;"/>
            <path d="M596.388,306.685C596.886,307.733 606.591,307.003 607.395,306.968C624.177,306.238 631.997,296.178 644.503,287.666" style="fill:none;stroke:rgb(40,48,57);stroke-width:6.25px;"/>
            <path d="M291.372,436.017C291.372,447.099 289.97,453.392 283.712,461.952" style="fill:none;stroke:rgb(40,48,57);stroke-width:4.17px;"/>
            <path d="M275.588,437.403C272.971,443.999 270.354,450.595 267.736,457.191" style="fill:none;stroke:rgb(40,48,57);stroke-width:4.17px;"/>
        </g>
    </g>
    <g id="Capa1">
    </g>
</svg>
