<?xml version="1.0" encoding="UTF-8" standalone="no"?>
<!DOCTYPE svg PUBLIC "-//W3C//DTD SVG 1.1//EN" "http://www.w3.org/Graphics/SVG/1.1/DTD/svg11.dtd">
<svg width="100%" height="100%" viewBox="0 0 6622 4881" version="1.1" xmlns="http://www.w3.org/2000/svg" xmlns:xlink="http://www.w3.org/1999/xlink" xml:space="preserve" xmlns:serif="http://www.serif.com/" style="fill-rule:evenodd;clip-rule:evenodd;stroke-linejoin:round;stroke-miterlimit:2;">
    <g id="Mesa-de-trabajo1" serif:id="Mesa de trabajo1" transform="matrix(1.83185,0,0,1.74106,1058.19,-679.62)">
        <g opacity="0">
            <rect x="-577.663" y="390.348" width="3614.84" height="2803.43" style="fill:none;"/>
            <g transform="matrix(0.540807,-0.0782425,0.0743647,0.569008,-165.102,2986.94)">
                <g transform="matrix(1.18765,-0.267417,0.219665,0.975575,-1369.72,-2164.57)">
                    <path d="M2559.18,1004.65C2559.18,1004.65 2947.25,135.863 3397.2,489.707C3804.4,809.932 4221.28,674.491 4339.1,531.689C4373.95,489.447 4481.85,459.927 4484.61,491.854C4491.19,567.86 4266.54,757.18 4266.54,757.18C4266.54,757.18 3883.82,1218.96 3484.39,894.724C3411.71,835.729 3342.94,786.705 3277.49,747.662C2983.25,572.121 2771.91,776.133 2559.18,1004.65Z" style="fill:rgb(119,106,176);"/>
                </g>
                <g transform="matrix(1.18765,-0.267417,0.219665,0.975575,-1344.02,-1704.41)">
                    <path d="M2559.18,1004.65C2559.18,1004.65 2947.25,135.863 3397.2,489.707C3804.4,809.932 4221.28,674.491 4339.1,531.689C4456.93,388.887 4262.1,732.96 4262.1,732.96C4262.1,732.96 3883.82,1218.96 3484.39,894.724C3411.71,835.729 3342.94,786.705 3277.49,747.662C2983.25,572.121 2771.91,776.133 2559.18,1004.65Z" style="fill:rgb(119,106,176);"/>
                </g>
                <g transform="matrix(1.18765,-0.267417,0.219665,0.975575,-1412.68,-1205.06)">
                    <path d="M2559.18,1004.65C2559.18,1004.65 2947.25,135.863 3397.2,489.707C3804.4,809.932 4221.28,674.491 4339.1,531.689C4456.93,388.887 4272.61,733.941 4272.61,733.941C4272.61,733.941 3883.82,1218.96 3484.39,894.724C3411.71,835.729 3342.94,786.705 3277.49,747.662C2983.25,572.121 2771.91,776.133 2559.18,1004.65Z" style="fill:rgb(119,106,176);"/>
                </g>
                <g transform="matrix(1.18765,-0.267417,0.219665,0.975575,-1544.77,-672.631)">
                    <path d="M2559.18,1004.65C2559.18,1004.65 2947.25,135.863 3397.2,489.707C3804.4,809.932 4221.28,674.491 4339.1,531.689C4456.93,388.887 4147.57,825.92 4147.57,825.92C4147.57,825.92 3883.82,1218.96 3484.39,894.724C3411.71,835.729 3342.94,786.705 3277.49,747.662C2983.25,572.121 2771.91,776.133 2559.18,1004.65Z" style="fill:rgb(119,106,176);"/>
                </g>
            </g>
            <g transform="matrix(0.540807,-0.0782425,0.0743647,0.569008,757.485,2555.63)">
                <g transform="matrix(1.18765,-0.267417,0.219665,0.975575,-1369.72,-2164.57)">
                    <path d="M2559.18,1004.65C2559.18,1004.65 2947.25,135.863 3397.2,489.707C3804.4,809.932 4194.19,805.67 4333.61,695.412C4424.6,623.458 4485.66,524.824 4522.48,504.29C4579.56,472.462 4393.11,802.698 4393.11,802.698C4393.11,802.698 3883.82,1218.96 3484.39,894.724C3411.71,835.729 3342.94,786.705 3277.49,747.662C2983.25,572.121 2771.91,776.133 2559.18,1004.65Z" style="fill:rgb(119,106,176);"/>
                </g>
                <g transform="matrix(1.18765,-0.267417,0.219665,0.975575,-1344.02,-1704.41)">
                    <path d="M2559.18,1004.65C2559.18,1004.65 2947.25,135.863 3397.2,489.707C3804.4,809.932 4297.65,743.698 4415.47,600.896C4533.3,458.094 4339.1,817.936 4339.1,817.936C4339.1,817.936 3883.82,1218.96 3484.39,894.724C3411.71,835.729 3342.94,786.705 3277.49,747.662C2983.25,572.121 2771.91,776.133 2559.18,1004.65Z" style="fill:rgb(119,106,176);"/>
                </g>
                <g transform="matrix(1.18765,-0.267417,0.219665,0.975575,-1412.68,-1205.06)">
                    <path d="M2559.18,1004.65C2559.18,1004.65 2723.08,637.728 2961.34,477.91C3089.71,391.807 3239.66,365.817 3397.2,489.707C3804.4,809.932 4296.4,747.742 4414.23,604.94C4532.05,462.138 4339.1,817.936 4339.1,817.936C4339.1,817.936 3883.82,1218.96 3484.39,894.724C3411.71,835.729 3342.94,786.705 3277.49,747.662C2983.25,572.121 2771.91,776.133 2559.18,1004.65Z" style="fill:rgb(119,106,176);"/>
                </g>
                <g transform="matrix(1.18765,-0.267417,0.219665,0.975575,-1544.77,-672.631)">
                    <path d="M2559.18,1004.65C2559.18,1004.65 2947.25,135.863 3397.2,489.707C3804.4,809.932 4322.19,746.642 4440.02,603.84C4557.84,461.038 4339.1,817.936 4339.1,817.936C4339.1,817.936 3883.82,1218.96 3484.39,894.724C3411.71,835.729 3342.94,786.705 3277.49,747.662C2983.25,572.121 2771.91,776.133 2559.18,1004.65Z" style="fill:rgb(119,106,176);"/>
                </g>
            </g>
            <g transform="matrix(0.540807,-0.0782425,0.0743647,0.569008,-1184.91,3460.27)">
                <g transform="matrix(1.18765,-0.267417,0.219665,0.975575,-1369.72,-2164.57)">
                    <path d="M2559.18,1004.65C2559.18,1004.65 2947.25,135.863 3397.2,489.707C3804.4,809.932 4288,721.837 4405.82,579.035C4440.68,536.794 4568.65,381.027 4571.41,412.954C4577.99,488.959 4293.85,827.994 4293.85,827.994C4293.85,827.994 3883.82,1218.96 3484.39,894.724C3411.71,835.729 3342.94,786.705 3277.49,747.662C2983.25,572.121 2771.91,776.133 2559.18,1004.65Z" style="fill:rgb(119,106,176);"/>
                </g>
                <g transform="matrix(1.18765,-0.267417,0.219665,0.975575,-1344.02,-1704.41)">
                    <path d="M2559.18,1004.65C2559.18,1004.65 2947.25,135.863 3397.2,489.707C3804.4,809.932 4302.3,735.741 4420.12,592.939C4537.95,450.137 4233.64,887.634 4233.64,887.634C4233.64,887.634 3883.82,1218.96 3484.39,894.724C3411.71,835.729 3342.94,786.705 3277.49,747.662C2983.25,572.121 2771.91,776.133 2559.18,1004.65Z" style="fill:rgb(119,106,176);"/>
                </g>
                <g transform="matrix(1.18765,-0.267417,0.219665,0.975575,-1412.68,-1205.06)">
                    <path d="M2559.18,1004.65C2559.18,1004.65 2947.25,135.863 3397.2,489.707C3804.4,809.932 4294.58,725.542 4412.4,582.74C4530.23,439.938 4268.13,866.96 4268.13,866.96C4268.13,866.96 3883.82,1218.96 3484.39,894.724C3411.71,835.729 3342.94,786.705 3277.49,747.662C2983.25,572.121 2771.91,776.133 2559.18,1004.65Z" style="fill:rgb(119,106,176);"/>
                </g>
                <g transform="matrix(1.18765,-0.267417,0.219665,0.975575,-1544.77,-672.631)">
                    <path d="M2559.18,1004.65C2559.18,1004.65 2947.25,135.863 3397.2,489.707C3804.4,809.932 4347.81,678.99 4465.64,536.188C4583.46,393.386 4233.64,887.634 4233.64,887.634C4233.64,887.634 3883.82,1218.96 3484.39,894.724C3411.71,835.729 3342.94,786.705 3277.49,747.662C2983.25,572.121 2771.91,776.133 2559.18,1004.65Z" style="fill:rgb(119,106,176);"/>
                </g>
            </g>
        </g>
    </g>
    <g transform="matrix(1.83185,0,0,1.74106,1058.19,-679.62)">
        <g transform="matrix(0.540807,-0.0782425,0.0743647,0.569008,-827.888,1393.76)">
            <circle cx="2967.72" cy="510.921" r="41.518" style="fill:rgb(231,240,190);"/>
        </g>
        <g transform="matrix(0.540807,-0.0782425,0.0743647,0.569008,-444.58,1234.97)">
            <circle cx="2967.72" cy="510.921" r="41.518" style="fill:rgb(231,240,190);"/>
        </g>
        <g transform="matrix(0.540807,-0.0782425,0.0743647,0.569008,-287.218,1508.18)">
            <circle cx="2967.72" cy="510.921" r="41.518" style="fill:rgb(231,240,190);"/>
        </g>
        <g transform="matrix(0.540807,-0.0782425,0.0743647,0.569008,-20.4006,1706.27)">
            <circle cx="2967.72" cy="510.921" r="41.518" style="fill:rgb(231,240,190);"/>
        </g>
        <g transform="matrix(0.540807,-0.0782425,0.0743647,0.569008,-600.303,2316.92)">
            <circle cx="2967.72" cy="510.921" r="41.518" style="fill:rgb(231,240,190);"/>
        </g>
        <g transform="matrix(0.540807,-0.0782425,0.0743647,0.569008,98.7023,2263.87)">
            <circle cx="2967.72" cy="510.921" r="41.518" style="fill:rgb(231,240,190);"/>
        </g>
        <g transform="matrix(0.540807,-0.0782425,0.0743647,0.569008,94.6995,962.444)">
            <circle cx="2967.72" cy="510.921" r="41.518" style="fill:rgb(231,240,190);"/>
        </g>
        <g transform="matrix(0.540807,-0.0782425,0.0743647,0.569008,478.007,803.655)">
            <circle cx="2967.72" cy="510.921" r="41.518" style="fill:rgb(231,240,190);"/>
        </g>
        <g transform="matrix(0.540807,-0.0782425,0.0743647,0.569008,635.369,1076.87)">
            <circle cx="2967.72" cy="510.921" r="41.518" style="fill:rgb(231,240,190);"/>
        </g>
        <g transform="matrix(0.540807,-0.0782425,0.0743647,0.569008,902.187,1274.95)">
            <circle cx="2967.72" cy="510.921" r="41.518" style="fill:rgb(231,240,190);"/>
        </g>
        <g transform="matrix(0.540807,-0.0782425,0.0743647,0.569008,322.284,1885.61)">
            <circle cx="2967.72" cy="510.921" r="41.518" style="fill:rgb(231,240,190);"/>
        </g>
        <g transform="matrix(0.540807,-0.0782425,0.0743647,0.569008,1021.29,1832.56)">
            <circle cx="2967.72" cy="510.921" r="41.518" style="fill:rgb(231,240,190);"/>
        </g>
        <g transform="matrix(0.540807,-0.0782425,0.0743647,0.569008,-1847.69,1867.09)">
            <circle cx="2967.72" cy="510.921" r="41.518" style="fill:rgb(231,240,190);"/>
        </g>
        <g transform="matrix(0.540807,-0.0782425,0.0743647,0.569008,-1464.38,1708.3)">
            <circle cx="2967.72" cy="510.921" r="41.518" style="fill:rgb(231,240,190);"/>
        </g>
        <g transform="matrix(0.540807,-0.0782425,0.0743647,0.569008,-1307.02,1981.51)">
            <circle cx="2967.72" cy="510.921" r="41.518" style="fill:rgb(231,240,190);"/>
        </g>
        <g transform="matrix(0.540807,-0.0782425,0.0743647,0.569008,-1040.2,2179.6)">
            <circle cx="2967.72" cy="510.921" r="41.518" style="fill:rgb(231,240,190);"/>
        </g>
        <g transform="matrix(0.540807,-0.0782425,0.0743647,0.569008,-1620.11,2790.25)">
            <circle cx="2967.72" cy="510.921" r="41.518" style="fill:rgb(231,240,190);"/>
        </g>
        <g transform="matrix(0.540807,-0.0782425,0.0743647,0.569008,-921.101,2737.2)">
            <circle cx="2967.72" cy="510.921" r="41.518" style="fill:rgb(231,240,190);"/>
        </g>
    </g>
    <g id="Capa1">
    </g>
</svg>
