<svg width="1975" height="1456" viewBox="0 0 1975 1456" fill="none" xmlns="http://www.w3.org/2000/svg">
<path fill-rule="evenodd" clip-rule="evenodd" d="M707.83 719.156C707.83 719.156 748.958 427.17 938.904 468.734C1110.8 506.348 1238.37 415.485 1263.5 360.617C1270.93 344.387 1304.53 322.415 1308.8 330.98C1318.98 351.367 1262.4 432.818 1262.4 432.818C1262.4 432.818 1180.55 610.465 1010.87 570.742C980 563.515 951.498 558.575 925.167 555.999C806.792 544.416 756.267 628.276 707.83 719.156Z" fill="#776AB0"/>
<path fill-rule="evenodd" clip-rule="evenodd" d="M734.113 854.038C734.113 854.038 775.241 562.053 965.186 603.616C1137.08 641.231 1264.65 550.368 1289.78 495.5C1314.91 440.63 1284.64 561.502 1284.64 561.502C1284.64 561.502 1206.83 745.348 1037.16 705.625C1006.28 698.398 977.78 693.457 951.449 690.882C833.074 679.298 782.549 763.158 734.113 854.038Z" fill="#776AB0"/>
<path fill-rule="evenodd" clip-rule="evenodd" d="M734.114 1004.33C734.114 1004.33 775.242 712.344 965.187 753.908C1137.09 791.523 1264.65 700.66 1289.78 645.791C1314.91 590.922 1288.32 710.73 1288.32 710.73C1288.32 710.73 1206.83 895.64 1037.16 855.917C1006.28 848.689 977.781 843.749 951.451 841.173C833.075 829.59 782.55 913.45 734.114 1004.33Z" fill="#776AB0"/>
<path fill-rule="evenodd" clip-rule="evenodd" d="M716.723 1166.97C716.723 1166.97 757.851 874.984 947.796 916.547C1119.69 954.162 1247.26 863.299 1272.39 808.431C1297.52 753.561 1238.03 914.964 1238.03 914.964C1238.03 914.964 1189.44 1058.28 1019.77 1018.56C988.892 1011.33 960.39 1006.39 934.059 1003.81C815.684 992.229 765.159 1076.09 716.723 1166.97Z" fill="#776AB0"/>
<path fill-rule="evenodd" clip-rule="evenodd" d="M1211.75 495.249C1211.75 495.249 1252.88 203.263 1442.82 244.827C1614.72 282.441 1746.79 231.657 1782.66 183.129C1806.07 151.459 1816.52 116.146 1826.89 105.727C1842.97 89.5768 1814.1 205.518 1814.1 205.518C1814.1 205.518 1684.47 386.559 1514.79 346.835C1483.92 339.608 1455.42 334.668 1429.09 332.092C1310.71 320.509 1260.19 404.369 1211.75 495.249Z" fill="#776AB0"/>
<path fill-rule="evenodd" clip-rule="evenodd" d="M1238.03 630.132C1238.03 630.132 1279.16 338.146 1469.11 379.71C1641 417.324 1801.77 336.071 1826.89 281.203C1852.03 226.333 1823.62 351.528 1823.62 351.528C1823.62 351.528 1710.75 521.442 1541.08 481.718C1510.2 474.491 1481.7 469.551 1455.37 466.975C1336.99 455.392 1286.47 539.252 1238.03 630.132Z" fill="#776AB0"/>
<path fill-rule="evenodd" clip-rule="evenodd" d="M1238.03 780.424C1238.03 780.424 1255.4 657.106 1319.7 582.162C1354.34 541.785 1402.6 515.449 1469.11 530.001C1641 567.616 1801.76 487.651 1826.9 432.781C1852.03 377.913 1823.62 501.82 1823.62 501.82C1823.62 501.82 1710.75 671.733 1541.08 632.01C1510.2 624.783 1481.7 619.842 1455.37 617.267C1336.99 605.683 1286.47 689.543 1238.03 780.424Z" fill="#776AB0"/>
<path fill-rule="evenodd" clip-rule="evenodd" d="M1220.64 943.063C1220.64 943.063 1261.77 651.077 1451.71 692.641C1623.61 730.256 1793.03 646.702 1818.16 591.833C1843.29 536.964 1806.22 664.46 1806.22 664.46C1806.22 664.46 1693.36 834.373 1523.68 794.65C1492.81 787.422 1464.31 782.482 1437.98 779.906C1319.6 768.323 1269.08 852.183 1220.64 943.063Z" fill="#776AB0"/>
<path fill-rule="evenodd" clip-rule="evenodd" d="M150.81 964.876C150.81 964.876 191.938 672.89 381.883 714.453C553.781 752.068 708.978 665.938 734.107 611.069C741.543 594.838 768.768 535.058 773.043 543.623C783.223 564.01 722.061 694.838 722.061 694.838C722.061 694.838 623.529 856.185 453.853 816.462C422.979 809.235 394.477 804.294 368.146 801.719C249.771 790.136 199.246 873.996 150.81 964.876Z" fill="#776AB0"/>
<path fill-rule="evenodd" clip-rule="evenodd" d="M177.092 1099.76C177.092 1099.76 218.22 807.773 408.165 849.336C580.064 886.951 741.575 802.884 766.704 748.016C791.836 693.146 734.108 854.036 734.108 854.036C734.108 854.036 649.812 991.068 480.136 951.345C449.262 944.118 420.759 939.177 394.429 936.602C276.053 925.018 225.528 1008.88 177.092 1099.76Z" fill="#776AB0"/>
<path fill-rule="evenodd" clip-rule="evenodd" d="M177.093 1250.05C177.093 1250.05 218.221 958.064 408.167 999.628C580.065 1037.24 737.885 951.31 763.015 896.441C788.147 841.572 743.674 994.166 743.674 994.166C743.674 994.166 649.813 1141.36 480.137 1101.64C449.263 1094.41 420.761 1089.47 394.43 1086.89C276.054 1075.31 225.53 1159.17 177.093 1250.05Z" fill="#776AB0"/>
<path fill-rule="evenodd" clip-rule="evenodd" d="M159.702 1412.69C159.702 1412.69 200.83 1120.7 390.775 1162.27C562.673 1199.88 733.725 1094.18 758.857 1039.31C783.986 984.439 716.718 1166.97 716.718 1166.97C716.718 1166.97 632.421 1304 462.745 1264.28C431.871 1257.05 403.369 1252.11 377.038 1249.53C258.663 1237.95 208.138 1321.81 159.702 1412.69Z" fill="#776AB0"/>
<path d="M801.865 552.268C807.719 551.463 811.811 546.065 811.006 540.212C810.201 534.358 804.804 530.266 798.95 531.071C793.097 531.876 789.004 537.273 789.809 543.127C790.614 548.98 796.012 553.073 801.865 552.268Z" fill="#E7F0BE"/>
<path d="M982.797 481.029C988.65 480.225 992.743 474.827 991.938 468.974C991.133 463.12 985.736 459.028 979.882 459.832C974.029 460.637 969.936 466.035 970.741 471.888C971.546 477.742 976.944 481.834 982.797 481.029Z" fill="#E7F0BE"/>
<path d="M1057.08 603.6C1062.93 602.795 1067.02 597.398 1066.22 591.544C1065.41 585.691 1060.01 581.598 1054.16 582.403C1048.31 583.208 1044.22 588.606 1045.02 594.459C1045.83 600.313 1051.22 604.405 1057.08 603.6Z" fill="#E7F0BE"/>
<path d="M1183.02 692.47C1188.87 691.665 1192.97 686.267 1192.16 680.414C1191.36 674.561 1185.96 670.468 1180.11 671.273C1174.25 672.078 1170.16 677.475 1170.97 683.329C1171.77 689.182 1177.17 693.275 1183.02 692.47Z" fill="#E7F0BE"/>
<path d="M909.291 966.428C915.145 965.623 919.237 960.225 918.433 954.372C917.628 948.518 912.23 944.426 906.377 945.231C900.523 946.035 896.431 951.433 897.235 957.287C898.04 963.14 903.438 967.233 909.291 966.428Z" fill="#E7F0BE"/>
<path d="M1239.24 942.628C1245.09 941.823 1249.19 936.425 1248.38 930.572C1247.58 924.718 1242.18 920.626 1236.33 921.431C1230.47 922.236 1226.38 927.633 1227.19 933.487C1227.99 939.34 1233.39 943.433 1239.24 942.628Z" fill="#E7F0BE"/>
<path d="M1237.35 358.765C1243.2 357.96 1247.3 352.563 1246.49 346.709C1245.69 340.856 1240.29 336.763 1234.44 337.568C1228.58 338.373 1224.49 343.771 1225.3 349.624C1226.1 355.477 1231.5 359.57 1237.35 358.765Z" fill="#E7F0BE"/>
<path d="M1418.28 287.527C1424.14 286.722 1428.23 281.325 1427.42 275.471C1426.62 269.618 1421.22 265.525 1415.37 266.33C1409.52 267.135 1405.42 272.533 1406.23 278.386C1407.03 284.24 1412.43 288.332 1418.28 287.527Z" fill="#E7F0BE"/>
<path d="M1492.56 410.101C1498.42 409.296 1502.51 403.898 1501.7 398.045C1500.9 392.191 1495.5 388.099 1489.65 388.903C1483.79 389.708 1479.7 395.106 1480.51 400.959C1481.31 406.813 1486.71 410.905 1492.56 410.101Z" fill="#E7F0BE"/>
<path d="M1618.51 498.966C1624.36 498.161 1628.45 492.763 1627.65 486.91C1626.84 481.056 1621.45 476.964 1615.59 477.769C1609.74 478.574 1605.65 483.971 1606.45 489.825C1607.26 495.678 1612.65 499.771 1618.51 498.966Z" fill="#E7F0BE"/>
<path d="M1344.78 772.928C1350.63 772.123 1354.72 766.725 1353.92 760.872C1353.11 755.018 1347.72 750.926 1341.86 751.731C1336.01 752.535 1331.92 757.933 1332.72 763.787C1333.53 769.64 1338.92 773.733 1344.78 772.928Z" fill="#E7F0BE"/>
<path d="M1674.73 749.128C1680.58 748.323 1684.67 742.925 1683.87 737.072C1683.06 731.218 1677.67 727.126 1671.81 727.931C1665.96 728.736 1661.87 734.133 1662.67 739.987C1663.48 745.84 1668.87 749.933 1674.73 749.128Z" fill="#E7F0BE"/>
<path d="M320.49 764.619C326.344 763.814 330.437 758.417 329.632 752.563C328.827 746.71 323.429 742.617 317.576 743.422C311.722 744.227 307.63 749.625 308.435 755.478C309.239 761.331 314.637 765.424 320.49 764.619Z" fill="#E7F0BE"/>
<path d="M501.423 693.381C507.277 692.576 511.369 687.178 510.565 681.325C509.76 675.471 504.362 671.379 498.509 672.184C492.655 672.989 488.563 678.386 489.367 684.24C490.172 690.093 495.57 694.186 501.423 693.381Z" fill="#E7F0BE"/>
<path d="M575.702 815.952C581.555 815.147 585.648 809.749 584.843 803.896C584.038 798.042 578.64 793.95 572.787 794.755C566.933 795.56 562.841 800.957 563.646 806.811C564.451 812.664 569.848 816.757 575.702 815.952Z" fill="#E7F0BE"/>
<path d="M701.648 904.821C707.501 904.017 711.594 898.619 710.789 892.766C709.984 886.912 704.587 882.82 698.733 883.624C692.88 884.429 688.787 889.827 689.592 895.68C690.397 901.534 695.795 905.626 701.648 904.821Z" fill="#E7F0BE"/>
<path d="M427.915 1178.78C433.768 1177.97 437.861 1172.58 437.056 1166.72C436.251 1160.87 430.853 1156.78 425 1157.58C419.147 1158.39 415.054 1163.78 415.859 1169.64C416.664 1175.49 422.061 1179.58 427.915 1178.78Z" fill="#E7F0BE"/>
<path d="M757.866 1154.98C763.719 1154.17 767.812 1148.78 767.007 1142.92C766.202 1137.07 760.805 1132.98 754.951 1133.78C749.098 1134.59 745.005 1139.98 745.81 1145.84C746.615 1151.69 752.013 1155.78 757.866 1154.98Z" fill="#E7F0BE"/>
</svg>
