<svg width="1975" height="1456" viewBox="0 0 1975 1456" fill="none" xmlns="http://www.w3.org/2000/svg">
<path fill-rule="evenodd" clip-rule="evenodd" d="M707.83 719.156C707.83 719.156 748.958 427.17 938.904 468.734C1110.8 506.348 1238.37 415.485 1263.5 360.617C1270.93 344.387 1304.53 322.415 1308.8 330.98C1318.98 351.367 1262.4 432.818 1262.4 432.818C1262.4 432.818 1180.55 610.465 1010.87 570.742C980 563.515 951.498 558.575 925.167 555.999C806.792 544.416 756.267 628.276 707.83 719.156Z" fill="#776AB0"/>
<path fill-rule="evenodd" clip-rule="evenodd" d="M734.113 854.038C734.113 854.038 775.241 562.053 965.186 603.616C1137.08 641.231 1264.65 550.368 1289.78 495.5C1314.91 440.63 1284.64 561.502 1284.64 561.502C1284.64 561.502 1206.83 745.348 1037.16 705.625C1006.28 698.398 977.78 693.457 951.449 690.882C833.074 679.298 782.549 763.158 734.113 854.038Z" fill="#776AB0"/>
<path fill-rule="evenodd" clip-rule="evenodd" d="M734.114 1004.33C734.114 1004.33 775.242 712.344 965.187 753.908C1137.09 791.523 1264.65 700.66 1289.78 645.791C1314.91 590.922 1288.32 710.73 1288.32 710.73C1288.32 710.73 1206.83 895.64 1037.16 855.917C1006.28 848.689 977.781 843.749 951.451 841.173C833.075 829.59 782.55 913.45 734.114 1004.33Z" fill="#776AB0"/>
<path fill-rule="evenodd" clip-rule="evenodd" d="M716.723 1166.97C716.723 1166.97 757.851 874.984 947.796 916.547C1119.69 954.162 1247.26 863.299 1272.39 808.431C1297.52 753.561 1238.03 914.964 1238.03 914.964C1238.03 914.964 1189.44 1058.28 1019.77 1018.56C988.892 1011.33 960.39 1006.39 934.059 1003.81C815.684 992.229 765.159 1076.09 716.723 1166.97Z" fill="#776AB0"/>
<path fill-rule="evenodd" clip-rule="evenodd" d="M1211.75 495.249C1211.75 495.249 1252.88 203.263 1442.82 244.827C1614.72 282.441 1746.79 231.657 1782.66 183.129C1806.07 151.459 1816.52 116.146 1826.89 105.727C1842.97 89.5768 1814.1 205.518 1814.1 205.518C1814.1 205.518 1684.47 386.559 1514.79 346.835C1483.92 339.608 1455.42 334.668 1429.09 332.092C1310.71 320.509 1260.19 404.369 1211.75 495.249Z" fill="#776AB0"/>
<path fill-rule="evenodd" clip-rule="evenodd" d="M1238.03 630.132C1238.03 630.132 1279.16 338.146 1469.11 379.71C1641 417.324 1801.77 336.071 1826.89 281.203C1852.03 226.333 1823.62 351.528 1823.62 351.528C1823.62 351.528 1710.75 521.442 1541.08 481.718C1510.2 474.491 1481.7 469.551 1455.37 466.975C1336.99 455.392 1286.47 539.252 1238.03 630.132Z" fill="#776AB0"/>
<path fill-rule="evenodd" clip-rule="evenodd" d="M1238.03 780.424C1238.03 780.424 1255.4 657.106 1319.7 582.162C1354.34 541.785 1402.6 515.449 1469.11 530.001C1641 567.616 1801.76 487.651 1826.9 432.781C1852.03 377.913 1823.62 501.82 1823.62 501.82C1823.62 501.82 1710.75 671.733 1541.08 632.01C1510.2 624.783 1481.7 619.842 1455.37 617.267C1336.99 605.683 1286.47 689.543 1238.03 780.424Z" fill="#776AB0"/>
<path fill-rule="evenodd" clip-rule="evenodd" d="M1220.64 943.063C1220.64 943.063 1261.77 651.077 1451.71 692.641C1623.61 730.256 1793.03 646.702 1818.16 591.833C1843.29 536.964 1806.22 664.46 1806.22 664.46C1806.22 664.46 1693.36 834.373 1523.68 794.65C1492.81 787.422 1464.31 782.482 1437.98 779.906C1319.6 768.323 1269.08 852.183 1220.64 943.063Z" fill="#776AB0"/>
<path fill-rule="evenodd" clip-rule="evenodd" d="M150.81 964.876C150.81 964.876 191.938 672.89 381.883 714.453C553.781 752.068 708.978 665.938 734.107 611.069C741.543 594.838 768.768 535.058 773.043 543.623C783.223 564.01 722.061 694.838 722.061 694.838C722.061 694.838 623.529 856.185 453.853 816.462C422.979 809.235 394.477 804.294 368.146 801.719C249.771 790.136 199.246 873.996 150.81 964.876Z" fill="#776AB0"/>
<path fill-rule="evenodd" clip-rule="evenodd" d="M177.092 1099.76C177.092 1099.76 218.22 807.773 408.165 849.336C580.064 886.951 741.575 802.884 766.704 748.016C791.836 693.146 734.108 854.036 734.108 854.036C734.108 854.036 649.812 991.068 480.136 951.345C449.262 944.118 420.759 939.177 394.429 936.602C276.053 925.018 225.528 1008.88 177.092 1099.76Z" fill="#776AB0"/>
<path fill-rule="evenodd" clip-rule="evenodd" d="M177.093 1250.05C177.093 1250.05 218.221 958.064 408.167 999.628C580.065 1037.24 737.885 951.31 763.015 896.441C788.147 841.572 743.674 994.166 743.674 994.166C743.674 994.166 649.813 1141.36 480.137 1101.64C449.263 1094.41 420.761 1089.47 394.43 1086.89C276.054 1075.31 225.53 1159.17 177.093 1250.05Z" fill="#776AB0"/>
<path fill-rule="evenodd" clip-rule="evenodd" d="M159.702 1412.69C159.702 1412.69 200.83 1120.7 390.775 1162.27C562.673 1199.88 733.725 1094.18 758.857 1039.31C783.986 984.439 716.718 1166.97 716.718 1166.97C716.718 1166.97 632.421 1304 462.745 1264.28C431.871 1257.05 403.369 1252.11 377.038 1249.53C258.663 1237.95 208.138 1321.81 159.702 1412.69Z" fill="#776AB0"/>
</svg>
