<?xml version="1.0" encoding="UTF-8" standalone="no"?>
<!DOCTYPE svg PUBLIC "-//W3C//DTD SVG 1.1//EN" "http://www.w3.org/Graphics/SVG/1.1/DTD/svg11.dtd">
<svg width="100%" height="100%" viewBox="0 0 1035 300" version="1.1" xmlns="http://www.w3.org/2000/svg" xmlns:xlink="http://www.w3.org/1999/xlink" xml:space="preserve" xmlns:serif="http://www.serif.com/" style="fill-rule:evenodd;clip-rule:evenodd;stroke-linejoin:round;stroke-miterlimit:2;">
    <g transform="matrix(1,0,0,1,0,-1906.54)">
        <g id="Mesa-de-trabajo4" serif:id="Mesa de trabajo4" transform="matrix(0.939064,0,0,0.794385,509.571,422.688)">
            <rect x="-542.637" y="1867.92" width="1101.37" height="377.149" style="fill:none;"/>
            <g transform="matrix(0.722238,0,0,0.649495,-2548.49,1163.78)">
                <g transform="matrix(269.997,0,0,300,3054.41,1339.65)">
                    <path d="M0.38,-0.669L0.38,-0.479C0.366,-0.484 0.354,-0.487 0.347,-0.487C0.332,-0.487 0.319,-0.481 0.308,-0.47C0.297,-0.459 0.292,-0.446 0.292,-0.43C0.292,-0.417 0.298,-0.4 0.31,-0.379L0.325,-0.353C0.352,-0.306 0.366,-0.26 0.366,-0.215C0.366,-0.151 0.343,-0.096 0.297,-0.051C0.251,-0.006 0.194,0.017 0.128,0.017C0.096,0.017 0.064,0.009 0.033,-0.005L0.033,-0.198C0.052,-0.186 0.069,-0.18 0.083,-0.18C0.101,-0.18 0.115,-0.185 0.127,-0.195C0.138,-0.205 0.144,-0.217 0.144,-0.232C0.144,-0.242 0.135,-0.264 0.116,-0.296C0.087,-0.348 0.072,-0.401 0.072,-0.453C0.072,-0.515 0.094,-0.57 0.139,-0.615C0.184,-0.66 0.237,-0.683 0.299,-0.683C0.327,-0.683 0.354,-0.679 0.38,-0.669Z" style="fill:none;fill-rule:nonzero;stroke:rgb(40,48,57);stroke-width:0.12px;"/>
                </g>
                <g transform="matrix(269.997,0,0,300,3166.08,1339.65)">
                    <rect x="0.067" y="-0.667" width="0.198" height="0.667" style="fill:none;fill-rule:nonzero;stroke:rgb(40,48,57);stroke-width:0.12px;"/>
                </g>
                <g transform="matrix(269.997,0,0,300,3255.59,1339.65)">
                    <path d="M0.349,-0.374L0.538,-0.374C0.579,-0.323 0.599,-0.27 0.599,-0.214C0.599,-0.149 0.575,-0.094 0.528,-0.05C0.48,-0.006 0.421,0.017 0.352,0.017C0.261,0.017 0.184,-0.018 0.121,-0.086C0.058,-0.155 0.026,-0.239 0.026,-0.337C0.026,-0.436 0.059,-0.519 0.123,-0.584C0.187,-0.65 0.267,-0.683 0.364,-0.683C0.397,-0.683 0.433,-0.676 0.473,-0.663L0.473,-0.465C0.442,-0.479 0.413,-0.487 0.388,-0.487C0.341,-0.487 0.303,-0.472 0.274,-0.443C0.244,-0.414 0.229,-0.377 0.229,-0.331C0.229,-0.283 0.243,-0.246 0.271,-0.218C0.298,-0.191 0.335,-0.177 0.381,-0.177C0.411,-0.177 0.426,-0.185 0.426,-0.203C0.426,-0.216 0.416,-0.222 0.396,-0.222L0.349,-0.222L0.349,-0.374Z" style="fill:none;fill-rule:nonzero;stroke:rgb(40,48,57);stroke-width:0.12px;"/>
                </g>
                <g transform="matrix(269.997,0,0,300,3421.04,1339.65)">
                    <path d="M0.535,-0.667L0.535,-0.234C0.535,-0.158 0.512,-0.097 0.467,-0.052C0.422,-0.006 0.361,0.017 0.286,0.017C0.21,0.017 0.153,-0.006 0.113,-0.05C0.073,-0.094 0.053,-0.158 0.053,-0.241L0.053,-0.667L0.251,-0.667L0.251,-0.241C0.251,-0.201 0.266,-0.18 0.295,-0.18C0.323,-0.18 0.337,-0.201 0.337,-0.241L0.337,-0.667L0.535,-0.667Z" style="fill:none;fill-rule:nonzero;stroke:rgb(40,48,57);stroke-width:0.12px;"/>
                </g>
                <g transform="matrix(269.997,0,0,300,3580.04,1339.65)">
                    <path d="M0.422,-0.407L0.422,-0.259L0.293,-0.259C0.275,-0.259 0.263,-0.256 0.256,-0.251C0.248,-0.246 0.245,-0.237 0.245,-0.225C0.245,-0.211 0.248,-0.201 0.256,-0.197C0.263,-0.193 0.279,-0.19 0.302,-0.19L0.435,-0.19L0.435,-0L0.279,-0C0.206,-0 0.15,-0.017 0.111,-0.052C0.073,-0.087 0.053,-0.138 0.053,-0.204L0.053,-0.465C0.053,-0.529 0.072,-0.579 0.108,-0.614C0.145,-0.649 0.196,-0.667 0.263,-0.667L0.435,-0.667L0.435,-0.475L0.309,-0.475C0.274,-0.475 0.257,-0.464 0.257,-0.442C0.257,-0.429 0.261,-0.42 0.27,-0.415C0.278,-0.41 0.292,-0.407 0.313,-0.407L0.422,-0.407Z" style="fill:none;fill-rule:nonzero;stroke:rgb(40,48,57);stroke-width:0.12px;"/>
                </g>
                <g transform="matrix(269.997,0,0,300,3777.66,1339.65)">
                    <path d="M0.309,-0.334L0.309,-0.159L0.251,-0.159L0.251,-0L0.053,-0L0.053,-0.424C0.053,-0.506 0.076,-0.57 0.12,-0.615C0.165,-0.66 0.228,-0.683 0.309,-0.683C0.387,-0.683 0.445,-0.663 0.482,-0.621C0.52,-0.58 0.539,-0.517 0.539,-0.431L0.539,-0L0.34,-0L0.34,-0.417C0.34,-0.444 0.337,-0.462 0.331,-0.472C0.325,-0.482 0.314,-0.487 0.298,-0.487C0.267,-0.487 0.251,-0.464 0.251,-0.417L0.251,-0.334L0.309,-0.334Z" style="fill:none;fill-rule:nonzero;stroke:rgb(40,48,57);stroke-width:0.12px;"/>
                </g>
                <g transform="matrix(269.997,0,0,300,3937.44,1339.65)">
                    <path d="M0.053,-0.667L0.251,-0.667L0.251,-0.271C0.251,-0.24 0.256,-0.219 0.266,-0.209C0.276,-0.198 0.296,-0.193 0.325,-0.193L0.335,-0.193L0.335,-0L0.283,-0C0.21,-0 0.154,-0.021 0.114,-0.063C0.073,-0.105 0.053,-0.164 0.053,-0.239L0.053,-0.667Z" style="fill:none;fill-rule:nonzero;stroke:rgb(40,48,57);stroke-width:0.12px;"/>
                </g>
                <g transform="matrix(269.997,0,0,300,2796.44,1606.31)">
                    <path d="M0.518,-0.326L0.725,-0.32C0.711,-0.213 0.674,-0.13 0.614,-0.071C0.553,-0.013 0.474,0.017 0.376,0.017C0.277,0.017 0.194,-0.017 0.127,-0.083C0.06,-0.15 0.026,-0.232 0.026,-0.331C0.026,-0.43 0.06,-0.514 0.129,-0.582C0.197,-0.649 0.281,-0.683 0.381,-0.683C0.479,-0.683 0.561,-0.65 0.627,-0.583C0.673,-0.538 0.705,-0.474 0.724,-0.392L0.511,-0.377C0.487,-0.45 0.442,-0.487 0.376,-0.487C0.334,-0.487 0.299,-0.472 0.271,-0.443C0.244,-0.414 0.23,-0.376 0.23,-0.331C0.23,-0.287 0.243,-0.251 0.271,-0.223C0.298,-0.194 0.332,-0.18 0.373,-0.18C0.415,-0.18 0.448,-0.193 0.473,-0.218C0.498,-0.243 0.513,-0.279 0.518,-0.326Z" style="fill:none;fill-rule:nonzero;stroke:rgb(40,48,57);stroke-width:0.12px;"/>
                </g>
                <g transform="matrix(269.997,0,0,300,2999.47,1606.31)">
                    <path d="M0.309,-0.334L0.309,-0.159L0.251,-0.159L0.251,-0L0.053,-0L0.053,-0.424C0.053,-0.506 0.076,-0.57 0.12,-0.615C0.165,-0.66 0.228,-0.683 0.309,-0.683C0.387,-0.683 0.445,-0.663 0.482,-0.621C0.52,-0.58 0.539,-0.517 0.539,-0.431L0.539,-0L0.34,-0L0.34,-0.417C0.34,-0.444 0.337,-0.462 0.331,-0.472C0.325,-0.482 0.314,-0.487 0.298,-0.487C0.267,-0.487 0.251,-0.464 0.251,-0.417L0.251,-0.334L0.309,-0.334Z" style="fill:none;fill-rule:nonzero;stroke:rgb(40,48,57);stroke-width:0.12px;"/>
                </g>
                <g transform="matrix(269.997,0,0,300,3159.25,1606.31)">
                    <path d="M0.284,-0.23L0.284,-0.405C0.324,-0.405 0.344,-0.421 0.344,-0.451C0.344,-0.479 0.328,-0.493 0.298,-0.493C0.267,-0.493 0.251,-0.474 0.251,-0.436L0.251,-0L0.053,-0L0.053,-0.415C0.053,-0.458 0.058,-0.493 0.066,-0.521C0.075,-0.548 0.09,-0.574 0.11,-0.598C0.134,-0.624 0.163,-0.645 0.198,-0.66C0.233,-0.675 0.27,-0.683 0.307,-0.683C0.375,-0.683 0.432,-0.66 0.478,-0.615C0.524,-0.569 0.547,-0.513 0.547,-0.445C0.547,-0.38 0.526,-0.327 0.485,-0.286C0.447,-0.249 0.39,-0.23 0.314,-0.23L0.284,-0.23Z" style="fill:none;fill-rule:nonzero;stroke:rgb(40,48,57);stroke-width:0.12px;"/>
                </g>
                <g transform="matrix(269.997,0,0,300,3308.29,1606.31)">
                    <path d="M0.309,-0.334L0.309,-0.159L0.251,-0.159L0.251,-0L0.053,-0L0.053,-0.424C0.053,-0.506 0.076,-0.57 0.12,-0.615C0.165,-0.66 0.228,-0.683 0.309,-0.683C0.387,-0.683 0.445,-0.663 0.482,-0.621C0.52,-0.58 0.539,-0.517 0.539,-0.431L0.539,-0L0.34,-0L0.34,-0.417C0.34,-0.444 0.337,-0.462 0.331,-0.472C0.325,-0.482 0.314,-0.487 0.298,-0.487C0.267,-0.487 0.251,-0.464 0.251,-0.417L0.251,-0.334L0.309,-0.334Z" style="fill:none;fill-rule:nonzero;stroke:rgb(40,48,57);stroke-width:0.12px;"/>
                </g>
                <g transform="matrix(269.997,0,0,300,3468.08,1606.31)">
                    <path d="M0.265,-0.487L0.265,-0L0.067,-0L0.067,-0.667L0.321,-0.667C0.399,-0.667 0.459,-0.647 0.501,-0.609C0.549,-0.566 0.573,-0.511 0.573,-0.445C0.573,-0.378 0.543,-0.321 0.484,-0.275L0.599,-0L0.391,-0L0.294,-0.215L0.294,-0.386L0.31,-0.386C0.352,-0.386 0.373,-0.404 0.373,-0.44C0.373,-0.472 0.348,-0.487 0.3,-0.487L0.265,-0.487Z" style="fill:none;fill-rule:nonzero;stroke:rgb(40,48,57);stroke-width:0.12px;"/>
                </g>
                <g transform="matrix(269.997,0,0,300,3624.17,1606.31)">
                    <path d="M0.309,-0.334L0.309,-0.159L0.251,-0.159L0.251,-0L0.053,-0L0.053,-0.424C0.053,-0.506 0.076,-0.57 0.12,-0.615C0.165,-0.66 0.228,-0.683 0.309,-0.683C0.387,-0.683 0.445,-0.663 0.482,-0.621C0.52,-0.58 0.539,-0.517 0.539,-0.431L0.539,-0L0.34,-0L0.34,-0.417C0.34,-0.444 0.337,-0.462 0.331,-0.472C0.325,-0.482 0.314,-0.487 0.298,-0.487C0.267,-0.487 0.251,-0.464 0.251,-0.417L0.251,-0.334L0.309,-0.334Z" style="fill:none;fill-rule:nonzero;stroke:rgb(40,48,57);stroke-width:0.12px;"/>
                </g>
                <g transform="matrix(269.997,0,0,300,3778.56,1606.31)">
                    <path d="M0.517,-0.667L0.31,-0.191L0.515,-0.191L0.515,-0L0.012,-0L0.218,-0.475L0,-0.475L0,-0.667L0.517,-0.667Z" style="fill:none;fill-rule:nonzero;stroke:rgb(40,48,57);stroke-width:0.12px;"/>
                </g>
                <g transform="matrix(269.997,0,0,300,3918.17,1606.31)">
                    <path d="M0.383,-0.683C0.477,-0.683 0.558,-0.649 0.626,-0.58C0.693,-0.511 0.727,-0.429 0.727,-0.333C0.727,-0.236 0.693,-0.153 0.625,-0.085C0.557,-0.017 0.474,0.017 0.377,0.017C0.28,0.017 0.198,-0.018 0.129,-0.086C0.061,-0.154 0.027,-0.237 0.027,-0.333C0.027,-0.431 0.061,-0.514 0.13,-0.582C0.199,-0.649 0.283,-0.683 0.383,-0.683ZM0.377,-0.487C0.336,-0.487 0.302,-0.472 0.273,-0.442C0.244,-0.412 0.23,-0.376 0.23,-0.333C0.23,-0.291 0.244,-0.255 0.273,-0.225C0.302,-0.195 0.337,-0.18 0.377,-0.18C0.418,-0.18 0.453,-0.195 0.481,-0.225C0.51,-0.255 0.524,-0.291 0.524,-0.333C0.524,-0.376 0.51,-0.412 0.481,-0.442C0.453,-0.472 0.418,-0.487 0.377,-0.487ZM0.566,-0.855L0.429,-0.722L0.308,-0.722L0.429,-0.855L0.566,-0.855Z" style="fill:none;fill-rule:nonzero;stroke:rgb(40,48,57);stroke-width:0.12px;"/>
                </g>
                <g transform="matrix(269.997,0,0,300,4126.99,1606.31)">
                    <path d="M0.053,-0L0.053,-0.433C0.053,-0.508 0.076,-0.569 0.121,-0.615C0.167,-0.66 0.227,-0.683 0.303,-0.683C0.378,-0.683 0.435,-0.661 0.475,-0.617C0.515,-0.572 0.535,-0.509 0.535,-0.426L0.535,-0L0.337,-0L0.337,-0.426C0.337,-0.466 0.322,-0.487 0.293,-0.487C0.265,-0.487 0.251,-0.466 0.251,-0.426L0.251,-0L0.053,-0Z" style="fill:none;fill-rule:nonzero;stroke:rgb(40,48,57);stroke-width:0.12px;"/>
                </g>
                <g transform="matrix(269.997,0,0,300,3054.41,1339.65)">
                    <path d="M0.38,-0.669L0.38,-0.479C0.366,-0.484 0.354,-0.487 0.347,-0.487C0.332,-0.487 0.319,-0.481 0.308,-0.47C0.297,-0.459 0.292,-0.446 0.292,-0.43C0.292,-0.417 0.298,-0.4 0.31,-0.379L0.325,-0.353C0.352,-0.306 0.366,-0.26 0.366,-0.215C0.366,-0.151 0.343,-0.096 0.297,-0.051C0.251,-0.006 0.194,0.017 0.128,0.017C0.096,0.017 0.064,0.009 0.033,-0.005L0.033,-0.198C0.052,-0.186 0.069,-0.18 0.083,-0.18C0.101,-0.18 0.115,-0.185 0.127,-0.195C0.138,-0.205 0.144,-0.217 0.144,-0.232C0.144,-0.242 0.135,-0.264 0.116,-0.296C0.087,-0.348 0.072,-0.401 0.072,-0.453C0.072,-0.515 0.094,-0.57 0.139,-0.615C0.184,-0.66 0.237,-0.683 0.299,-0.683C0.327,-0.683 0.354,-0.679 0.38,-0.669Z" style="fill:rgb(231,240,190);fill-rule:nonzero;"/>
                </g>
                <g transform="matrix(269.997,0,0,300,3166.08,1339.65)">
                    <rect x="0.067" y="-0.667" width="0.198" height="0.667" style="fill:rgb(231,240,190);fill-rule:nonzero;"/>
                </g>
                <g transform="matrix(269.997,0,0,300,3255.59,1339.65)">
                    <path d="M0.349,-0.374L0.538,-0.374C0.579,-0.323 0.599,-0.27 0.599,-0.214C0.599,-0.149 0.575,-0.094 0.528,-0.05C0.48,-0.006 0.421,0.017 0.352,0.017C0.261,0.017 0.184,-0.018 0.121,-0.086C0.058,-0.155 0.026,-0.239 0.026,-0.337C0.026,-0.436 0.059,-0.519 0.123,-0.584C0.187,-0.65 0.267,-0.683 0.364,-0.683C0.397,-0.683 0.433,-0.676 0.473,-0.663L0.473,-0.465C0.442,-0.479 0.413,-0.487 0.388,-0.487C0.341,-0.487 0.303,-0.472 0.274,-0.443C0.244,-0.414 0.229,-0.377 0.229,-0.331C0.229,-0.283 0.243,-0.246 0.271,-0.218C0.298,-0.191 0.335,-0.177 0.381,-0.177C0.411,-0.177 0.426,-0.185 0.426,-0.203C0.426,-0.216 0.416,-0.222 0.396,-0.222L0.349,-0.222L0.349,-0.374Z" style="fill:rgb(231,240,190);fill-rule:nonzero;"/>
                </g>
                <g transform="matrix(269.997,0,0,300,3421.04,1339.65)">
                    <path d="M0.535,-0.667L0.535,-0.234C0.535,-0.158 0.512,-0.097 0.467,-0.052C0.422,-0.006 0.361,0.017 0.286,0.017C0.21,0.017 0.153,-0.006 0.113,-0.05C0.073,-0.094 0.053,-0.158 0.053,-0.241L0.053,-0.667L0.251,-0.667L0.251,-0.241C0.251,-0.201 0.266,-0.18 0.295,-0.18C0.323,-0.18 0.337,-0.201 0.337,-0.241L0.337,-0.667L0.535,-0.667Z" style="fill:rgb(231,240,190);fill-rule:nonzero;"/>
                </g>
                <g transform="matrix(269.997,0,0,300,3580.04,1339.65)">
                    <path d="M0.422,-0.407L0.422,-0.259L0.293,-0.259C0.275,-0.259 0.263,-0.256 0.256,-0.251C0.248,-0.246 0.245,-0.237 0.245,-0.225C0.245,-0.211 0.248,-0.201 0.256,-0.197C0.263,-0.193 0.279,-0.19 0.302,-0.19L0.435,-0.19L0.435,-0L0.279,-0C0.206,-0 0.15,-0.017 0.111,-0.052C0.073,-0.087 0.053,-0.138 0.053,-0.204L0.053,-0.465C0.053,-0.529 0.072,-0.579 0.108,-0.614C0.145,-0.649 0.196,-0.667 0.263,-0.667L0.435,-0.667L0.435,-0.475L0.309,-0.475C0.274,-0.475 0.257,-0.464 0.257,-0.442C0.257,-0.429 0.261,-0.42 0.27,-0.415C0.278,-0.41 0.292,-0.407 0.313,-0.407L0.422,-0.407Z" style="fill:rgb(231,240,190);fill-rule:nonzero;"/>
                </g>
                <g transform="matrix(269.997,0,0,300,3777.66,1339.65)">
                    <path d="M0.309,-0.334L0.309,-0.159L0.251,-0.159L0.251,-0L0.053,-0L0.053,-0.424C0.053,-0.506 0.076,-0.57 0.12,-0.615C0.165,-0.66 0.228,-0.683 0.309,-0.683C0.387,-0.683 0.445,-0.663 0.482,-0.621C0.52,-0.58 0.539,-0.517 0.539,-0.431L0.539,-0L0.34,-0L0.34,-0.417C0.34,-0.444 0.337,-0.462 0.331,-0.472C0.325,-0.482 0.314,-0.487 0.298,-0.487C0.267,-0.487 0.251,-0.464 0.251,-0.417L0.251,-0.334L0.309,-0.334Z" style="fill:rgb(231,240,190);fill-rule:nonzero;"/>
                </g>
                <g transform="matrix(269.997,0,0,300,3937.44,1339.65)">
                    <path d="M0.053,-0.667L0.251,-0.667L0.251,-0.271C0.251,-0.24 0.256,-0.219 0.266,-0.209C0.276,-0.198 0.296,-0.193 0.325,-0.193L0.335,-0.193L0.335,-0L0.283,-0C0.21,-0 0.154,-0.021 0.114,-0.063C0.073,-0.105 0.053,-0.164 0.053,-0.239L0.053,-0.667Z" style="fill:rgb(231,240,190);fill-rule:nonzero;"/>
                </g>
                <g transform="matrix(269.997,0,0,300,2796.44,1606.31)">
                    <path d="M0.518,-0.326L0.725,-0.32C0.711,-0.213 0.674,-0.13 0.614,-0.071C0.553,-0.013 0.474,0.017 0.376,0.017C0.277,0.017 0.194,-0.017 0.127,-0.083C0.06,-0.15 0.026,-0.232 0.026,-0.331C0.026,-0.43 0.06,-0.514 0.129,-0.582C0.197,-0.649 0.281,-0.683 0.381,-0.683C0.479,-0.683 0.561,-0.65 0.627,-0.583C0.673,-0.538 0.705,-0.474 0.724,-0.392L0.511,-0.377C0.487,-0.45 0.442,-0.487 0.376,-0.487C0.334,-0.487 0.299,-0.472 0.271,-0.443C0.244,-0.414 0.23,-0.376 0.23,-0.331C0.23,-0.287 0.243,-0.251 0.271,-0.223C0.298,-0.194 0.332,-0.18 0.373,-0.18C0.415,-0.18 0.448,-0.193 0.473,-0.218C0.498,-0.243 0.513,-0.279 0.518,-0.326Z" style="fill:rgb(231,240,190);fill-rule:nonzero;"/>
                </g>
                <g transform="matrix(269.997,0,0,300,2999.47,1606.31)">
                    <path d="M0.309,-0.334L0.309,-0.159L0.251,-0.159L0.251,-0L0.053,-0L0.053,-0.424C0.053,-0.506 0.076,-0.57 0.12,-0.615C0.165,-0.66 0.228,-0.683 0.309,-0.683C0.387,-0.683 0.445,-0.663 0.482,-0.621C0.52,-0.58 0.539,-0.517 0.539,-0.431L0.539,-0L0.34,-0L0.34,-0.417C0.34,-0.444 0.337,-0.462 0.331,-0.472C0.325,-0.482 0.314,-0.487 0.298,-0.487C0.267,-0.487 0.251,-0.464 0.251,-0.417L0.251,-0.334L0.309,-0.334Z" style="fill:rgb(231,240,190);fill-rule:nonzero;"/>
                </g>
                <g transform="matrix(269.997,0,0,300,3159.25,1606.31)">
                    <path d="M0.284,-0.23L0.284,-0.405C0.324,-0.405 0.344,-0.421 0.344,-0.451C0.344,-0.479 0.328,-0.493 0.298,-0.493C0.267,-0.493 0.251,-0.474 0.251,-0.436L0.251,-0L0.053,-0L0.053,-0.415C0.053,-0.458 0.058,-0.493 0.066,-0.521C0.075,-0.548 0.09,-0.574 0.11,-0.598C0.134,-0.624 0.163,-0.645 0.198,-0.66C0.233,-0.675 0.27,-0.683 0.307,-0.683C0.375,-0.683 0.432,-0.66 0.478,-0.615C0.524,-0.569 0.547,-0.513 0.547,-0.445C0.547,-0.38 0.526,-0.327 0.485,-0.286C0.447,-0.249 0.39,-0.23 0.314,-0.23L0.284,-0.23Z" style="fill:rgb(231,240,190);fill-rule:nonzero;"/>
                </g>
                <g transform="matrix(269.997,0,0,300,3308.29,1606.31)">
                    <path d="M0.309,-0.334L0.309,-0.159L0.251,-0.159L0.251,-0L0.053,-0L0.053,-0.424C0.053,-0.506 0.076,-0.57 0.12,-0.615C0.165,-0.66 0.228,-0.683 0.309,-0.683C0.387,-0.683 0.445,-0.663 0.482,-0.621C0.52,-0.58 0.539,-0.517 0.539,-0.431L0.539,-0L0.34,-0L0.34,-0.417C0.34,-0.444 0.337,-0.462 0.331,-0.472C0.325,-0.482 0.314,-0.487 0.298,-0.487C0.267,-0.487 0.251,-0.464 0.251,-0.417L0.251,-0.334L0.309,-0.334Z" style="fill:rgb(231,240,190);fill-rule:nonzero;"/>
                </g>
                <g transform="matrix(269.997,0,0,300,3468.08,1606.31)">
                    <path d="M0.265,-0.487L0.265,-0L0.067,-0L0.067,-0.667L0.321,-0.667C0.399,-0.667 0.459,-0.647 0.501,-0.609C0.549,-0.566 0.573,-0.511 0.573,-0.445C0.573,-0.378 0.543,-0.321 0.484,-0.275L0.599,-0L0.391,-0L0.294,-0.215L0.294,-0.386L0.31,-0.386C0.352,-0.386 0.373,-0.404 0.373,-0.44C0.373,-0.472 0.348,-0.487 0.3,-0.487L0.265,-0.487Z" style="fill:rgb(231,240,190);fill-rule:nonzero;"/>
                </g>
                <g transform="matrix(269.997,0,0,300,3624.17,1606.31)">
                    <path d="M0.309,-0.334L0.309,-0.159L0.251,-0.159L0.251,-0L0.053,-0L0.053,-0.424C0.053,-0.506 0.076,-0.57 0.12,-0.615C0.165,-0.66 0.228,-0.683 0.309,-0.683C0.387,-0.683 0.445,-0.663 0.482,-0.621C0.52,-0.58 0.539,-0.517 0.539,-0.431L0.539,-0L0.34,-0L0.34,-0.417C0.34,-0.444 0.337,-0.462 0.331,-0.472C0.325,-0.482 0.314,-0.487 0.298,-0.487C0.267,-0.487 0.251,-0.464 0.251,-0.417L0.251,-0.334L0.309,-0.334Z" style="fill:rgb(231,240,190);fill-rule:nonzero;"/>
                </g>
                <g transform="matrix(269.997,0,0,300,3778.56,1606.31)">
                    <path d="M0.517,-0.667L0.31,-0.191L0.515,-0.191L0.515,-0L0.012,-0L0.218,-0.475L0,-0.475L0,-0.667L0.517,-0.667Z" style="fill:rgb(231,240,190);fill-rule:nonzero;"/>
                </g>
                <g transform="matrix(269.997,0,0,300,3918.17,1606.31)">
                    <path d="M0.383,-0.683C0.477,-0.683 0.558,-0.649 0.626,-0.58C0.693,-0.511 0.727,-0.429 0.727,-0.333C0.727,-0.236 0.693,-0.153 0.625,-0.085C0.557,-0.017 0.474,0.017 0.377,0.017C0.28,0.017 0.198,-0.018 0.129,-0.086C0.061,-0.154 0.027,-0.237 0.027,-0.333C0.027,-0.431 0.061,-0.514 0.13,-0.582C0.199,-0.649 0.283,-0.683 0.383,-0.683ZM0.377,-0.487C0.336,-0.487 0.302,-0.472 0.273,-0.442C0.244,-0.412 0.23,-0.376 0.23,-0.333C0.23,-0.291 0.244,-0.255 0.273,-0.225C0.302,-0.195 0.337,-0.18 0.377,-0.18C0.418,-0.18 0.453,-0.195 0.481,-0.225C0.51,-0.255 0.524,-0.291 0.524,-0.333C0.524,-0.376 0.51,-0.412 0.481,-0.442C0.453,-0.472 0.418,-0.487 0.377,-0.487ZM0.566,-0.855L0.429,-0.722L0.308,-0.722L0.429,-0.855L0.566,-0.855Z" style="fill:rgb(231,240,190);fill-rule:nonzero;"/>
                </g>
                <g transform="matrix(269.997,0,0,300,4126.99,1606.31)">
                    <path d="M0.053,-0L0.053,-0.433C0.053,-0.508 0.076,-0.569 0.121,-0.615C0.167,-0.66 0.227,-0.683 0.303,-0.683C0.378,-0.683 0.435,-0.661 0.475,-0.617C0.515,-0.572 0.535,-0.509 0.535,-0.426L0.535,-0L0.337,-0L0.337,-0.426C0.337,-0.466 0.322,-0.487 0.293,-0.487C0.265,-0.487 0.251,-0.466 0.251,-0.426L0.251,-0L0.053,-0Z" style="fill:rgb(231,240,190);fill-rule:nonzero;"/>
                </g>
            </g>
        </g>
        <g id="Capa1">
        </g>
    </g>
</svg>
