<svg width="39" height="39" viewBox="0 0 39 39" fill="none" xmlns="http://www.w3.org/2000/svg">
<circle cx="19.5" cy="19.5" r="18.7778" fill="#E7F0BE" stroke="#F18054" stroke-width="1.44444"/>
<path d="M16.4474 12.4731L12.6304 16.2892H8.25182C7.68294 16.2892 7.22217 16.75 7.22217 17.3189V23.4968C7.22217 24.0652 7.68294 24.5264 8.25182 24.5264H12.6304L16.4474 28.3426C17.0923 28.9874 18.2051 28.5344 18.2051 27.6145V13.2011C18.2051 12.2804 17.0914 11.8291 16.4474 12.4731ZM26.4574 10.2816C25.9782 9.96713 25.3342 10.0997 25.0197 10.5798C24.7048 11.059 24.8387 11.703 25.3179 12.0174C28.161 13.8832 29.8578 17.0198 29.8578 20.4082C29.8578 23.7967 28.161 26.9332 25.3179 28.7991C24.8387 29.1131 24.7048 29.7575 25.0197 30.2363C25.3218 30.6958 25.9606 30.8609 26.4574 30.5345C29.8861 28.2838 31.9338 24.4977 31.9338 20.4078C31.9338 16.3179 29.8861 12.5323 26.4574 10.2816ZM27.8152 20.4078C27.8152 17.6822 26.4398 15.1763 24.1355 13.7048C23.6554 13.3985 23.0188 13.5409 22.7146 14.0248C22.4104 14.5088 22.5524 15.1493 23.0325 15.456C24.7379 16.5453 25.7559 18.3961 25.7559 20.4078C25.7559 22.4195 24.7379 24.2703 23.0325 25.3596C22.5524 25.6659 22.4104 26.3064 22.7146 26.7908C22.9939 27.2353 23.6207 27.4403 24.1355 27.1109C26.4398 25.6393 27.8152 23.1338 27.8152 20.4078ZM21.733 17.1099C21.2362 16.8384 20.6094 17.0173 20.3339 17.5153C20.0598 18.0134 20.2413 18.6394 20.7394 18.9144C21.2932 19.2186 21.6373 19.7913 21.6373 20.4078C21.6373 21.0248 21.2932 21.5971 20.7398 21.9012C20.2417 22.1762 20.0602 22.8022 20.3344 23.3003C20.6102 23.8005 21.2375 23.9781 21.7334 23.7057C22.9445 23.0386 23.6971 21.7751 23.6971 20.4074C23.6971 19.0397 22.9445 17.7766 21.733 17.1099Z" fill="#F18054"/>
</svg>
